<?xml version="1.0" encoding="UTF-8" standalone="no"?>
<!DOCTYPE svg PUBLIC "-//W3C//DTD SVG 1.1//EN"
 "http://www.w3.org/Graphics/SVG/1.1/DTD/svg11.dtd">
<!-- Generated by graphviz version 12.2.1 (20241206.2353)
 -->
<!-- Pages: 1 -->
<svg width="1263pt" height="1700pt"
 viewBox="0.00 0.00 1262.93 1700.00" xmlns="http://www.w3.org/2000/svg" xmlns:xlink="http://www.w3.org/1999/xlink">
<g id="graph0" class="graph" transform="scale(1 1) rotate(0) translate(4 1696)">
<polygon fill="white" stroke="none" points="-4,4 -4,-1696 1258.93,-1696 1258.93,4 -4,4"/>
<!-- layer_3_&#45;1 -->
<g id="node1" class="node">
<title>layer_3_&#45;1</title>
<g id="a_node1"><a xlink:href="layer_-1_data_3_detail.svg" xlink:title="layer &#45;1" target="_blank">
<polygon fill="lightyellow" stroke="black" points="654.26,-1692 596.26,-1692 596.26,-1656 654.26,-1656 654.26,-1692"/>
<text text-anchor="middle" x="625.26" y="-1668.95" font-family="Times New Roman,serif" font-size="14.00">layer &#45;1</text>
</a>
</g>
</g>
<!-- layer_3_0 -->
<g id="node2" class="node">
<title>layer_3_0</title>
<g id="a_node2"><a xlink:href="layer_0_data_3_detail.svg" xlink:title="layer 0" target="_blank">
<polygon fill="lightyellow" stroke="black" points="1220.26,-1620 1166.26,-1620 1166.26,-1584 1220.26,-1584 1220.26,-1620"/>
<text text-anchor="middle" x="1193.26" y="-1596.95" font-family="Times New Roman,serif" font-size="14.00">layer 0</text>
</a>
</g>
</g>
<!-- layer_3_&#45;1&#45;&gt;layer_3_0 -->
<g id="edge2" class="edge">
<title>layer_3_&#45;1&#45;&gt;layer_3_0</title>
<path fill="none" stroke="black" d="M654.55,-1672.89C733.87,-1671.71 950.26,-1664.06 1125.26,-1620 1134.55,-1617.66 1144.48,-1613.59 1155.34,-1610.01"/>
<polygon fill="black" stroke="black" points="1156,-1613.47 1164.58,-1607.25 1154,-1606.76 1156,-1613.47"/>
</g>
<!-- layer_3_&#45;1&#45;&gt;layer_3_0 -->
<g id="edge5" class="edge">
<title>layer_3_&#45;1&#45;&gt;layer_3_0</title>
<path fill="none" stroke="black" d="M654.7,-1673C734.71,-1672.26 961.35,-1665.8 1143.26,-1620 1147.23,-1619 1151.32,-1617.68 1155.39,-1616.22"/>
<polygon fill="black" stroke="black" points="1156.51,-1619.54 1164.59,-1612.69 1154,-1613.01 1156.51,-1619.54"/>
</g>
<!-- layer_3_&#45;1&#45;&gt;layer_3_0 -->
<g id="edge6" class="edge">
<title>layer_3_&#45;1&#45;&gt;layer_3_0</title>
<path fill="none" stroke="black" d="M654.62,-1673.06C734.99,-1672.68 963.94,-1667.63 1154.72,-1621.48"/>
<polygon fill="black" stroke="black" points="1155.44,-1624.91 1164.31,-1619.11 1153.76,-1618.11 1155.44,-1624.91"/>
</g>
<!-- layer_3_&#45;1&#45;&gt;layer_3_0 -->
<g id="edge7" class="edge">
<title>layer_3_&#45;1&#45;&gt;layer_3_0</title>
<path fill="none" stroke="black" d="M654.72,-1673.08C738.6,-1672.95 974.43,-1669.01 1166.16,-1623.21"/>
<polygon fill="black" stroke="black" points="1166.92,-1626.63 1175.8,-1620.86 1165.26,-1619.83 1166.92,-1626.63"/>
</g>
<!-- layer_3_1 -->
<g id="node3" class="node">
<title>layer_3_1</title>
<g id="a_node3"><a xlink:href="layer_1_data_3_detail.svg" xlink:title="layer 1" target="_blank">
<polygon fill="lightyellow" stroke="black" points="1167.26,-1548 1113.26,-1548 1113.26,-1512 1167.26,-1512 1167.26,-1548"/>
<text text-anchor="middle" x="1140.26" y="-1524.95" font-family="Times New Roman,serif" font-size="14.00">layer 1</text>
</a>
</g>
</g>
<!-- layer_3_&#45;1&#45;&gt;layer_3_1 -->
<g id="edge12" class="edge">
<title>layer_3_&#45;1&#45;&gt;layer_3_1</title>
<path fill="none" stroke="black" d="M654.54,-1673.29C744.9,-1673.5 1016.54,-1669.63 1087.26,-1620 1107.62,-1605.72 1119.01,-1579.26 1126.68,-1558.89"/>
<polygon fill="black" stroke="black" points="1129.88,-1560.33 1130.07,-1549.74 1123.32,-1557.9 1129.88,-1560.33"/>
</g>
<!-- layer_3_&#45;1&#45;&gt;layer_3_1 -->
<g id="edge13" class="edge">
<title>layer_3_&#45;1&#45;&gt;layer_3_1</title>
<path fill="none" stroke="black" d="M654.76,-1673.26C747.88,-1673.68 1032.6,-1670.99 1105.26,-1620 1125.43,-1605.85 1136.8,-1579.75 1141.33,-1559.46"/>
<polygon fill="black" stroke="black" points="1144.75,-1560.26 1142.98,-1549.81 1137.85,-1559.08 1144.75,-1560.26"/>
</g>
<!-- layer_3_2 -->
<g id="node4" class="node">
<title>layer_3_2</title>
<g id="a_node4"><a xlink:href="layer_2_data_3_detail.svg" xlink:title="layer 2" target="_blank">
<polygon fill="lightyellow" stroke="black" points="1111.26,-1476 1057.26,-1476 1057.26,-1440 1111.26,-1440 1111.26,-1476"/>
<text text-anchor="middle" x="1084.26" y="-1452.95" font-family="Times New Roman,serif" font-size="14.00">layer 2</text>
</a>
</g>
</g>
<!-- layer_3_&#45;1&#45;&gt;layer_3_2 -->
<g id="edge18" class="edge">
<title>layer_3_&#45;1&#45;&gt;layer_3_2</title>
<path fill="none" stroke="black" d="M654.58,-1673.34C738.21,-1673.53 974.52,-1669.32 1031.26,-1620 1069.38,-1586.87 1075.99,-1524.22 1079.17,-1487.61"/>
<polygon fill="black" stroke="black" points="1082.64,-1488.04 1080.02,-1477.77 1075.67,-1487.43 1082.64,-1488.04"/>
</g>
<!-- layer_3_&#45;1&#45;&gt;layer_3_2 -->
<g id="edge19" class="edge">
<title>layer_3_&#45;1&#45;&gt;layer_3_2</title>
<path fill="none" stroke="black" d="M654.72,-1673.31C741.19,-1673.75 990.74,-1670.86 1049.26,-1620 1087.38,-1586.87 1093.99,-1524.22 1091.49,-1487.61"/>
<polygon fill="black" stroke="black" points="1094.98,-1487.36 1090.48,-1477.77 1088.02,-1488.08 1094.98,-1487.36"/>
</g>
<!-- layer_3_3 -->
<g id="node5" class="node">
<title>layer_3_3</title>
<g id="a_node5"><a xlink:href="layer_3_data_3_detail.svg" xlink:title="layer 3" target="_blank">
<polygon fill="lightyellow" stroke="black" points="1055.26,-1404 1001.26,-1404 1001.26,-1368 1055.26,-1368 1055.26,-1404"/>
<text text-anchor="middle" x="1028.26" y="-1380.95" font-family="Times New Roman,serif" font-size="14.00">layer 3</text>
</a>
</g>
</g>
<!-- layer_3_&#45;1&#45;&gt;layer_3_3 -->
<g id="edge24" class="edge">
<title>layer_3_&#45;1&#45;&gt;layer_3_3</title>
<path fill="none" stroke="black" d="M654.61,-1672.82C730.43,-1671.67 929.15,-1664.3 975.26,-1620 1031.23,-1566.23 1028.63,-1465.3 1026.96,-1415.82"/>
<polygon fill="black" stroke="black" points="1030.47,-1415.81 1026.65,-1405.93 1023.47,-1416.03 1030.47,-1415.81"/>
</g>
<!-- layer_3_&#45;1&#45;&gt;layer_3_3 -->
<g id="edge25" class="edge">
<title>layer_3_&#45;1&#45;&gt;layer_3_3</title>
<path fill="none" stroke="black" d="M654.72,-1672.93C733.54,-1672.16 945.45,-1665.94 993.26,-1620 1049.35,-1566.12 1046.62,-1464.87 1037.72,-1415.51"/>
<polygon fill="black" stroke="black" points="1041.18,-1414.98 1035.73,-1405.9 1034.33,-1416.4 1041.18,-1414.98"/>
</g>
<!-- layer_3_4 -->
<g id="node6" class="node">
<title>layer_3_4</title>
<g id="a_node6"><a xlink:href="layer_4_data_3_detail.svg" xlink:title="layer 4" target="_blank">
<polygon fill="lightyellow" stroke="black" points="999.26,-1332 945.26,-1332 945.26,-1296 999.26,-1296 999.26,-1332"/>
<text text-anchor="middle" x="972.26" y="-1308.95" font-family="Times New Roman,serif" font-size="14.00">layer 4</text>
</a>
</g>
</g>
<!-- layer_3_&#45;1&#45;&gt;layer_3_4 -->
<g id="edge30" class="edge">
<title>layer_3_&#45;1&#45;&gt;layer_3_4</title>
<path fill="none" stroke="black" d="M654.54,-1671.23C720.8,-1666.94 878.79,-1653.71 919.26,-1620 951.68,-1593 952.26,-1573.19 952.26,-1531 952.26,-1531 952.26,-1531 952.26,-1457 952.26,-1417.62 956.52,-1372.29 961.9,-1343.64"/>
<polygon fill="black" stroke="black" points="965.31,-1344.44 963.96,-1333.94 958.46,-1342.99 965.31,-1344.44"/>
</g>
<!-- layer_3_&#45;1&#45;&gt;layer_3_4 -->
<g id="edge31" class="edge">
<title>layer_3_&#45;1&#45;&gt;layer_3_4</title>
<path fill="none" stroke="black" d="M654.65,-1671.77C724.14,-1668.1 894.95,-1655.24 937.26,-1620 969.68,-1593 970.26,-1573.19 970.26,-1531 970.26,-1531 970.26,-1531 970.26,-1457 970.26,-1417.62 974.52,-1372.29 975.57,-1343.64"/>
<polygon fill="black" stroke="black" points="979.06,-1344.04 975.77,-1333.97 972.07,-1343.89 979.06,-1344.04"/>
</g>
<!-- layer_3_5 -->
<g id="node7" class="node">
<title>layer_3_5</title>
<g id="a_node7"><a xlink:href="layer_5_data_3_detail.svg" xlink:title="layer 5" target="_blank">
<polygon fill="lightyellow" stroke="black" points="943.26,-1260 889.26,-1260 889.26,-1224 943.26,-1224 943.26,-1260"/>
<text text-anchor="middle" x="916.26" y="-1236.95" font-family="Times New Roman,serif" font-size="14.00">layer 5</text>
</a>
</g>
</g>
<!-- layer_3_&#45;1&#45;&gt;layer_3_5 -->
<g id="edge36" class="edge">
<title>layer_3_&#45;1&#45;&gt;layer_3_5</title>
<path fill="none" stroke="black" d="M654.45,-1669.69C710.96,-1663.26 831.76,-1647.27 863.26,-1620 895.16,-1592.39 896.26,-1573.19 896.26,-1531 896.26,-1531 896.26,-1531 896.26,-1385 896.26,-1345.62 900.52,-1300.29 905.9,-1271.64"/>
<polygon fill="black" stroke="black" points="909.31,-1272.44 907.96,-1261.94 902.46,-1270.99 909.31,-1272.44"/>
</g>
<!-- layer_3_&#45;1&#45;&gt;layer_3_5 -->
<g id="edge37" class="edge">
<title>layer_3_&#45;1&#45;&gt;layer_3_5</title>
<path fill="none" stroke="black" d="M654.6,-1670.71C714.68,-1665.07 847.94,-1648.85 881.26,-1620 913.16,-1592.39 914.26,-1573.19 914.26,-1531 914.26,-1531 914.26,-1531 914.26,-1385 914.26,-1345.62 918.52,-1300.29 919.57,-1271.64"/>
<polygon fill="black" stroke="black" points="923.06,-1272.04 919.77,-1261.97 916.07,-1271.89 923.06,-1272.04"/>
</g>
<!-- layer_3_6 -->
<g id="node8" class="node">
<title>layer_3_6</title>
<g id="a_node8"><a xlink:href="layer_6_data_3_detail.svg" xlink:title="layer 6" target="_blank">
<polygon fill="lightyellow" stroke="black" points="887.26,-1188 833.26,-1188 833.26,-1152 887.26,-1152 887.26,-1188"/>
<text text-anchor="middle" x="860.26" y="-1164.95" font-family="Times New Roman,serif" font-size="14.00">layer 6</text>
</a>
</g>
</g>
<!-- layer_3_&#45;1&#45;&gt;layer_3_6 -->
<g id="edge42" class="edge">
<title>layer_3_&#45;1&#45;&gt;layer_3_6</title>
<path fill="none" stroke="black" d="M654.5,-1672.48C694.1,-1669.97 764.19,-1659.58 807.26,-1620 838.33,-1591.45 840.26,-1573.19 840.26,-1531 840.26,-1531 840.26,-1531 840.26,-1313 840.26,-1273.62 844.52,-1228.29 849.9,-1199.64"/>
<polygon fill="black" stroke="black" points="853.31,-1200.44 851.96,-1189.94 846.46,-1198.99 853.31,-1200.44"/>
</g>
<!-- layer_3_&#45;1&#45;&gt;layer_3_6 -->
<g id="edge43" class="edge">
<title>layer_3_&#45;1&#45;&gt;layer_3_6</title>
<path fill="none" stroke="black" d="M654.58,-1673.01C697.81,-1671.75 777.88,-1663.54 825.26,-1620 856.33,-1591.45 858.26,-1573.19 858.26,-1531 858.26,-1531 858.26,-1531 858.26,-1313 858.26,-1273.62 862.52,-1228.29 863.57,-1199.64"/>
<polygon fill="black" stroke="black" points="867.06,-1200.04 863.77,-1189.97 860.07,-1199.89 867.06,-1200.04"/>
</g>
<!-- layer_3_7 -->
<g id="node9" class="node">
<title>layer_3_7</title>
<g id="a_node9"><a xlink:href="layer_7_data_3_detail.svg" xlink:title="layer 7" target="_blank">
<polygon fill="lightyellow" stroke="black" points="831.26,-1116 777.26,-1116 777.26,-1080 831.26,-1080 831.26,-1116"/>
<text text-anchor="middle" x="804.26" y="-1092.95" font-family="Times New Roman,serif" font-size="14.00">layer 7</text>
</a>
</g>
</g>
<!-- layer_3_&#45;1&#45;&gt;layer_3_7 -->
<g id="edge48" class="edge">
<title>layer_3_&#45;1&#45;&gt;layer_3_7</title>
<path fill="none" stroke="black" d="M654.74,-1667.13C683.01,-1660.52 724.81,-1646.96 751.26,-1620 780.81,-1589.89 784.26,-1573.19 784.26,-1531 784.26,-1531 784.26,-1531 784.26,-1241 784.26,-1201.62 788.52,-1156.29 793.9,-1127.64"/>
<polygon fill="black" stroke="black" points="797.31,-1128.44 795.96,-1117.94 790.46,-1126.99 797.31,-1128.44"/>
</g>
<!-- layer_3_&#45;1&#45;&gt;layer_3_7 -->
<g id="edge49" class="edge">
<title>layer_3_&#45;1&#45;&gt;layer_3_7</title>
<path fill="none" stroke="black" d="M654.67,-1669.8C687.24,-1664.52 738.58,-1651.27 769.26,-1620 798.81,-1589.89 802.26,-1573.19 802.26,-1531 802.26,-1531 802.26,-1531 802.26,-1241 802.26,-1201.62 806.52,-1156.29 807.57,-1127.64"/>
<polygon fill="black" stroke="black" points="811.06,-1128.04 807.77,-1117.97 804.07,-1127.89 811.06,-1128.04"/>
</g>
<!-- layer_3_8 -->
<g id="node10" class="node">
<title>layer_3_8</title>
<g id="a_node10"><a xlink:href="layer_8_data_3_detail.svg" xlink:title="layer 8" target="_blank">
<polygon fill="lightyellow" stroke="black" points="775.26,-1044 721.26,-1044 721.26,-1008 775.26,-1008 775.26,-1044"/>
<text text-anchor="middle" x="748.26" y="-1020.95" font-family="Times New Roman,serif" font-size="14.00">layer 8</text>
</a>
</g>
</g>
<!-- layer_3_&#45;1&#45;&gt;layer_3_8 -->
<g id="edge54" class="edge">
<title>layer_3_&#45;1&#45;&gt;layer_3_8</title>
<path fill="none" stroke="black" d="M652.64,-1655.58C666.97,-1646.7 683.71,-1634.66 695.26,-1620 721.38,-1586.87 728.26,-1573.19 728.26,-1531 728.26,-1531 728.26,-1531 728.26,-1169 728.26,-1129.62 732.52,-1084.29 737.9,-1055.64"/>
<polygon fill="black" stroke="black" points="741.31,-1056.44 739.96,-1045.94 734.46,-1054.99 741.31,-1056.44"/>
</g>
<!-- layer_3_&#45;1&#45;&gt;layer_3_8 -->
<g id="edge55" class="edge">
<title>layer_3_&#45;1&#45;&gt;layer_3_8</title>
<path fill="none" stroke="black" d="M654.76,-1662.91C674.09,-1653.91 698.13,-1639.2 713.26,-1620 739.38,-1586.87 746.26,-1573.19 746.26,-1531 746.26,-1531 746.26,-1531 746.26,-1169 746.26,-1129.62 750.52,-1084.29 751.57,-1055.64"/>
<polygon fill="black" stroke="black" points="755.06,-1056.04 751.77,-1045.97 748.07,-1055.89 755.06,-1056.04"/>
</g>
<!-- layer_3_9 -->
<g id="node11" class="node">
<title>layer_3_9</title>
<g id="a_node11"><a xlink:href="layer_9_data_3_detail.svg" xlink:title="layer 9" target="_blank">
<polygon fill="lightyellow" stroke="black" points="719.26,-972 665.26,-972 665.26,-936 719.26,-936 719.26,-972"/>
<text text-anchor="middle" x="692.26" y="-948.95" font-family="Times New Roman,serif" font-size="14.00">layer 9</text>
</a>
</g>
</g>
<!-- layer_3_&#45;1&#45;&gt;layer_3_9 -->
<g id="edge60" class="edge">
<title>layer_3_&#45;1&#45;&gt;layer_3_9</title>
<path fill="none" stroke="black" d="M631.05,-1655.93C644.27,-1630.09 672.26,-1578.97 672.26,-1531 672.26,-1531 672.26,-1531 672.26,-1097 672.26,-1057.62 676.52,-1012.29 681.9,-983.64"/>
<polygon fill="black" stroke="black" points="685.31,-984.44 683.96,-973.94 678.46,-982.99 685.31,-984.44"/>
</g>
<!-- layer_3_&#45;1&#45;&gt;layer_3_9 -->
<g id="edge61" class="edge">
<title>layer_3_&#45;1&#45;&gt;layer_3_9</title>
<path fill="none" stroke="black" d="M642.69,-1655.93C662.27,-1630.09 690.26,-1578.97 690.26,-1531 690.26,-1531 690.26,-1531 690.26,-1097 690.26,-1057.62 694.52,-1012.29 695.57,-983.64"/>
<polygon fill="black" stroke="black" points="699.06,-984.04 695.77,-973.97 692.07,-983.89 699.06,-984.04"/>
</g>
<!-- layer_3_10 -->
<g id="node12" class="node">
<title>layer_3_10</title>
<g id="a_node12"><a xlink:href="layer_10_data_3_detail.svg" xlink:title="layer 10" target="_blank">
<polygon fill="lightyellow" stroke="black" points="666.39,-900 606.14,-900 606.14,-864 666.39,-864 666.39,-900"/>
<text text-anchor="middle" x="636.26" y="-876.95" font-family="Times New Roman,serif" font-size="14.00">layer 10</text>
</a>
</g>
</g>
<!-- layer_3_&#45;1&#45;&gt;layer_3_10 -->
<g id="edge66" class="edge">
<title>layer_3_&#45;1&#45;&gt;layer_3_10</title>
<path fill="none" stroke="black" d="M619.5,-1655.51C616.26,-1628.71 616.26,-1575.87 616.26,-1531 616.26,-1531 616.26,-1531 616.26,-1025 616.26,-985.62 620.52,-940.29 625.9,-911.64"/>
<polygon fill="black" stroke="black" points="629.31,-912.44 627.96,-901.94 622.46,-910.99 629.31,-912.44"/>
</g>
<!-- layer_3_&#45;1&#45;&gt;layer_3_10 -->
<g id="edge67" class="edge">
<title>layer_3_&#45;1&#45;&gt;layer_3_10</title>
<path fill="none" stroke="black" d="M631.03,-1655.51C634.26,-1628.71 634.26,-1575.87 634.26,-1531 634.26,-1531 634.26,-1531 634.26,-1025 634.26,-985.62 638.52,-940.29 639.57,-911.64"/>
<polygon fill="black" stroke="black" points="643.06,-912.04 639.77,-901.97 636.07,-911.89 643.06,-912.04"/>
</g>
<!-- layer_3_11 -->
<g id="node13" class="node">
<title>layer_3_11</title>
<g id="a_node13"><a xlink:href="layer_11_data_3_detail.svg" xlink:title="layer 11" target="_blank">
<polygon fill="lightyellow" stroke="black" points="610.39,-828 550.14,-828 550.14,-792 610.39,-792 610.39,-828"/>
<text text-anchor="middle" x="580.26" y="-804.95" font-family="Times New Roman,serif" font-size="14.00">layer 11</text>
</a>
</g>
</g>
<!-- layer_3_&#45;1&#45;&gt;layer_3_11 -->
<g id="edge72" class="edge">
<title>layer_3_&#45;1&#45;&gt;layer_3_11</title>
<path fill="none" stroke="black" d="M607.84,-1655.93C588.26,-1630.09 560.26,-1578.97 560.26,-1531 560.26,-1531 560.26,-1531 560.26,-953 560.26,-913.62 564.52,-868.29 569.9,-839.64"/>
<polygon fill="black" stroke="black" points="573.31,-840.44 571.96,-829.94 566.46,-838.99 573.31,-840.44"/>
</g>
<!-- layer_3_&#45;1&#45;&gt;layer_3_11 -->
<g id="edge73" class="edge">
<title>layer_3_&#45;1&#45;&gt;layer_3_11</title>
<path fill="none" stroke="black" d="M619.48,-1655.93C606.26,-1630.09 578.26,-1578.97 578.26,-1531 578.26,-1531 578.26,-1531 578.26,-953 578.26,-913.62 582.52,-868.29 583.57,-839.64"/>
<polygon fill="black" stroke="black" points="587.06,-840.04 583.77,-829.97 580.07,-839.89 587.06,-840.04"/>
</g>
<!-- layer_3_12 -->
<g id="node14" class="node">
<title>layer_3_12</title>
<g id="a_node14"><a xlink:href="layer_12_data_3_detail.svg" xlink:title="layer 12" target="_blank">
<polygon fill="lightyellow" stroke="black" points="554.39,-756 494.14,-756 494.14,-720 554.39,-720 554.39,-756"/>
<text text-anchor="middle" x="524.26" y="-732.95" font-family="Times New Roman,serif" font-size="14.00">layer 12</text>
</a>
</g>
</g>
<!-- layer_3_&#45;1&#45;&gt;layer_3_12 -->
<g id="edge78" class="edge">
<title>layer_3_&#45;1&#45;&gt;layer_3_12</title>
<path fill="none" stroke="black" d="M595.94,-1658.02C559.94,-1635.02 504.26,-1587.67 504.26,-1531 504.26,-1531 504.26,-1531 504.26,-881 504.26,-841.62 508.52,-796.29 513.9,-767.64"/>
<polygon fill="black" stroke="black" points="517.31,-768.44 515.96,-757.94 510.46,-766.99 517.31,-768.44"/>
</g>
<!-- layer_3_&#45;1&#45;&gt;layer_3_12 -->
<g id="edge79" class="edge">
<title>layer_3_&#45;1&#45;&gt;layer_3_12</title>
<path fill="none" stroke="black" d="M604.59,-1655.65C574.3,-1631.86 522.26,-1585.79 522.26,-1531 522.26,-1531 522.26,-1531 522.26,-881 522.26,-841.62 526.52,-796.29 527.57,-767.64"/>
<polygon fill="black" stroke="black" points="531.06,-768.04 527.77,-757.97 524.07,-767.89 531.06,-768.04"/>
</g>
<!-- layer_3_13 -->
<g id="node15" class="node">
<title>layer_3_13</title>
<g id="a_node15"><a xlink:href="layer_13_data_3_detail.svg" xlink:title="layer 13" target="_blank">
<polygon fill="lightyellow" stroke="black" points="498.39,-684 438.14,-684 438.14,-648 498.39,-648 498.39,-684"/>
<text text-anchor="middle" x="468.26" y="-660.95" font-family="Times New Roman,serif" font-size="14.00">layer 13</text>
</a>
</g>
</g>
<!-- layer_3_&#45;1&#45;&gt;layer_3_13 -->
<g id="edge84" class="edge">
<title>layer_3_&#45;1&#45;&gt;layer_3_13</title>
<path fill="none" stroke="black" d="M595.78,-1665.21C545.24,-1648.66 448.26,-1605.28 448.26,-1531 448.26,-1531 448.26,-1531 448.26,-809 448.26,-769.62 452.52,-724.29 457.9,-695.64"/>
<polygon fill="black" stroke="black" points="461.31,-696.44 459.96,-685.94 454.46,-694.99 461.31,-696.44"/>
</g>
<!-- layer_3_&#45;1&#45;&gt;layer_3_13 -->
<g id="edge85" class="edge">
<title>layer_3_&#45;1&#45;&gt;layer_3_13</title>
<path fill="none" stroke="black" d="M595.89,-1661.22C549.78,-1642.25 466.26,-1599.93 466.26,-1531 466.26,-1531 466.26,-1531 466.26,-809 466.26,-769.62 470.52,-724.29 471.57,-695.64"/>
<polygon fill="black" stroke="black" points="475.06,-696.04 471.77,-685.97 468.07,-695.89 475.06,-696.04"/>
</g>
<!-- layer_3_14 -->
<g id="node16" class="node">
<title>layer_3_14</title>
<g id="a_node16"><a xlink:href="layer_14_data_3_detail.svg" xlink:title="layer 14" target="_blank">
<polygon fill="lightyellow" stroke="black" points="442.39,-612 382.14,-612 382.14,-576 442.39,-576 442.39,-612"/>
<text text-anchor="middle" x="412.26" y="-588.95" font-family="Times New Roman,serif" font-size="14.00">layer 14</text>
</a>
</g>
</g>
<!-- layer_3_&#45;1&#45;&gt;layer_3_14 -->
<g id="edge90" class="edge">
<title>layer_3_&#45;1&#45;&gt;layer_3_14</title>
<path fill="none" stroke="black" d="M595.92,-1669.28C533.12,-1658.99 392.26,-1624.47 392.26,-1531 392.26,-1531 392.26,-1531 392.26,-737 392.26,-697.62 396.52,-652.29 401.9,-623.64"/>
<polygon fill="black" stroke="black" points="405.31,-624.44 403.96,-613.94 398.46,-622.99 405.31,-624.44"/>
</g>
<!-- layer_3_&#45;1&#45;&gt;layer_3_14 -->
<g id="edge91" class="edge">
<title>layer_3_&#45;1&#45;&gt;layer_3_14</title>
<path fill="none" stroke="black" d="M595.93,-1667.48C536.92,-1655.26 410.26,-1619.64 410.26,-1531 410.26,-1531 410.26,-1531 410.26,-737 410.26,-697.62 414.52,-652.29 415.57,-623.64"/>
<polygon fill="black" stroke="black" points="419.06,-624.04 415.77,-613.97 412.07,-623.89 419.06,-624.04"/>
</g>
<!-- layer_3_15 -->
<g id="node17" class="node">
<title>layer_3_15</title>
<g id="a_node17"><a xlink:href="layer_15_data_3_detail.svg" xlink:title="layer 15" target="_blank">
<polygon fill="lightyellow" stroke="black" points="386.39,-540 326.14,-540 326.14,-504 386.39,-504 386.39,-540"/>
<text text-anchor="middle" x="356.26" y="-516.95" font-family="Times New Roman,serif" font-size="14.00">layer 15</text>
</a>
</g>
</g>
<!-- layer_3_&#45;1&#45;&gt;layer_3_15 -->
<g id="edge96" class="edge">
<title>layer_3_&#45;1&#45;&gt;layer_3_15</title>
<path fill="none" stroke="black" d="M595.78,-1671.89C522,-1667.37 336.26,-1644.64 336.26,-1531 336.26,-1531 336.26,-1531 336.26,-665 336.26,-625.62 340.52,-580.29 345.9,-551.64"/>
<polygon fill="black" stroke="black" points="349.31,-552.44 347.96,-541.94 342.46,-550.99 349.31,-552.44"/>
</g>
<!-- layer_3_&#45;1&#45;&gt;layer_3_15 -->
<g id="edge97" class="edge">
<title>layer_3_&#45;1&#45;&gt;layer_3_15</title>
<path fill="none" stroke="black" d="M595.9,-1671.26C525.59,-1665.43 354.26,-1640.15 354.26,-1531 354.26,-1531 354.26,-1531 354.26,-665 354.26,-625.62 358.52,-580.29 359.57,-551.64"/>
<polygon fill="black" stroke="black" points="363.06,-552.04 359.77,-541.97 356.07,-551.89 363.06,-552.04"/>
</g>
<!-- layer_3_16 -->
<g id="node18" class="node">
<title>layer_3_16</title>
<g id="a_node18"><a xlink:href="layer_16_data_3_detail.svg" xlink:title="layer 16" target="_blank">
<polygon fill="lightyellow" stroke="black" points="330.39,-468 270.14,-468 270.14,-432 330.39,-432 330.39,-468"/>
<text text-anchor="middle" x="300.26" y="-444.95" font-family="Times New Roman,serif" font-size="14.00">layer 16</text>
</a>
</g>
</g>
<!-- layer_3_&#45;1&#45;&gt;layer_3_16 -->
<g id="edge102" class="edge">
<title>layer_3_&#45;1&#45;&gt;layer_3_16</title>
<path fill="none" stroke="black" d="M595.9,-1673.75C512.32,-1674.6 280.26,-1665.73 280.26,-1531 280.26,-1531 280.26,-1531 280.26,-593 280.26,-553.62 284.52,-508.29 289.9,-479.64"/>
<polygon fill="black" stroke="black" points="293.31,-480.44 291.96,-469.94 286.46,-478.99 293.31,-480.44"/>
</g>
<!-- layer_3_&#45;1&#45;&gt;layer_3_16 -->
<g id="edge103" class="edge">
<title>layer_3_&#45;1&#45;&gt;layer_3_16</title>
<path fill="none" stroke="black" d="M595.84,-1673.8C515.3,-1673.88 298.26,-1661.3 298.26,-1531 298.26,-1531 298.26,-1531 298.26,-593 298.26,-553.62 302.52,-508.29 303.57,-479.64"/>
<polygon fill="black" stroke="black" points="307.06,-480.04 303.77,-469.97 300.07,-479.89 307.06,-480.04"/>
</g>
<!-- layer_3_17 -->
<g id="node19" class="node">
<title>layer_3_17</title>
<g id="a_node19"><a xlink:href="layer_17_data_3_detail.svg" xlink:title="layer 17" target="_blank">
<polygon fill="lightyellow" stroke="black" points="274.39,-396 214.14,-396 214.14,-360 274.39,-360 274.39,-396"/>
<text text-anchor="middle" x="244.26" y="-372.95" font-family="Times New Roman,serif" font-size="14.00">layer 17</text>
</a>
</g>
</g>
<!-- layer_3_&#45;1&#45;&gt;layer_3_17 -->
<g id="edge108" class="edge">
<title>layer_3_&#45;1&#45;&gt;layer_3_17</title>
<path fill="none" stroke="black" d="M595.95,-1671.22C524.55,-1666.11 344.81,-1649.87 294.26,-1620 250.94,-1594.4 224.26,-1581.32 224.26,-1531 224.26,-1531 224.26,-1531 224.26,-521 224.26,-481.62 228.52,-436.29 233.9,-407.64"/>
<polygon fill="black" stroke="black" points="237.31,-408.44 235.96,-397.94 230.46,-406.99 237.31,-408.44"/>
</g>
<!-- layer_3_&#45;1&#45;&gt;layer_3_17 -->
<g id="edge109" class="edge">
<title>layer_3_&#45;1&#45;&gt;layer_3_17</title>
<path fill="none" stroke="black" d="M595.96,-1670.51C527.61,-1664.72 360.67,-1648.61 312.26,-1620 268.94,-1594.4 242.26,-1581.32 242.26,-1531 242.26,-1531 242.26,-1531 242.26,-521 242.26,-481.62 246.52,-436.29 247.57,-407.64"/>
<polygon fill="black" stroke="black" points="251.06,-408.04 247.77,-397.97 244.07,-407.89 251.06,-408.04"/>
</g>
<!-- layer_3_18 -->
<g id="node20" class="node">
<title>layer_3_18</title>
<g id="a_node20"><a xlink:href="layer_18_data_3_detail.svg" xlink:title="layer 18" target="_blank">
<polygon fill="lightyellow" stroke="black" points="218.39,-324 158.14,-324 158.14,-288 218.39,-288 218.39,-324"/>
<text text-anchor="middle" x="188.26" y="-300.95" font-family="Times New Roman,serif" font-size="14.00">layer 18</text>
</a>
</g>
</g>
<!-- layer_3_&#45;1&#45;&gt;layer_3_18 -->
<g id="edge114" class="edge">
<title>layer_3_&#45;1&#45;&gt;layer_3_18</title>
<path fill="none" stroke="black" d="M595.78,-1671.85C516.15,-1668.12 299.76,-1654.52 239.26,-1620 195.32,-1594.92 168.26,-1581.6 168.26,-1531 168.26,-1531 168.26,-1531 168.26,-449 168.26,-409.62 172.52,-364.29 177.9,-335.64"/>
<polygon fill="black" stroke="black" points="181.31,-336.44 179.96,-325.94 174.46,-334.99 181.31,-336.44"/>
</g>
<!-- layer_3_&#45;1&#45;&gt;layer_3_18 -->
<g id="edge115" class="edge">
<title>layer_3_&#45;1&#45;&gt;layer_3_18</title>
<path fill="none" stroke="black" d="M595.77,-1671.42C518.95,-1667.13 315.6,-1653.29 257.26,-1620 213.32,-1594.92 186.26,-1581.6 186.26,-1531 186.26,-1531 186.26,-1531 186.26,-449 186.26,-409.62 190.52,-364.29 191.57,-335.64"/>
<polygon fill="black" stroke="black" points="195.06,-336.04 191.77,-325.97 188.07,-335.89 195.06,-336.04"/>
</g>
<!-- layer_3_19 -->
<g id="node21" class="node">
<title>layer_3_19</title>
<g id="a_node21"><a xlink:href="layer_19_data_3_detail.svg" xlink:title="layer 19" target="_blank">
<polygon fill="lightyellow" stroke="black" points="162.39,-252 102.14,-252 102.14,-216 162.39,-216 162.39,-252"/>
<text text-anchor="middle" x="132.26" y="-228.95" font-family="Times New Roman,serif" font-size="14.00">layer 19</text>
</a>
</g>
</g>
<!-- layer_3_&#45;1&#45;&gt;layer_3_19 -->
<g id="edge120" class="edge">
<title>layer_3_&#45;1&#45;&gt;layer_3_19</title>
<path fill="none" stroke="black" d="M595.79,-1672.37C508.46,-1669.98 253.92,-1659.49 183.26,-1620 139.09,-1595.32 112.26,-1581.6 112.26,-1531 112.26,-1531 112.26,-1531 112.26,-377 112.26,-337.62 116.52,-292.29 121.9,-263.64"/>
<polygon fill="black" stroke="black" points="125.31,-264.44 123.96,-253.94 118.46,-262.99 125.31,-264.44"/>
</g>
<!-- layer_3_&#45;1&#45;&gt;layer_3_19 -->
<g id="edge121" class="edge">
<title>layer_3_&#45;1&#45;&gt;layer_3_19</title>
<path fill="none" stroke="black" d="M595.82,-1672.13C511.15,-1669.32 269.77,-1658.29 201.26,-1620 157.09,-1595.32 130.26,-1581.6 130.26,-1531 130.26,-1531 130.26,-1531 130.26,-377 130.26,-337.62 134.52,-292.29 135.57,-263.64"/>
<polygon fill="black" stroke="black" points="139.06,-264.04 135.77,-253.97 132.07,-263.89 139.06,-264.04"/>
</g>
<!-- layer_3_20 -->
<g id="node22" class="node">
<title>layer_3_20</title>
<g id="a_node22"><a xlink:href="layer_20_data_3_detail.svg" xlink:title="layer 20" target="_blank">
<polygon fill="lightyellow" stroke="black" points="106.39,-180 46.14,-180 46.14,-144 106.39,-144 106.39,-180"/>
<text text-anchor="middle" x="76.26" y="-156.95" font-family="Times New Roman,serif" font-size="14.00">layer 20</text>
</a>
</g>
</g>
<!-- layer_3_&#45;1&#45;&gt;layer_3_20 -->
<g id="edge126" class="edge">
<title>layer_3_&#45;1&#45;&gt;layer_3_20</title>
<path fill="none" stroke="black" d="M595.83,-1672.78C501.32,-1671.63 208.17,-1664.48 127.26,-1620 82.92,-1595.62 56.26,-1581.6 56.26,-1531 56.26,-1531 56.26,-1531 56.26,-305 56.26,-265.62 60.52,-220.29 65.9,-191.64"/>
<polygon fill="black" stroke="black" points="69.31,-192.44 67.96,-181.94 62.46,-190.99 69.31,-192.44"/>
</g>
<!-- layer_3_&#45;1&#45;&gt;layer_3_20 -->
<g id="edge127" class="edge">
<title>layer_3_&#45;1&#45;&gt;layer_3_20</title>
<path fill="none" stroke="black" d="M595.87,-1672.68C503.88,-1671.23 224.02,-1663.3 145.26,-1620 100.92,-1595.62 74.26,-1581.6 74.26,-1531 74.26,-1531 74.26,-1531 74.26,-305 74.26,-265.62 78.52,-220.29 79.57,-191.64"/>
<polygon fill="black" stroke="black" points="83.06,-192.04 79.77,-181.97 76.07,-191.89 83.06,-192.04"/>
</g>
<!-- layer_3_21 -->
<g id="node23" class="node">
<title>layer_3_21</title>
<g id="a_node23"><a xlink:href="layer_21_data_3_detail.svg" xlink:title="layer 21" target="_blank">
<polygon fill="lightyellow" stroke="black" points="621.39,-108 561.14,-108 561.14,-72 621.39,-72 621.39,-108"/>
<text text-anchor="middle" x="591.26" y="-84.95" font-family="Times New Roman,serif" font-size="14.00">layer 21</text>
</a>
</g>
</g>
<!-- layer_3_&#45;1&#45;&gt;layer_3_21 -->
<g id="edge130" class="edge">
<title>layer_3_&#45;1&#45;&gt;layer_3_21</title>
<path fill="none" stroke="black" d="M596.08,-1673.11C495.03,-1673.12 162.55,-1669.54 71.26,-1620 26.79,-1595.87 0.26,-1581.6 0.26,-1531 0.26,-1531 0.26,-1531 0.26,-233 0.26,-191.53 -3.96,-170.1 28.26,-144 68.27,-111.6 425.64,-96.41 549.41,-92.24"/>
<polygon fill="black" stroke="black" points="549.25,-95.74 559.13,-91.92 549.02,-88.75 549.25,-95.74"/>
</g>
<!-- layer_3_&#45;1&#45;&gt;layer_3_21 -->
<g id="edge131" class="edge">
<title>layer_3_&#45;1&#45;&gt;layer_3_21</title>
<path fill="none" stroke="black" d="M596,-1673.1C497.2,-1672.92 178.35,-1668.35 89.26,-1620 44.79,-1595.87 18.26,-1581.6 18.26,-1531 18.26,-1531 18.26,-1531 18.26,-233 18.26,-191.53 14.04,-170.1 46.26,-144 85.41,-112.3 428.46,-97.07 549.4,-92.52"/>
<polygon fill="black" stroke="black" points="549.35,-96.02 559.21,-92.16 549.09,-89.03 549.35,-96.02"/>
</g>
<!-- layer_3_0&#45;&gt;layer_3_1 -->
<g id="edge8" class="edge">
<title>layer_3_0&#45;&gt;layer_3_1</title>
<path fill="none" stroke="black" d="M1174.25,-1583.7C1167.47,-1575.81 1160.05,-1566.3 1153.79,-1557.55"/>
<polygon fill="black" stroke="black" points="1156.72,-1555.62 1148.18,-1549.35 1150.94,-1559.58 1156.72,-1555.62"/>
</g>
<!-- layer_3_0&#45;&gt;layer_3_1 -->
<g id="edge9" class="edge">
<title>layer_3_0&#45;&gt;layer_3_1</title>
<path fill="none" stroke="black" d="M1186.08,-1583.7C1180.76,-1575.56 1173.49,-1565.69 1166.26,-1556.7"/>
<polygon fill="black" stroke="black" points="1169.16,-1554.72 1160.08,-1549.27 1163.78,-1559.2 1169.16,-1554.72"/>
</g>
<!-- layer_3_1&#45;&gt;layer_3_2 -->
<g id="edge14" class="edge">
<title>layer_3_1&#45;&gt;layer_3_2</title>
<path fill="none" stroke="black" d="M1120.51,-1511.7C1113.31,-1503.73 1105.39,-1494.1 1098.72,-1485.26"/>
<polygon fill="black" stroke="black" points="1101.66,-1483.36 1092.94,-1477.33 1096,-1487.47 1101.66,-1483.36"/>
</g>
<!-- layer_3_1&#45;&gt;layer_3_2 -->
<g id="edge15" class="edge">
<title>layer_3_1&#45;&gt;layer_3_2</title>
<path fill="none" stroke="black" d="M1132.34,-1511.7C1126.67,-1503.56 1118.98,-1493.69 1111.36,-1484.7"/>
<polygon fill="black" stroke="black" points="1114.06,-1482.47 1104.84,-1477.24 1108.79,-1487.08 1114.06,-1482.47"/>
</g>
<!-- layer_3_2&#45;&gt;layer_3_3 -->
<g id="edge20" class="edge">
<title>layer_3_2&#45;&gt;layer_3_3</title>
<path fill="none" stroke="black" d="M1064.51,-1439.7C1057.31,-1431.73 1049.39,-1422.1 1042.72,-1413.26"/>
<polygon fill="black" stroke="black" points="1045.66,-1411.36 1036.94,-1405.33 1040,-1415.47 1045.66,-1411.36"/>
</g>
<!-- layer_3_2&#45;&gt;layer_3_3 -->
<g id="edge21" class="edge">
<title>layer_3_2&#45;&gt;layer_3_3</title>
<path fill="none" stroke="black" d="M1076.34,-1439.7C1070.67,-1431.56 1062.98,-1421.69 1055.36,-1412.7"/>
<polygon fill="black" stroke="black" points="1058.06,-1410.47 1048.84,-1405.24 1052.79,-1415.08 1058.06,-1410.47"/>
</g>
<!-- layer_3_3&#45;&gt;layer_3_4 -->
<g id="edge26" class="edge">
<title>layer_3_3&#45;&gt;layer_3_4</title>
<path fill="none" stroke="black" d="M1008.51,-1367.7C1001.31,-1359.73 993.39,-1350.1 986.72,-1341.26"/>
<polygon fill="black" stroke="black" points="989.66,-1339.36 980.94,-1333.33 984,-1343.47 989.66,-1339.36"/>
</g>
<!-- layer_3_3&#45;&gt;layer_3_4 -->
<g id="edge27" class="edge">
<title>layer_3_3&#45;&gt;layer_3_4</title>
<path fill="none" stroke="black" d="M1020.34,-1367.7C1014.67,-1359.56 1006.98,-1349.69 999.36,-1340.7"/>
<polygon fill="black" stroke="black" points="1002.06,-1338.47 992.84,-1333.24 996.79,-1343.08 1002.06,-1338.47"/>
</g>
<!-- layer_3_4&#45;&gt;layer_3_5 -->
<g id="edge32" class="edge">
<title>layer_3_4&#45;&gt;layer_3_5</title>
<path fill="none" stroke="black" d="M952.51,-1295.7C945.31,-1287.73 937.39,-1278.1 930.72,-1269.26"/>
<polygon fill="black" stroke="black" points="933.66,-1267.36 924.94,-1261.33 928,-1271.47 933.66,-1267.36"/>
</g>
<!-- layer_3_4&#45;&gt;layer_3_5 -->
<g id="edge33" class="edge">
<title>layer_3_4&#45;&gt;layer_3_5</title>
<path fill="none" stroke="black" d="M964.34,-1295.7C958.67,-1287.56 950.98,-1277.69 943.36,-1268.7"/>
<polygon fill="black" stroke="black" points="946.06,-1266.47 936.84,-1261.24 940.79,-1271.08 946.06,-1266.47"/>
</g>
<!-- layer_3_5&#45;&gt;layer_3_6 -->
<g id="edge38" class="edge">
<title>layer_3_5&#45;&gt;layer_3_6</title>
<path fill="none" stroke="black" d="M896.51,-1223.7C889.31,-1215.73 881.39,-1206.1 874.72,-1197.26"/>
<polygon fill="black" stroke="black" points="877.66,-1195.36 868.94,-1189.33 872,-1199.47 877.66,-1195.36"/>
</g>
<!-- layer_3_5&#45;&gt;layer_3_6 -->
<g id="edge39" class="edge">
<title>layer_3_5&#45;&gt;layer_3_6</title>
<path fill="none" stroke="black" d="M908.34,-1223.7C902.67,-1215.56 894.98,-1205.69 887.36,-1196.7"/>
<polygon fill="black" stroke="black" points="890.06,-1194.47 880.84,-1189.24 884.79,-1199.08 890.06,-1194.47"/>
</g>
<!-- layer_3_6&#45;&gt;layer_3_7 -->
<g id="edge44" class="edge">
<title>layer_3_6&#45;&gt;layer_3_7</title>
<path fill="none" stroke="black" d="M840.51,-1151.7C833.31,-1143.73 825.39,-1134.1 818.72,-1125.26"/>
<polygon fill="black" stroke="black" points="821.66,-1123.36 812.94,-1117.33 816,-1127.47 821.66,-1123.36"/>
</g>
<!-- layer_3_6&#45;&gt;layer_3_7 -->
<g id="edge45" class="edge">
<title>layer_3_6&#45;&gt;layer_3_7</title>
<path fill="none" stroke="black" d="M852.34,-1151.7C846.67,-1143.56 838.98,-1133.69 831.36,-1124.7"/>
<polygon fill="black" stroke="black" points="834.06,-1122.47 824.84,-1117.24 828.79,-1127.08 834.06,-1122.47"/>
</g>
<!-- layer_3_7&#45;&gt;layer_3_8 -->
<g id="edge50" class="edge">
<title>layer_3_7&#45;&gt;layer_3_8</title>
<path fill="none" stroke="black" d="M784.51,-1079.7C777.31,-1071.73 769.39,-1062.1 762.72,-1053.26"/>
<polygon fill="black" stroke="black" points="765.66,-1051.36 756.94,-1045.33 760,-1055.47 765.66,-1051.36"/>
</g>
<!-- layer_3_7&#45;&gt;layer_3_8 -->
<g id="edge51" class="edge">
<title>layer_3_7&#45;&gt;layer_3_8</title>
<path fill="none" stroke="black" d="M796.34,-1079.7C790.67,-1071.56 782.98,-1061.69 775.36,-1052.7"/>
<polygon fill="black" stroke="black" points="778.06,-1050.47 768.84,-1045.24 772.79,-1055.08 778.06,-1050.47"/>
</g>
<!-- layer_3_8&#45;&gt;layer_3_9 -->
<g id="edge56" class="edge">
<title>layer_3_8&#45;&gt;layer_3_9</title>
<path fill="none" stroke="black" d="M728.51,-1007.7C721.31,-999.73 713.39,-990.1 706.72,-981.26"/>
<polygon fill="black" stroke="black" points="709.66,-979.36 700.94,-973.33 704,-983.47 709.66,-979.36"/>
</g>
<!-- layer_3_8&#45;&gt;layer_3_9 -->
<g id="edge57" class="edge">
<title>layer_3_8&#45;&gt;layer_3_9</title>
<path fill="none" stroke="black" d="M740.34,-1007.7C734.67,-999.56 726.98,-989.69 719.36,-980.7"/>
<polygon fill="black" stroke="black" points="722.06,-978.47 712.84,-973.24 716.79,-983.08 722.06,-978.47"/>
</g>
<!-- layer_3_9&#45;&gt;layer_3_10 -->
<g id="edge62" class="edge">
<title>layer_3_9&#45;&gt;layer_3_10</title>
<path fill="none" stroke="black" d="M672.51,-935.7C665.31,-927.73 657.39,-918.1 650.72,-909.26"/>
<polygon fill="black" stroke="black" points="653.66,-907.36 644.94,-901.33 648,-911.47 653.66,-907.36"/>
</g>
<!-- layer_3_9&#45;&gt;layer_3_10 -->
<g id="edge63" class="edge">
<title>layer_3_9&#45;&gt;layer_3_10</title>
<path fill="none" stroke="black" d="M684.34,-935.7C678.67,-927.56 670.98,-917.69 663.36,-908.7"/>
<polygon fill="black" stroke="black" points="666.06,-906.47 656.84,-901.24 660.79,-911.08 666.06,-906.47"/>
</g>
<!-- layer_3_10&#45;&gt;layer_3_11 -->
<g id="edge68" class="edge">
<title>layer_3_10&#45;&gt;layer_3_11</title>
<path fill="none" stroke="black" d="M616.51,-863.7C609.31,-855.73 601.39,-846.1 594.72,-837.26"/>
<polygon fill="black" stroke="black" points="597.66,-835.36 588.94,-829.33 592,-839.47 597.66,-835.36"/>
</g>
<!-- layer_3_10&#45;&gt;layer_3_11 -->
<g id="edge69" class="edge">
<title>layer_3_10&#45;&gt;layer_3_11</title>
<path fill="none" stroke="black" d="M628.34,-863.7C622.67,-855.56 614.98,-845.69 607.36,-836.7"/>
<polygon fill="black" stroke="black" points="610.06,-834.47 600.84,-829.24 604.79,-839.08 610.06,-834.47"/>
</g>
<!-- layer_3_11&#45;&gt;layer_3_12 -->
<g id="edge74" class="edge">
<title>layer_3_11&#45;&gt;layer_3_12</title>
<path fill="none" stroke="black" d="M560.51,-791.7C553.31,-783.73 545.39,-774.1 538.72,-765.26"/>
<polygon fill="black" stroke="black" points="541.66,-763.36 532.94,-757.33 536,-767.47 541.66,-763.36"/>
</g>
<!-- layer_3_11&#45;&gt;layer_3_12 -->
<g id="edge75" class="edge">
<title>layer_3_11&#45;&gt;layer_3_12</title>
<path fill="none" stroke="black" d="M572.34,-791.7C566.67,-783.56 558.98,-773.69 551.36,-764.7"/>
<polygon fill="black" stroke="black" points="554.06,-762.47 544.84,-757.24 548.79,-767.08 554.06,-762.47"/>
</g>
<!-- layer_3_12&#45;&gt;layer_3_13 -->
<g id="edge80" class="edge">
<title>layer_3_12&#45;&gt;layer_3_13</title>
<path fill="none" stroke="black" d="M504.51,-719.7C497.31,-711.73 489.39,-702.1 482.72,-693.26"/>
<polygon fill="black" stroke="black" points="485.66,-691.36 476.94,-685.33 480,-695.47 485.66,-691.36"/>
</g>
<!-- layer_3_12&#45;&gt;layer_3_13 -->
<g id="edge81" class="edge">
<title>layer_3_12&#45;&gt;layer_3_13</title>
<path fill="none" stroke="black" d="M516.34,-719.7C510.67,-711.56 502.98,-701.69 495.36,-692.7"/>
<polygon fill="black" stroke="black" points="498.06,-690.47 488.84,-685.24 492.79,-695.08 498.06,-690.47"/>
</g>
<!-- layer_3_13&#45;&gt;layer_3_14 -->
<g id="edge86" class="edge">
<title>layer_3_13&#45;&gt;layer_3_14</title>
<path fill="none" stroke="black" d="M448.51,-647.7C441.31,-639.73 433.39,-630.1 426.72,-621.26"/>
<polygon fill="black" stroke="black" points="429.66,-619.36 420.94,-613.33 424,-623.47 429.66,-619.36"/>
</g>
<!-- layer_3_13&#45;&gt;layer_3_14 -->
<g id="edge87" class="edge">
<title>layer_3_13&#45;&gt;layer_3_14</title>
<path fill="none" stroke="black" d="M460.34,-647.7C454.67,-639.56 446.98,-629.69 439.36,-620.7"/>
<polygon fill="black" stroke="black" points="442.06,-618.47 432.84,-613.24 436.79,-623.08 442.06,-618.47"/>
</g>
<!-- layer_3_14&#45;&gt;layer_3_15 -->
<g id="edge92" class="edge">
<title>layer_3_14&#45;&gt;layer_3_15</title>
<path fill="none" stroke="black" d="M392.51,-575.7C385.31,-567.73 377.39,-558.1 370.72,-549.26"/>
<polygon fill="black" stroke="black" points="373.66,-547.36 364.94,-541.33 368,-551.47 373.66,-547.36"/>
</g>
<!-- layer_3_14&#45;&gt;layer_3_15 -->
<g id="edge93" class="edge">
<title>layer_3_14&#45;&gt;layer_3_15</title>
<path fill="none" stroke="black" d="M404.34,-575.7C398.67,-567.56 390.98,-557.69 383.36,-548.7"/>
<polygon fill="black" stroke="black" points="386.06,-546.47 376.84,-541.24 380.79,-551.08 386.06,-546.47"/>
</g>
<!-- layer_3_15&#45;&gt;layer_3_16 -->
<g id="edge98" class="edge">
<title>layer_3_15&#45;&gt;layer_3_16</title>
<path fill="none" stroke="black" d="M336.51,-503.7C329.31,-495.73 321.39,-486.1 314.72,-477.26"/>
<polygon fill="black" stroke="black" points="317.66,-475.36 308.94,-469.33 312,-479.47 317.66,-475.36"/>
</g>
<!-- layer_3_15&#45;&gt;layer_3_16 -->
<g id="edge99" class="edge">
<title>layer_3_15&#45;&gt;layer_3_16</title>
<path fill="none" stroke="black" d="M348.34,-503.7C342.67,-495.56 334.98,-485.69 327.36,-476.7"/>
<polygon fill="black" stroke="black" points="330.06,-474.47 320.84,-469.24 324.79,-479.08 330.06,-474.47"/>
</g>
<!-- layer_3_16&#45;&gt;layer_3_17 -->
<g id="edge104" class="edge">
<title>layer_3_16&#45;&gt;layer_3_17</title>
<path fill="none" stroke="black" d="M280.51,-431.7C273.31,-423.73 265.39,-414.1 258.72,-405.26"/>
<polygon fill="black" stroke="black" points="261.66,-403.36 252.94,-397.33 256,-407.47 261.66,-403.36"/>
</g>
<!-- layer_3_16&#45;&gt;layer_3_17 -->
<g id="edge105" class="edge">
<title>layer_3_16&#45;&gt;layer_3_17</title>
<path fill="none" stroke="black" d="M292.34,-431.7C286.67,-423.56 278.98,-413.69 271.36,-404.7"/>
<polygon fill="black" stroke="black" points="274.06,-402.47 264.84,-397.24 268.79,-407.08 274.06,-402.47"/>
</g>
<!-- layer_3_17&#45;&gt;layer_3_18 -->
<g id="edge110" class="edge">
<title>layer_3_17&#45;&gt;layer_3_18</title>
<path fill="none" stroke="black" d="M224.51,-359.7C217.31,-351.73 209.39,-342.1 202.72,-333.26"/>
<polygon fill="black" stroke="black" points="205.66,-331.36 196.94,-325.33 200,-335.47 205.66,-331.36"/>
</g>
<!-- layer_3_17&#45;&gt;layer_3_18 -->
<g id="edge111" class="edge">
<title>layer_3_17&#45;&gt;layer_3_18</title>
<path fill="none" stroke="black" d="M236.34,-359.7C230.67,-351.56 222.98,-341.69 215.36,-332.7"/>
<polygon fill="black" stroke="black" points="218.06,-330.47 208.84,-325.24 212.79,-335.08 218.06,-330.47"/>
</g>
<!-- layer_3_18&#45;&gt;layer_3_19 -->
<g id="edge116" class="edge">
<title>layer_3_18&#45;&gt;layer_3_19</title>
<path fill="none" stroke="black" d="M168.51,-287.7C161.31,-279.73 153.39,-270.1 146.72,-261.26"/>
<polygon fill="black" stroke="black" points="149.66,-259.36 140.94,-253.33 144,-263.47 149.66,-259.36"/>
</g>
<!-- layer_3_18&#45;&gt;layer_3_19 -->
<g id="edge117" class="edge">
<title>layer_3_18&#45;&gt;layer_3_19</title>
<path fill="none" stroke="black" d="M180.34,-287.7C174.67,-279.56 166.98,-269.69 159.36,-260.7"/>
<polygon fill="black" stroke="black" points="162.06,-258.47 152.84,-253.24 156.79,-263.08 162.06,-258.47"/>
</g>
<!-- layer_3_19&#45;&gt;layer_3_20 -->
<g id="edge122" class="edge">
<title>layer_3_19&#45;&gt;layer_3_20</title>
<path fill="none" stroke="black" d="M112.51,-215.7C105.31,-207.73 97.39,-198.1 90.72,-189.26"/>
<polygon fill="black" stroke="black" points="93.66,-187.36 84.94,-181.33 88,-191.47 93.66,-187.36"/>
</g>
<!-- layer_3_19&#45;&gt;layer_3_20 -->
<g id="edge123" class="edge">
<title>layer_3_19&#45;&gt;layer_3_20</title>
<path fill="none" stroke="black" d="M124.34,-215.7C118.67,-207.56 110.98,-197.69 103.36,-188.7"/>
<polygon fill="black" stroke="black" points="106.06,-186.47 96.84,-181.24 100.79,-191.08 106.06,-186.47"/>
</g>
<!-- layer_3_20&#45;&gt;layer_3_21 -->
<g id="edge128" class="edge">
<title>layer_3_20&#45;&gt;layer_3_21</title>
<path fill="none" stroke="black" d="M95.06,-143.56C258.77,-103.73 461.34,-93.98 549.29,-91.68"/>
<polygon fill="black" stroke="black" points="549.25,-95.19 559.17,-91.45 549.09,-88.19 549.25,-95.19"/>
</g>
<!-- layer_3_20&#45;&gt;layer_3_21 -->
<g id="edge129" class="edge">
<title>layer_3_20&#45;&gt;layer_3_21</title>
<path fill="none" stroke="black" d="M106.66,-156.56C121.41,-152.62 134.94,-147.02 147.26,-144 292.76,-108.34 469.51,-96.59 549.77,-92.79"/>
<polygon fill="black" stroke="black" points="549.56,-96.3 559.39,-92.35 549.24,-89.31 549.56,-96.3"/>
</g>
<!-- layer_3_21&#45;&gt;layer_3_0 -->
<g id="edge3" class="edge">
<title>layer_3_21&#45;&gt;layer_3_0</title>
<path fill="none" stroke="black" d="M621.84,-91.38C719.91,-93 1024.26,-101.37 1112.26,-144 1161.77,-167.98 1198.26,-177.99 1198.26,-233 1198.26,-1459 1198.26,-1459 1198.26,-1459 1198.26,-1498.45 1192.85,-1543.77 1190.92,-1572.39"/>
<polygon fill="black" stroke="black" points="1187.44,-1571.88 1190.41,-1582.05 1194.43,-1572.25 1187.44,-1571.88"/>
</g>
<!-- layer_3_21&#45;&gt;layer_3_0 -->
<g id="edge4" class="edge">
<title>layer_3_21&#45;&gt;layer_3_0</title>
<path fill="none" stroke="black" d="M621.65,-91.27C721.94,-92.59 1039.97,-100.26 1130.26,-144 1179.77,-167.98 1216.26,-177.99 1216.26,-233 1216.26,-1459 1216.26,-1459 1216.26,-1459 1216.26,-1498.45 1210.85,-1543.77 1204.59,-1572.39"/>
<polygon fill="black" stroke="black" points="1201.19,-1571.55 1202.22,-1582.1 1207.99,-1573.21 1201.19,-1571.55"/>
</g>
<!-- layer_3_21&#45;&gt;layer_3_1 -->
<g id="edge10" class="edge">
<title>layer_3_21&#45;&gt;layer_3_1</title>
<path fill="none" stroke="black" d="M621.87,-91.79C713.09,-94.46 980.6,-105.27 1058.26,-144 1106.94,-168.27 1142.26,-178.61 1142.26,-233 1142.26,-1387 1142.26,-1387 1142.26,-1387 1142.26,-1426.38 1138.01,-1471.71 1136.96,-1500.36"/>
<polygon fill="black" stroke="black" points="1133.46,-1499.96 1136.76,-1510.03 1140.46,-1500.11 1133.46,-1499.96"/>
</g>
<!-- layer_3_21&#45;&gt;layer_3_1 -->
<g id="edge11" class="edge">
<title>layer_3_21&#45;&gt;layer_3_1</title>
<path fill="none" stroke="black" d="M621.82,-91.58C715.56,-93.86 996.37,-104.16 1076.26,-144 1124.94,-168.27 1160.26,-178.61 1160.26,-233 1160.26,-1387 1160.26,-1387 1160.26,-1387 1160.26,-1426.38 1156.01,-1471.71 1150.62,-1500.36"/>
<polygon fill="black" stroke="black" points="1147.22,-1499.56 1148.57,-1510.06 1154.06,-1501.01 1147.22,-1499.56"/>
</g>
<!-- layer_3_21&#45;&gt;layer_3_2 -->
<g id="edge16" class="edge">
<title>layer_3_21&#45;&gt;layer_3_2</title>
<path fill="none" stroke="black" d="M621.62,-92.27C705.49,-96 937.68,-108.94 1005.26,-144 1052.74,-168.63 1086.26,-179.52 1086.26,-233 1086.26,-1315 1086.26,-1315 1086.26,-1315 1086.26,-1354.38 1082.01,-1399.71 1080.96,-1428.36"/>
<polygon fill="black" stroke="black" points="1077.46,-1427.96 1080.76,-1438.03 1084.46,-1428.11 1077.46,-1427.96"/>
</g>
<!-- layer_3_21&#45;&gt;layer_3_2 -->
<g id="edge17" class="edge">
<title>layer_3_21&#45;&gt;layer_3_2</title>
<path fill="none" stroke="black" d="M621.87,-91.95C708.66,-95.21 953.54,-107.83 1023.26,-144 1070.74,-168.63 1104.26,-179.52 1104.26,-233 1104.26,-1315 1104.26,-1315 1104.26,-1315 1104.26,-1354.38 1100.01,-1399.71 1094.62,-1428.36"/>
<polygon fill="black" stroke="black" points="1091.22,-1427.56 1092.57,-1438.06 1098.06,-1429.01 1091.22,-1427.56"/>
</g>
<!-- layer_3_21&#45;&gt;layer_3_3 -->
<g id="edge22" class="edge">
<title>layer_3_21&#45;&gt;layer_3_3</title>
<path fill="none" stroke="black" d="M621.76,-92.81C698.65,-97.5 897.48,-111.99 955.26,-144 1000.51,-169.06 1030.26,-181.27 1030.26,-233 1030.26,-1243 1030.26,-1243 1030.26,-1243 1030.26,-1282.38 1026.01,-1327.71 1024.96,-1356.36"/>
<polygon fill="black" stroke="black" points="1021.46,-1355.96 1024.76,-1366.03 1028.46,-1356.11 1021.46,-1355.96"/>
</g>
<!-- layer_3_21&#45;&gt;layer_3_3 -->
<g id="edge23" class="edge">
<title>layer_3_21&#45;&gt;layer_3_3</title>
<path fill="none" stroke="black" d="M621.85,-92.32C701.69,-96.44 913.33,-110.8 973.26,-144 1018.51,-169.06 1048.26,-181.27 1048.26,-233 1048.26,-1243 1048.26,-1243 1048.26,-1243 1048.26,-1282.38 1044.01,-1327.71 1038.62,-1356.36"/>
<polygon fill="black" stroke="black" points="1035.22,-1355.56 1036.57,-1366.06 1042.06,-1357.01 1035.22,-1355.56"/>
</g>
<!-- layer_3_21&#45;&gt;layer_3_4 -->
<g id="edge28" class="edge">
<title>layer_3_21&#45;&gt;layer_3_4</title>
<path fill="none" stroke="black" d="M621.85,-93.4C691.7,-98.96 859.84,-114.51 908.26,-144 950.33,-169.61 974.26,-183.75 974.26,-233 974.26,-1171 974.26,-1171 974.26,-1171 974.26,-1210.38 970.01,-1255.71 968.96,-1284.36"/>
<polygon fill="black" stroke="black" points="965.46,-1283.96 968.76,-1294.03 972.46,-1284.11 965.46,-1283.96"/>
</g>
<!-- layer_3_21&#45;&gt;layer_3_4 -->
<g id="edge29" class="edge">
<title>layer_3_21&#45;&gt;layer_3_4</title>
<path fill="none" stroke="black" d="M621.72,-92.72C694.59,-97.61 875.7,-113.21 926.26,-144 968.33,-169.61 992.26,-183.75 992.26,-233 992.26,-1171 992.26,-1171 992.26,-1171 992.26,-1210.38 988.01,-1255.71 982.62,-1284.36"/>
<polygon fill="black" stroke="black" points="979.22,-1283.56 980.57,-1294.06 986.06,-1285.01 979.22,-1283.56"/>
</g>
<!-- layer_3_21&#45;&gt;layer_3_5 -->
<g id="edge34" class="edge">
<title>layer_3_21&#45;&gt;layer_3_5</title>
<path fill="none" stroke="black" d="M621.88,-90.2C703.33,-90.25 918.26,-103.33 918.26,-233 918.26,-1099 918.26,-1099 918.26,-1099 918.26,-1138.38 914.01,-1183.71 912.96,-1212.36"/>
<polygon fill="black" stroke="black" points="909.46,-1211.96 912.76,-1222.03 916.46,-1212.11 909.46,-1211.96"/>
</g>
<!-- layer_3_21&#45;&gt;layer_3_5 -->
<g id="edge35" class="edge">
<title>layer_3_21&#45;&gt;layer_3_5</title>
<path fill="none" stroke="black" d="M621.82,-90.24C706.38,-89.49 936.26,-98.9 936.26,-233 936.26,-1099 936.26,-1099 936.26,-1099 936.26,-1138.38 932.01,-1183.71 926.62,-1212.36"/>
<polygon fill="black" stroke="black" points="923.22,-1211.56 924.57,-1222.06 930.06,-1213.01 923.22,-1211.56"/>
</g>
<!-- layer_3_21&#45;&gt;layer_3_6 -->
<g id="edge40" class="edge">
<title>layer_3_21&#45;&gt;layer_3_6</title>
<path fill="none" stroke="black" d="M621.69,-92.83C692.65,-98.83 862.26,-124.4 862.26,-233 862.26,-1027 862.26,-1027 862.26,-1027 862.26,-1066.38 858.01,-1111.71 856.96,-1140.36"/>
<polygon fill="black" stroke="black" points="853.46,-1139.96 856.76,-1150.03 860.46,-1140.11 853.46,-1139.96"/>
</g>
<!-- layer_3_21&#45;&gt;layer_3_6 -->
<g id="edge41" class="edge">
<title>layer_3_21&#45;&gt;layer_3_6</title>
<path fill="none" stroke="black" d="M621.81,-92.18C696.31,-96.85 880.26,-119.9 880.26,-233 880.26,-1027 880.26,-1027 880.26,-1027 880.26,-1066.38 876.01,-1111.71 870.62,-1140.36"/>
<polygon fill="black" stroke="black" points="867.22,-1139.56 868.57,-1150.06 874.06,-1141.01 867.22,-1139.56"/>
</g>
<!-- layer_3_21&#45;&gt;layer_3_7 -->
<g id="edge46" class="edge">
<title>layer_3_21&#45;&gt;layer_3_7</title>
<path fill="none" stroke="black" d="M621.52,-96.71C680.92,-109.11 806.26,-144.82 806.26,-233 806.26,-955 806.26,-955 806.26,-955 806.26,-994.38 802.01,-1039.71 800.96,-1068.36"/>
<polygon fill="black" stroke="black" points="797.46,-1067.96 800.76,-1078.03 804.46,-1068.11 797.46,-1067.96"/>
</g>
<!-- layer_3_21&#45;&gt;layer_3_7 -->
<g id="edge47" class="edge">
<title>layer_3_21&#45;&gt;layer_3_7</title>
<path fill="none" stroke="black" d="M621.54,-94.87C684.8,-105.35 824.26,-139.99 824.26,-233 824.26,-955 824.26,-955 824.26,-955 824.26,-994.38 820.01,-1039.71 814.62,-1068.36"/>
<polygon fill="black" stroke="black" points="811.22,-1067.56 812.57,-1078.06 818.06,-1069.01 811.22,-1067.56"/>
</g>
<!-- layer_3_21&#45;&gt;layer_3_8 -->
<g id="edge52" class="edge">
<title>layer_3_21&#45;&gt;layer_3_8</title>
<path fill="none" stroke="black" d="M621.79,-103.26C668.13,-122.45 750.26,-164.64 750.26,-233 750.26,-883 750.26,-883 750.26,-883 750.26,-922.38 746.01,-967.71 744.96,-996.36"/>
<polygon fill="black" stroke="black" points="741.46,-995.96 744.76,-1006.03 748.46,-996.11 741.46,-995.96"/>
</g>
<!-- layer_3_21&#45;&gt;layer_3_8 -->
<g id="edge53" class="edge">
<title>layer_3_21&#45;&gt;layer_3_8</title>
<path fill="none" stroke="black" d="M621.53,-99.05C672.28,-115.79 768.26,-159.1 768.26,-233 768.26,-883 768.26,-883 768.26,-883 768.26,-922.38 764.01,-967.71 758.62,-996.36"/>
<polygon fill="black" stroke="black" points="755.22,-995.56 756.57,-1006.06 762.06,-997.01 755.22,-995.56"/>
</g>
<!-- layer_3_21&#45;&gt;layer_3_9 -->
<g id="edge58" class="edge">
<title>layer_3_21&#45;&gt;layer_3_9</title>
<path fill="none" stroke="black" d="M611.94,-108.35C642.23,-132.14 694.26,-178.21 694.26,-233 694.26,-811 694.26,-811 694.26,-811 694.26,-850.38 690.01,-895.71 688.96,-924.36"/>
<polygon fill="black" stroke="black" points="685.46,-923.96 688.76,-934.03 692.46,-924.11 685.46,-923.96"/>
</g>
<!-- layer_3_21&#45;&gt;layer_3_9 -->
<g id="edge59" class="edge">
<title>layer_3_21&#45;&gt;layer_3_9</title>
<path fill="none" stroke="black" d="M621.79,-106.75C657.81,-130.03 712.26,-176.95 712.26,-233 712.26,-811 712.26,-811 712.26,-811 712.26,-850.38 708.01,-895.71 702.62,-924.36"/>
<polygon fill="black" stroke="black" points="699.22,-923.56 700.57,-934.06 706.06,-925.01 699.22,-923.56"/>
</g>
<!-- layer_3_21&#45;&gt;layer_3_10 -->
<g id="edge64" class="edge">
<title>layer_3_21&#45;&gt;layer_3_10</title>
<path fill="none" stroke="black" d="M597.05,-108.07C610.27,-133.91 638.26,-185.03 638.26,-233 638.26,-739 638.26,-739 638.26,-739 638.26,-778.38 634.01,-823.71 632.96,-852.36"/>
<polygon fill="black" stroke="black" points="629.46,-851.96 632.76,-862.03 636.46,-852.11 629.46,-851.96"/>
</g>
<!-- layer_3_21&#45;&gt;layer_3_10 -->
<g id="edge65" class="edge">
<title>layer_3_21&#45;&gt;layer_3_10</title>
<path fill="none" stroke="black" d="M608.69,-108.07C628.27,-133.91 656.26,-185.03 656.26,-233 656.26,-739 656.26,-739 656.26,-739 656.26,-778.38 652.01,-823.71 646.62,-852.36"/>
<polygon fill="black" stroke="black" points="643.22,-851.56 644.57,-862.06 650.06,-853.01 643.22,-851.56"/>
</g>
<!-- layer_3_21&#45;&gt;layer_3_11 -->
<g id="edge70" class="edge">
<title>layer_3_21&#45;&gt;layer_3_11</title>
<path fill="none" stroke="black" d="M585.5,-108.49C582.26,-135.29 582.26,-188.13 582.26,-233 582.26,-667 582.26,-667 582.26,-667 582.26,-706.38 578.01,-751.71 576.96,-780.36"/>
<polygon fill="black" stroke="black" points="573.46,-779.96 576.76,-790.03 580.46,-780.11 573.46,-779.96"/>
</g>
<!-- layer_3_21&#45;&gt;layer_3_11 -->
<g id="edge71" class="edge">
<title>layer_3_21&#45;&gt;layer_3_11</title>
<path fill="none" stroke="black" d="M597.03,-108.49C600.26,-135.29 600.26,-188.13 600.26,-233 600.26,-667 600.26,-667 600.26,-667 600.26,-706.38 596.01,-751.71 590.62,-780.36"/>
<polygon fill="black" stroke="black" points="587.22,-779.56 588.57,-790.06 594.06,-781.01 587.22,-779.56"/>
</g>
<!-- layer_3_21&#45;&gt;layer_3_12 -->
<g id="edge76" class="edge">
<title>layer_3_21&#45;&gt;layer_3_12</title>
<path fill="none" stroke="black" d="M573.84,-108.07C554.26,-133.91 526.26,-185.03 526.26,-233 526.26,-595 526.26,-595 526.26,-595 526.26,-634.38 522.01,-679.71 520.96,-708.36"/>
<polygon fill="black" stroke="black" points="517.46,-707.96 520.76,-718.03 524.46,-708.11 517.46,-707.96"/>
</g>
<!-- layer_3_21&#45;&gt;layer_3_12 -->
<g id="edge77" class="edge">
<title>layer_3_21&#45;&gt;layer_3_12</title>
<path fill="none" stroke="black" d="M585.48,-108.07C572.26,-133.91 544.26,-185.03 544.26,-233 544.26,-595 544.26,-595 544.26,-595 544.26,-634.38 540.01,-679.71 534.62,-708.36"/>
<polygon fill="black" stroke="black" points="531.22,-707.56 532.57,-718.06 538.06,-709.01 531.22,-707.56"/>
</g>
<!-- layer_3_21&#45;&gt;layer_3_13 -->
<g id="edge82" class="edge">
<title>layer_3_21&#45;&gt;layer_3_13</title>
<path fill="none" stroke="black" d="M560.98,-101.46C541.79,-110.49 518.19,-125.06 503.26,-144 477.15,-177.13 470.26,-190.81 470.26,-233 470.26,-523 470.26,-523 470.26,-523 470.26,-562.38 466.01,-607.71 464.96,-636.36"/>
<polygon fill="black" stroke="black" points="461.46,-635.96 464.76,-646.03 468.46,-636.11 461.46,-635.96"/>
</g>
<!-- layer_3_21&#45;&gt;layer_3_13 -->
<g id="edge83" class="edge">
<title>layer_3_21&#45;&gt;layer_3_13</title>
<path fill="none" stroke="black" d="M563.89,-108.42C549.56,-117.3 532.82,-129.34 521.26,-144 495.15,-177.13 488.26,-190.81 488.26,-233 488.26,-523 488.26,-523 488.26,-523 488.26,-562.38 484.01,-607.71 478.62,-636.36"/>
<polygon fill="black" stroke="black" points="475.22,-635.56 476.57,-646.06 482.06,-637.01 475.22,-635.56"/>
</g>
<!-- layer_3_21&#45;&gt;layer_3_14 -->
<g id="edge88" class="edge">
<title>layer_3_21&#45;&gt;layer_3_14</title>
<path fill="none" stroke="black" d="M560.72,-94.39C528.11,-99.79 477.59,-113.09 447.26,-144 417.72,-174.11 414.26,-190.81 414.26,-233 414.26,-451 414.26,-451 414.26,-451 414.26,-490.38 410.01,-535.71 408.96,-564.36"/>
<polygon fill="black" stroke="black" points="405.46,-563.96 408.76,-574.03 412.46,-564.11 405.46,-563.96"/>
</g>
<!-- layer_3_21&#45;&gt;layer_3_14 -->
<g id="edge89" class="edge">
<title>layer_3_21&#45;&gt;layer_3_14</title>
<path fill="none" stroke="black" d="M560.65,-97.14C532.41,-103.84 491.36,-117.4 465.26,-144 435.72,-174.11 432.26,-190.81 432.26,-233 432.26,-451 432.26,-451 432.26,-451 432.26,-490.38 428.01,-535.71 422.62,-564.36"/>
<polygon fill="black" stroke="black" points="419.22,-563.56 420.57,-574.06 426.06,-565.01 419.22,-563.56"/>
</g>
<!-- layer_3_21&#45;&gt;layer_3_15 -->
<g id="edge94" class="edge">
<title>layer_3_21&#45;&gt;layer_3_15</title>
<path fill="none" stroke="black" d="M560.9,-91.02C517.44,-92.38 438.27,-100.81 391.26,-144 360.2,-172.55 358.26,-190.81 358.26,-233 358.26,-379 358.26,-379 358.26,-379 358.26,-418.38 354.01,-463.71 352.96,-492.36"/>
<polygon fill="black" stroke="black" points="349.46,-491.96 352.76,-502.03 356.46,-492.11 349.46,-491.96"/>
</g>
<!-- layer_3_21&#45;&gt;layer_3_15 -->
<g id="edge95" class="edge">
<title>layer_3_21&#45;&gt;layer_3_15</title>
<path fill="none" stroke="black" d="M560.97,-91.59C521.2,-94.22 451.96,-104.76 409.26,-144 378.2,-172.55 376.26,-190.81 376.26,-233 376.26,-379 376.26,-379 376.26,-379 376.26,-418.38 372.01,-463.71 366.62,-492.36"/>
<polygon fill="black" stroke="black" points="363.22,-491.56 364.57,-502.06 370.06,-493.01 363.22,-491.56"/>
</g>
<!-- layer_3_21&#45;&gt;layer_3_16 -->
<g id="edge100" class="edge">
<title>layer_3_21&#45;&gt;layer_3_16</title>
<path fill="none" stroke="black" d="M561.03,-93.38C500.53,-99.09 368.42,-115.29 335.26,-144 303.37,-171.61 302.26,-190.81 302.26,-233 302.26,-307 302.26,-307 302.26,-307 302.26,-346.38 298.01,-391.71 296.96,-420.36"/>
<polygon fill="black" stroke="black" points="293.46,-419.96 296.76,-430.03 300.46,-420.11 293.46,-419.96"/>
</g>
<!-- layer_3_21&#45;&gt;layer_3_16 -->
<g id="edge101" class="edge">
<title>layer_3_21&#45;&gt;layer_3_16</title>
<path fill="none" stroke="black" d="M560.73,-94.47C503.66,-101 384.52,-116.94 353.26,-144 321.37,-171.61 320.26,-190.81 320.26,-233 320.26,-307 320.26,-307 320.26,-307 320.26,-346.38 316.01,-391.71 310.62,-420.36"/>
<polygon fill="black" stroke="black" points="307.22,-419.56 308.57,-430.06 314.06,-421.01 307.22,-419.56"/>
</g>
<!-- layer_3_21&#45;&gt;layer_3_17 -->
<g id="edge106" class="edge">
<title>layer_3_21&#45;&gt;layer_3_17</title>
<path fill="none" stroke="black" d="M560.76,-91.87C489.92,-94.64 318.32,-105.46 279.26,-144 223.9,-198.62 226.29,-299.52 234.96,-348.64"/>
<polygon fill="black" stroke="black" points="231.48,-349.1 236.9,-358.2 238.34,-347.7 231.48,-349.1"/>
</g>
<!-- layer_3_21&#45;&gt;layer_3_17 -->
<g id="edge107" class="edge">
<title>layer_3_21&#45;&gt;layer_3_17</title>
<path fill="none" stroke="black" d="M560.75,-92.29C493.15,-95.64 334.61,-107.15 297.26,-144 242.02,-198.51 244.28,-299.09 245.71,-348.33"/>
<polygon fill="black" stroke="black" points="242.21,-348.27 245.98,-358.17 249.21,-348.08 242.21,-348.27"/>
</g>
<!-- layer_3_21&#45;&gt;layer_3_18 -->
<g id="edge112" class="edge">
<title>layer_3_21&#45;&gt;layer_3_18</title>
<path fill="none" stroke="black" d="M560.85,-91.28C481.63,-92.6 272.65,-100.22 223.26,-144 185.57,-177.42 178.78,-239.7 181.12,-276.23"/>
<polygon fill="black" stroke="black" points="177.63,-276.43 182.09,-286.04 184.59,-275.75 177.63,-276.43"/>
</g>
<!-- layer_3_21&#45;&gt;layer_3_18 -->
<g id="edge113" class="edge">
<title>layer_3_21&#45;&gt;layer_3_18</title>
<path fill="none" stroke="black" d="M560.73,-91.45C484.39,-93.21 288.82,-101.84 241.26,-144 203.57,-177.42 196.78,-239.7 193.49,-276.23"/>
<polygon fill="black" stroke="black" points="190.01,-275.77 192.6,-286.04 196.98,-276.4 190.01,-275.77"/>
</g>
<!-- layer_3_21&#45;&gt;layer_3_19 -->
<g id="edge118" class="edge">
<title>layer_3_21&#45;&gt;layer_3_19</title>
<path fill="none" stroke="black" d="M560.67,-91.19C473.99,-92.27 230.03,-99.25 167.26,-144 147.2,-158.3 135.83,-184.38 131.26,-204.63"/>
<polygon fill="black" stroke="black" points="127.85,-203.8 129.6,-214.25 134.75,-204.99 127.85,-203.8"/>
</g>
<!-- layer_3_21&#45;&gt;layer_3_19 -->
<g id="edge119" class="edge">
<title>layer_3_21&#45;&gt;layer_3_19</title>
<path fill="none" stroke="black" d="M560.93,-91.31C477.22,-92.74 246.11,-100.62 185.26,-144 165.01,-158.44 153.61,-184.87 145.91,-205.19"/>
<polygon fill="black" stroke="black" points="142.72,-203.73 142.5,-214.32 149.28,-206.17 142.72,-203.73"/>
</g>
<!-- layer_3_21&#45;&gt;layer_3_20 -->
<g id="edge124" class="edge">
<title>layer_3_21&#45;&gt;layer_3_20</title>
<path fill="none" stroke="black" d="M560.88,-91.6C485.69,-93.71 286.12,-102.9 117.51,-142.63"/>
<polygon fill="black" stroke="black" points="116.82,-139.19 107.92,-144.94 118.46,-146 116.82,-139.19"/>
</g>
<!-- layer_3_21&#45;&gt;layer_3_20 -->
<g id="edge125" class="edge">
<title>layer_3_21&#45;&gt;layer_3_20</title>
<path fill="none" stroke="black" d="M560.88,-91.88C486.18,-94.54 288.91,-104.87 129.26,-144 125.49,-144.92 121.61,-146.09 117.72,-147.38"/>
<polygon fill="black" stroke="black" points="116.56,-144.07 108.3,-150.71 118.9,-150.67 116.56,-144.07"/>
</g>
<!-- layer_3_22 -->
<g id="node24" class="node">
<title>layer_3_22</title>
<g id="a_node24"><a xlink:href="layer_22_data_3_detail.svg" xlink:title="layer 22" target="_blank">
<polygon fill="lightyellow" stroke="black" points="621.39,-36 561.14,-36 561.14,0 621.39,0 621.39,-36"/>
<text text-anchor="middle" x="591.26" y="-12.95" font-family="Times New Roman,serif" font-size="14.00">layer 22</text>
</a>
</g>
</g>
<!-- layer_3_21&#45;&gt;layer_3_22 -->
<g id="edge132" class="edge">
<title>layer_3_21&#45;&gt;layer_3_22</title>
<path fill="none" stroke="black" d="M585.35,-71.7C584.6,-64.41 584.35,-55.73 584.62,-47.54"/>
<polygon fill="black" stroke="black" points="588.11,-47.82 585.27,-37.61 581.12,-47.36 588.11,-47.82"/>
</g>
<!-- layer_3_21&#45;&gt;layer_3_22 -->
<g id="edge133" class="edge">
<title>layer_3_21&#45;&gt;layer_3_22</title>
<path fill="none" stroke="black" d="M597.18,-71.7C597.93,-64.41 598.18,-55.73 597.91,-47.54"/>
<polygon fill="black" stroke="black" points="601.41,-47.36 597.26,-37.61 594.42,-47.82 601.41,-47.36"/>
</g>
<!-- layer_3_22&#45;&gt;layer_3_&#45;1 -->
<g id="edge1" class="edge">
<title>layer_3_22&#45;&gt;layer_3_&#45;1</title>
<path fill="none" stroke="black" d="M621.47,-18.93C751.18,-19.41 1254.26,-29.75 1254.26,-161 1254.26,-1531 1254.26,-1531 1254.26,-1531 1254.26,-1572.09 1260.89,-1593.78 1229.26,-1620 1186,-1655.87 794.5,-1668.78 665.95,-1672.07"/>
<polygon fill="black" stroke="black" points="666.12,-1668.57 656.21,-1672.31 666.3,-1675.56 666.12,-1668.57"/>
</g>
</g>
</svg>
