<?xml version="1.0" encoding="UTF-8" standalone="no"?>
<!DOCTYPE svg PUBLIC "-//W3C//DTD SVG 1.1//EN"
 "http://www.w3.org/Graphics/SVG/1.1/DTD/svg11.dtd">
<!-- Generated by graphviz version 12.2.1 (20241206.2353)
 -->
<!-- Pages: 1 -->
<svg width="176pt" height="542pt"
 viewBox="0.00 0.00 175.94 541.95" xmlns="http://www.w3.org/2000/svg" xmlns:xlink="http://www.w3.org/1999/xlink">
<g id="graph0" class="graph" transform="scale(1 1) rotate(0) translate(4 537.95)">
<polygon fill="white" stroke="none" points="-4,4 -4,-537.95 171.94,-537.95 171.94,4 -4,4"/>
<!-- stage_0_0 -->
<g id="node1" class="node">
<title>stage_0_0</title>
<g id="a_node1"><a xlink:href="stage_0_data_0_detail.svg" xlink:title="Stage 0" target="_blank">
<polygon fill="lightblue" stroke="black" points="112.22,-533.95 59.72,-533.95 55.72,-529.95 55.72,-497.95 108.22,-497.95 112.22,-501.95 112.22,-533.95"/>
<polyline fill="none" stroke="black" points="108.22,-529.95 55.72,-529.95"/>
<polyline fill="none" stroke="black" points="108.22,-529.95 108.22,-497.95"/>
<polyline fill="none" stroke="black" points="108.22,-529.95 112.22,-533.95"/>
<text text-anchor="middle" x="83.97" y="-510.9" font-family="Times New Roman,serif" font-size="14.00">Stage 0</text>
</a>
</g>
</g>
<!-- sendrecv_0_0_to_1 -->
<g id="node5" class="node">
<title>sendrecv_0_0_to_1</title>
<g id="a_node5"><a xlink:href="send_recv_stage_0_to_1_data_0_detail.svg" xlink:title="Send&#45;Recv&#10;Stage 0 → Stage 1" target="_blank">
<ellipse fill="lightgreen" stroke="black" cx="83.97" cy="-432.96" rx="83.97" ry="28.99"/>
<text text-anchor="middle" x="83.97" y="-436.16" font-family="Times New Roman,serif" font-size="14.00">Send&#45;Recv</text>
<text text-anchor="middle" x="83.97" y="-419.66" font-family="Times New Roman,serif" font-size="14.00">Stage 0 → Stage 1</text>
</a>
</g>
</g>
<!-- stage_0_0&#45;&gt;sendrecv_0_0_to_1 -->
<g id="edge1" class="edge">
<title>stage_0_0&#45;&gt;sendrecv_0_0_to_1</title>
<path fill="none" stroke="black" d="M83.97,-497.77C83.97,-490.69 83.97,-482.15 83.97,-473.67"/>
<polygon fill="black" stroke="black" points="87.47,-473.78 83.97,-463.78 80.47,-473.78 87.47,-473.78"/>
</g>
<!-- stage_0_1 -->
<g id="node2" class="node">
<title>stage_0_1</title>
<g id="a_node2"><a xlink:href="stage_1_data_0_detail.svg" xlink:title="Stage 1" target="_blank">
<polygon fill="lightblue" stroke="black" points="112.22,-367.97 59.72,-367.97 55.72,-363.97 55.72,-331.97 108.22,-331.97 112.22,-335.97 112.22,-367.97"/>
<polyline fill="none" stroke="black" points="108.22,-363.97 55.72,-363.97"/>
<polyline fill="none" stroke="black" points="108.22,-363.97 108.22,-331.97"/>
<polyline fill="none" stroke="black" points="108.22,-363.97 112.22,-367.97"/>
<text text-anchor="middle" x="83.97" y="-344.92" font-family="Times New Roman,serif" font-size="14.00">Stage 1</text>
</a>
</g>
</g>
<!-- sendrecv_0_1_to_2 -->
<g id="node6" class="node">
<title>sendrecv_0_1_to_2</title>
<g id="a_node6"><a xlink:href="send_recv_stage_1_to_2_data_0_detail.svg" xlink:title="Send&#45;Recv&#10;Stage 1 → Stage 2" target="_blank">
<ellipse fill="lightgreen" stroke="black" cx="83.97" cy="-266.97" rx="83.97" ry="28.99"/>
<text text-anchor="middle" x="83.97" y="-270.17" font-family="Times New Roman,serif" font-size="14.00">Send&#45;Recv</text>
<text text-anchor="middle" x="83.97" y="-253.67" font-family="Times New Roman,serif" font-size="14.00">Stage 1 → Stage 2</text>
</a>
</g>
</g>
<!-- stage_0_1&#45;&gt;sendrecv_0_1_to_2 -->
<g id="edge3" class="edge">
<title>stage_0_1&#45;&gt;sendrecv_0_1_to_2</title>
<path fill="none" stroke="black" d="M83.97,-331.79C83.97,-324.7 83.97,-316.17 83.97,-307.68"/>
<polygon fill="black" stroke="black" points="87.47,-307.79 83.97,-297.79 80.47,-307.79 87.47,-307.79"/>
</g>
<!-- stage_0_2 -->
<g id="node3" class="node">
<title>stage_0_2</title>
<g id="a_node3"><a xlink:href="stage_2_data_0_detail.svg" xlink:title="Stage 2" target="_blank">
<polygon fill="lightblue" stroke="black" points="112.22,-201.98 59.72,-201.98 55.72,-197.98 55.72,-165.98 108.22,-165.98 112.22,-169.98 112.22,-201.98"/>
<polyline fill="none" stroke="black" points="108.22,-197.98 55.72,-197.98"/>
<polyline fill="none" stroke="black" points="108.22,-197.98 108.22,-165.98"/>
<polyline fill="none" stroke="black" points="108.22,-197.98 112.22,-201.98"/>
<text text-anchor="middle" x="83.97" y="-178.93" font-family="Times New Roman,serif" font-size="14.00">Stage 2</text>
</a>
</g>
</g>
<!-- sendrecv_0_2_to_3 -->
<g id="node7" class="node">
<title>sendrecv_0_2_to_3</title>
<g id="a_node7"><a xlink:href="send_recv_stage_2_to_3_data_0_detail.svg" xlink:title="Send&#45;Recv&#10;Stage 2 → Stage 3" target="_blank">
<ellipse fill="lightgreen" stroke="black" cx="83.97" cy="-100.99" rx="83.97" ry="28.99"/>
<text text-anchor="middle" x="83.97" y="-104.19" font-family="Times New Roman,serif" font-size="14.00">Send&#45;Recv</text>
<text text-anchor="middle" x="83.97" y="-87.69" font-family="Times New Roman,serif" font-size="14.00">Stage 2 → Stage 3</text>
</a>
</g>
</g>
<!-- stage_0_2&#45;&gt;sendrecv_0_2_to_3 -->
<g id="edge5" class="edge">
<title>stage_0_2&#45;&gt;sendrecv_0_2_to_3</title>
<path fill="none" stroke="black" d="M83.97,-165.81C83.97,-158.72 83.97,-150.19 83.97,-141.7"/>
<polygon fill="black" stroke="black" points="87.47,-141.81 83.97,-131.81 80.47,-141.81 87.47,-141.81"/>
</g>
<!-- stage_0_3 -->
<g id="node4" class="node">
<title>stage_0_3</title>
<g id="a_node4"><a xlink:href="stage_3_data_0_detail.svg" xlink:title="Stage 3" target="_blank">
<polygon fill="lightblue" stroke="black" points="112.22,-36 59.72,-36 55.72,-32 55.72,0 108.22,0 112.22,-4 112.22,-36"/>
<polyline fill="none" stroke="black" points="108.22,-32 55.72,-32"/>
<polyline fill="none" stroke="black" points="108.22,-32 108.22,0"/>
<polyline fill="none" stroke="black" points="108.22,-32 112.22,-36"/>
<text text-anchor="middle" x="83.97" y="-12.95" font-family="Times New Roman,serif" font-size="14.00">Stage 3</text>
</a>
</g>
</g>
<!-- sendrecv_0_0_to_1&#45;&gt;stage_0_1 -->
<g id="edge2" class="edge">
<title>sendrecv_0_0_to_1&#45;&gt;stage_0_1</title>
<path fill="none" stroke="black" d="M83.97,-403.63C83.97,-395.75 83.97,-387.2 83.97,-379.32"/>
<polygon fill="black" stroke="black" points="87.47,-379.57 83.97,-369.57 80.47,-379.57 87.47,-379.57"/>
</g>
<!-- sendrecv_0_1_to_2&#45;&gt;stage_0_2 -->
<g id="edge4" class="edge">
<title>sendrecv_0_1_to_2&#45;&gt;stage_0_2</title>
<path fill="none" stroke="black" d="M83.97,-237.65C83.97,-229.77 83.97,-221.22 83.97,-213.34"/>
<polygon fill="black" stroke="black" points="87.47,-213.59 83.97,-203.59 80.47,-213.59 87.47,-213.59"/>
</g>
<!-- sendrecv_0_2_to_3&#45;&gt;stage_0_3 -->
<g id="edge6" class="edge">
<title>sendrecv_0_2_to_3&#45;&gt;stage_0_3</title>
<path fill="none" stroke="black" d="M83.97,-71.66C83.97,-63.79 83.97,-55.24 83.97,-47.36"/>
<polygon fill="black" stroke="black" points="87.47,-47.61 83.97,-37.61 80.47,-47.61 87.47,-47.61"/>
</g>
</g>
</svg>
