<?xml version="1.0" encoding="UTF-8" standalone="no"?>
<!DOCTYPE svg PUBLIC "-//W3C//DTD SVG 1.1//EN"
 "http://www.w3.org/Graphics/SVG/1.1/DTD/svg11.dtd">
<!-- Generated by graphviz version 12.2.1 (20241206.2353)
 -->
<!-- Pages: 1 -->
<svg width="141pt" height="1628pt"
 viewBox="0.00 0.00 141.12 1628.00" xmlns="http://www.w3.org/2000/svg" xmlns:xlink="http://www.w3.org/1999/xlink">
<g id="graph0" class="graph" transform="scale(1 1) rotate(0) translate(4 1624)">
<polygon fill="white" stroke="none" points="-4,4 -4,-1624 137.12,-1624 137.12,4 -4,4"/>
<!-- layer_1_&#45;1 -->
<g id="node1" class="node">
<title>layer_1_&#45;1</title>
<g id="a_node1"><a xlink:href="layer_-1_data_1_detail.svg" xlink:title="layer &#45;1" target="_blank">
<polygon fill="lightyellow" stroke="black" points="58,-1620 0,-1620 0,-1584 58,-1584 58,-1620"/>
<text text-anchor="middle" x="29" y="-1596.95" font-family="Times New Roman,serif" font-size="14.00">layer &#45;1</text>
</a>
</g>
</g>
<!-- layer_1_0 -->
<g id="node2" class="node">
<title>layer_1_0</title>
<g id="a_node2"><a xlink:href="layer_0_data_1_detail.svg" xlink:title="layer 0" target="_blank">
<polygon fill="lightyellow" stroke="black" points="130,-1620 76,-1620 76,-1584 130,-1584 130,-1620"/>
<text text-anchor="middle" x="103" y="-1596.95" font-family="Times New Roman,serif" font-size="14.00">layer 0</text>
</a>
</g>
</g>
<!-- layer_1_1 -->
<g id="node3" class="node">
<title>layer_1_1</title>
<g id="a_node3"><a xlink:href="layer_1_data_1_detail.svg" xlink:title="layer 1" target="_blank">
<polygon fill="lightyellow" stroke="black" points="130,-1548 76,-1548 76,-1512 130,-1512 130,-1548"/>
<text text-anchor="middle" x="103" y="-1524.95" font-family="Times New Roman,serif" font-size="14.00">layer 1</text>
</a>
</g>
</g>
<!-- layer_1_0&#45;&gt;layer_1_1 -->
<g id="edge1" class="edge">
<title>layer_1_0&#45;&gt;layer_1_1</title>
<path fill="none" stroke="black" d="M103,-1583.7C103,-1576.41 103,-1567.73 103,-1559.54"/>
<polygon fill="black" stroke="black" points="106.5,-1559.62 103,-1549.62 99.5,-1559.62 106.5,-1559.62"/>
</g>
<!-- layer_1_2 -->
<g id="node4" class="node">
<title>layer_1_2</title>
<g id="a_node4"><a xlink:href="layer_2_data_1_detail.svg" xlink:title="layer 2" target="_blank">
<polygon fill="lightyellow" stroke="black" points="130,-1476 76,-1476 76,-1440 130,-1440 130,-1476"/>
<text text-anchor="middle" x="103" y="-1452.95" font-family="Times New Roman,serif" font-size="14.00">layer 2</text>
</a>
</g>
</g>
<!-- layer_1_1&#45;&gt;layer_1_2 -->
<g id="edge2" class="edge">
<title>layer_1_1&#45;&gt;layer_1_2</title>
<path fill="none" stroke="black" d="M103,-1511.7C103,-1504.41 103,-1495.73 103,-1487.54"/>
<polygon fill="black" stroke="black" points="106.5,-1487.62 103,-1477.62 99.5,-1487.62 106.5,-1487.62"/>
</g>
<!-- layer_1_3 -->
<g id="node5" class="node">
<title>layer_1_3</title>
<g id="a_node5"><a xlink:href="layer_3_data_1_detail.svg" xlink:title="layer 3" target="_blank">
<polygon fill="lightyellow" stroke="black" points="130,-1404 76,-1404 76,-1368 130,-1368 130,-1404"/>
<text text-anchor="middle" x="103" y="-1380.95" font-family="Times New Roman,serif" font-size="14.00">layer 3</text>
</a>
</g>
</g>
<!-- layer_1_2&#45;&gt;layer_1_3 -->
<g id="edge3" class="edge">
<title>layer_1_2&#45;&gt;layer_1_3</title>
<path fill="none" stroke="black" d="M103,-1439.7C103,-1432.41 103,-1423.73 103,-1415.54"/>
<polygon fill="black" stroke="black" points="106.5,-1415.62 103,-1405.62 99.5,-1415.62 106.5,-1415.62"/>
</g>
<!-- layer_1_4 -->
<g id="node6" class="node">
<title>layer_1_4</title>
<g id="a_node6"><a xlink:href="layer_4_data_1_detail.svg" xlink:title="layer 4" target="_blank">
<polygon fill="lightyellow" stroke="black" points="130,-1332 76,-1332 76,-1296 130,-1296 130,-1332"/>
<text text-anchor="middle" x="103" y="-1308.95" font-family="Times New Roman,serif" font-size="14.00">layer 4</text>
</a>
</g>
</g>
<!-- layer_1_3&#45;&gt;layer_1_4 -->
<g id="edge4" class="edge">
<title>layer_1_3&#45;&gt;layer_1_4</title>
<path fill="none" stroke="black" d="M103,-1367.7C103,-1360.41 103,-1351.73 103,-1343.54"/>
<polygon fill="black" stroke="black" points="106.5,-1343.62 103,-1333.62 99.5,-1343.62 106.5,-1343.62"/>
</g>
<!-- layer_1_5 -->
<g id="node7" class="node">
<title>layer_1_5</title>
<g id="a_node7"><a xlink:href="layer_5_data_1_detail.svg" xlink:title="layer 5" target="_blank">
<polygon fill="lightyellow" stroke="black" points="130,-1260 76,-1260 76,-1224 130,-1224 130,-1260"/>
<text text-anchor="middle" x="103" y="-1236.95" font-family="Times New Roman,serif" font-size="14.00">layer 5</text>
</a>
</g>
</g>
<!-- layer_1_4&#45;&gt;layer_1_5 -->
<g id="edge5" class="edge">
<title>layer_1_4&#45;&gt;layer_1_5</title>
<path fill="none" stroke="black" d="M103,-1295.7C103,-1288.41 103,-1279.73 103,-1271.54"/>
<polygon fill="black" stroke="black" points="106.5,-1271.62 103,-1261.62 99.5,-1271.62 106.5,-1271.62"/>
</g>
<!-- layer_1_6 -->
<g id="node8" class="node">
<title>layer_1_6</title>
<g id="a_node8"><a xlink:href="layer_6_data_1_detail.svg" xlink:title="layer 6" target="_blank">
<polygon fill="lightyellow" stroke="black" points="130,-1188 76,-1188 76,-1152 130,-1152 130,-1188"/>
<text text-anchor="middle" x="103" y="-1164.95" font-family="Times New Roman,serif" font-size="14.00">layer 6</text>
</a>
</g>
</g>
<!-- layer_1_5&#45;&gt;layer_1_6 -->
<g id="edge6" class="edge">
<title>layer_1_5&#45;&gt;layer_1_6</title>
<path fill="none" stroke="black" d="M103,-1223.7C103,-1216.41 103,-1207.73 103,-1199.54"/>
<polygon fill="black" stroke="black" points="106.5,-1199.62 103,-1189.62 99.5,-1199.62 106.5,-1199.62"/>
</g>
<!-- layer_1_7 -->
<g id="node9" class="node">
<title>layer_1_7</title>
<g id="a_node9"><a xlink:href="layer_7_data_1_detail.svg" xlink:title="layer 7" target="_blank">
<polygon fill="lightyellow" stroke="black" points="130,-1116 76,-1116 76,-1080 130,-1080 130,-1116"/>
<text text-anchor="middle" x="103" y="-1092.95" font-family="Times New Roman,serif" font-size="14.00">layer 7</text>
</a>
</g>
</g>
<!-- layer_1_6&#45;&gt;layer_1_7 -->
<g id="edge7" class="edge">
<title>layer_1_6&#45;&gt;layer_1_7</title>
<path fill="none" stroke="black" d="M103,-1151.7C103,-1144.41 103,-1135.73 103,-1127.54"/>
<polygon fill="black" stroke="black" points="106.5,-1127.62 103,-1117.62 99.5,-1127.62 106.5,-1127.62"/>
</g>
<!-- layer_1_8 -->
<g id="node10" class="node">
<title>layer_1_8</title>
<g id="a_node10"><a xlink:href="layer_8_data_1_detail.svg" xlink:title="layer 8" target="_blank">
<polygon fill="lightyellow" stroke="black" points="130,-1044 76,-1044 76,-1008 130,-1008 130,-1044"/>
<text text-anchor="middle" x="103" y="-1020.95" font-family="Times New Roman,serif" font-size="14.00">layer 8</text>
</a>
</g>
</g>
<!-- layer_1_7&#45;&gt;layer_1_8 -->
<g id="edge8" class="edge">
<title>layer_1_7&#45;&gt;layer_1_8</title>
<path fill="none" stroke="black" d="M103,-1079.7C103,-1072.41 103,-1063.73 103,-1055.54"/>
<polygon fill="black" stroke="black" points="106.5,-1055.62 103,-1045.62 99.5,-1055.62 106.5,-1055.62"/>
</g>
<!-- layer_1_9 -->
<g id="node11" class="node">
<title>layer_1_9</title>
<g id="a_node11"><a xlink:href="layer_9_data_1_detail.svg" xlink:title="layer 9" target="_blank">
<polygon fill="lightyellow" stroke="black" points="130,-972 76,-972 76,-936 130,-936 130,-972"/>
<text text-anchor="middle" x="103" y="-948.95" font-family="Times New Roman,serif" font-size="14.00">layer 9</text>
</a>
</g>
</g>
<!-- layer_1_8&#45;&gt;layer_1_9 -->
<g id="edge9" class="edge">
<title>layer_1_8&#45;&gt;layer_1_9</title>
<path fill="none" stroke="black" d="M103,-1007.7C103,-1000.41 103,-991.73 103,-983.54"/>
<polygon fill="black" stroke="black" points="106.5,-983.62 103,-973.62 99.5,-983.62 106.5,-983.62"/>
</g>
<!-- layer_1_10 -->
<g id="node12" class="node">
<title>layer_1_10</title>
<g id="a_node12"><a xlink:href="layer_10_data_1_detail.svg" xlink:title="layer 10" target="_blank">
<polygon fill="lightyellow" stroke="black" points="133.12,-900 72.88,-900 72.88,-864 133.12,-864 133.12,-900"/>
<text text-anchor="middle" x="103" y="-876.95" font-family="Times New Roman,serif" font-size="14.00">layer 10</text>
</a>
</g>
</g>
<!-- layer_1_9&#45;&gt;layer_1_10 -->
<g id="edge10" class="edge">
<title>layer_1_9&#45;&gt;layer_1_10</title>
<path fill="none" stroke="black" d="M103,-935.7C103,-928.41 103,-919.73 103,-911.54"/>
<polygon fill="black" stroke="black" points="106.5,-911.62 103,-901.62 99.5,-911.62 106.5,-911.62"/>
</g>
<!-- layer_1_11 -->
<g id="node13" class="node">
<title>layer_1_11</title>
<g id="a_node13"><a xlink:href="layer_11_data_1_detail.svg" xlink:title="layer 11" target="_blank">
<polygon fill="lightyellow" stroke="black" points="133.12,-828 72.88,-828 72.88,-792 133.12,-792 133.12,-828"/>
<text text-anchor="middle" x="103" y="-804.95" font-family="Times New Roman,serif" font-size="14.00">layer 11</text>
</a>
</g>
</g>
<!-- layer_1_10&#45;&gt;layer_1_11 -->
<g id="edge11" class="edge">
<title>layer_1_10&#45;&gt;layer_1_11</title>
<path fill="none" stroke="black" d="M103,-863.7C103,-856.41 103,-847.73 103,-839.54"/>
<polygon fill="black" stroke="black" points="106.5,-839.62 103,-829.62 99.5,-839.62 106.5,-839.62"/>
</g>
<!-- layer_1_12 -->
<g id="node14" class="node">
<title>layer_1_12</title>
<g id="a_node14"><a xlink:href="layer_12_data_1_detail.svg" xlink:title="layer 12" target="_blank">
<polygon fill="lightyellow" stroke="black" points="133.12,-756 72.88,-756 72.88,-720 133.12,-720 133.12,-756"/>
<text text-anchor="middle" x="103" y="-732.95" font-family="Times New Roman,serif" font-size="14.00">layer 12</text>
</a>
</g>
</g>
<!-- layer_1_11&#45;&gt;layer_1_12 -->
<g id="edge12" class="edge">
<title>layer_1_11&#45;&gt;layer_1_12</title>
<path fill="none" stroke="black" d="M103,-791.7C103,-784.41 103,-775.73 103,-767.54"/>
<polygon fill="black" stroke="black" points="106.5,-767.62 103,-757.62 99.5,-767.62 106.5,-767.62"/>
</g>
<!-- layer_1_13 -->
<g id="node15" class="node">
<title>layer_1_13</title>
<g id="a_node15"><a xlink:href="layer_13_data_1_detail.svg" xlink:title="layer 13" target="_blank">
<polygon fill="lightyellow" stroke="black" points="133.12,-684 72.88,-684 72.88,-648 133.12,-648 133.12,-684"/>
<text text-anchor="middle" x="103" y="-660.95" font-family="Times New Roman,serif" font-size="14.00">layer 13</text>
</a>
</g>
</g>
<!-- layer_1_12&#45;&gt;layer_1_13 -->
<g id="edge13" class="edge">
<title>layer_1_12&#45;&gt;layer_1_13</title>
<path fill="none" stroke="black" d="M103,-719.7C103,-712.41 103,-703.73 103,-695.54"/>
<polygon fill="black" stroke="black" points="106.5,-695.62 103,-685.62 99.5,-695.62 106.5,-695.62"/>
</g>
<!-- layer_1_14 -->
<g id="node16" class="node">
<title>layer_1_14</title>
<g id="a_node16"><a xlink:href="layer_14_data_1_detail.svg" xlink:title="layer 14" target="_blank">
<polygon fill="lightyellow" stroke="black" points="133.12,-612 72.88,-612 72.88,-576 133.12,-576 133.12,-612"/>
<text text-anchor="middle" x="103" y="-588.95" font-family="Times New Roman,serif" font-size="14.00">layer 14</text>
</a>
</g>
</g>
<!-- layer_1_13&#45;&gt;layer_1_14 -->
<g id="edge14" class="edge">
<title>layer_1_13&#45;&gt;layer_1_14</title>
<path fill="none" stroke="black" d="M103,-647.7C103,-640.41 103,-631.73 103,-623.54"/>
<polygon fill="black" stroke="black" points="106.5,-623.62 103,-613.62 99.5,-623.62 106.5,-623.62"/>
</g>
<!-- layer_1_15 -->
<g id="node17" class="node">
<title>layer_1_15</title>
<g id="a_node17"><a xlink:href="layer_15_data_1_detail.svg" xlink:title="layer 15" target="_blank">
<polygon fill="lightyellow" stroke="black" points="133.12,-540 72.88,-540 72.88,-504 133.12,-504 133.12,-540"/>
<text text-anchor="middle" x="103" y="-516.95" font-family="Times New Roman,serif" font-size="14.00">layer 15</text>
</a>
</g>
</g>
<!-- layer_1_14&#45;&gt;layer_1_15 -->
<g id="edge15" class="edge">
<title>layer_1_14&#45;&gt;layer_1_15</title>
<path fill="none" stroke="black" d="M103,-575.7C103,-568.41 103,-559.73 103,-551.54"/>
<polygon fill="black" stroke="black" points="106.5,-551.62 103,-541.62 99.5,-551.62 106.5,-551.62"/>
</g>
<!-- layer_1_16 -->
<g id="node18" class="node">
<title>layer_1_16</title>
<g id="a_node18"><a xlink:href="layer_16_data_1_detail.svg" xlink:title="layer 16" target="_blank">
<polygon fill="lightyellow" stroke="black" points="133.12,-468 72.88,-468 72.88,-432 133.12,-432 133.12,-468"/>
<text text-anchor="middle" x="103" y="-444.95" font-family="Times New Roman,serif" font-size="14.00">layer 16</text>
</a>
</g>
</g>
<!-- layer_1_15&#45;&gt;layer_1_16 -->
<g id="edge16" class="edge">
<title>layer_1_15&#45;&gt;layer_1_16</title>
<path fill="none" stroke="black" d="M103,-503.7C103,-496.41 103,-487.73 103,-479.54"/>
<polygon fill="black" stroke="black" points="106.5,-479.62 103,-469.62 99.5,-479.62 106.5,-479.62"/>
</g>
<!-- layer_1_17 -->
<g id="node19" class="node">
<title>layer_1_17</title>
<g id="a_node19"><a xlink:href="layer_17_data_1_detail.svg" xlink:title="layer 17" target="_blank">
<polygon fill="lightyellow" stroke="black" points="133.12,-396 72.88,-396 72.88,-360 133.12,-360 133.12,-396"/>
<text text-anchor="middle" x="103" y="-372.95" font-family="Times New Roman,serif" font-size="14.00">layer 17</text>
</a>
</g>
</g>
<!-- layer_1_16&#45;&gt;layer_1_17 -->
<g id="edge17" class="edge">
<title>layer_1_16&#45;&gt;layer_1_17</title>
<path fill="none" stroke="black" d="M103,-431.7C103,-424.41 103,-415.73 103,-407.54"/>
<polygon fill="black" stroke="black" points="106.5,-407.62 103,-397.62 99.5,-407.62 106.5,-407.62"/>
</g>
<!-- layer_1_18 -->
<g id="node20" class="node">
<title>layer_1_18</title>
<g id="a_node20"><a xlink:href="layer_18_data_1_detail.svg" xlink:title="layer 18" target="_blank">
<polygon fill="lightyellow" stroke="black" points="133.12,-324 72.88,-324 72.88,-288 133.12,-288 133.12,-324"/>
<text text-anchor="middle" x="103" y="-300.95" font-family="Times New Roman,serif" font-size="14.00">layer 18</text>
</a>
</g>
</g>
<!-- layer_1_17&#45;&gt;layer_1_18 -->
<g id="edge18" class="edge">
<title>layer_1_17&#45;&gt;layer_1_18</title>
<path fill="none" stroke="black" d="M103,-359.7C103,-352.41 103,-343.73 103,-335.54"/>
<polygon fill="black" stroke="black" points="106.5,-335.62 103,-325.62 99.5,-335.62 106.5,-335.62"/>
</g>
<!-- layer_1_19 -->
<g id="node21" class="node">
<title>layer_1_19</title>
<g id="a_node21"><a xlink:href="layer_19_data_1_detail.svg" xlink:title="layer 19" target="_blank">
<polygon fill="lightyellow" stroke="black" points="133.12,-252 72.88,-252 72.88,-216 133.12,-216 133.12,-252"/>
<text text-anchor="middle" x="103" y="-228.95" font-family="Times New Roman,serif" font-size="14.00">layer 19</text>
</a>
</g>
</g>
<!-- layer_1_18&#45;&gt;layer_1_19 -->
<g id="edge19" class="edge">
<title>layer_1_18&#45;&gt;layer_1_19</title>
<path fill="none" stroke="black" d="M103,-287.7C103,-280.41 103,-271.73 103,-263.54"/>
<polygon fill="black" stroke="black" points="106.5,-263.62 103,-253.62 99.5,-263.62 106.5,-263.62"/>
</g>
<!-- layer_1_20 -->
<g id="node22" class="node">
<title>layer_1_20</title>
<g id="a_node22"><a xlink:href="layer_20_data_1_detail.svg" xlink:title="layer 20" target="_blank">
<polygon fill="lightyellow" stroke="black" points="133.12,-180 72.88,-180 72.88,-144 133.12,-144 133.12,-180"/>
<text text-anchor="middle" x="103" y="-156.95" font-family="Times New Roman,serif" font-size="14.00">layer 20</text>
</a>
</g>
</g>
<!-- layer_1_19&#45;&gt;layer_1_20 -->
<g id="edge20" class="edge">
<title>layer_1_19&#45;&gt;layer_1_20</title>
<path fill="none" stroke="black" d="M103,-215.7C103,-208.41 103,-199.73 103,-191.54"/>
<polygon fill="black" stroke="black" points="106.5,-191.62 103,-181.62 99.5,-191.62 106.5,-191.62"/>
</g>
<!-- layer_1_21 -->
<g id="node23" class="node">
<title>layer_1_21</title>
<g id="a_node23"><a xlink:href="layer_21_data_1_detail.svg" xlink:title="layer 21" target="_blank">
<polygon fill="lightyellow" stroke="black" points="133.12,-108 72.88,-108 72.88,-72 133.12,-72 133.12,-108"/>
<text text-anchor="middle" x="103" y="-84.95" font-family="Times New Roman,serif" font-size="14.00">layer 21</text>
</a>
</g>
</g>
<!-- layer_1_20&#45;&gt;layer_1_21 -->
<g id="edge21" class="edge">
<title>layer_1_20&#45;&gt;layer_1_21</title>
<path fill="none" stroke="black" d="M103,-143.7C103,-136.41 103,-127.73 103,-119.54"/>
<polygon fill="black" stroke="black" points="106.5,-119.62 103,-109.62 99.5,-119.62 106.5,-119.62"/>
</g>
<!-- layer_1_22 -->
<g id="node24" class="node">
<title>layer_1_22</title>
<g id="a_node24"><a xlink:href="layer_22_data_1_detail.svg" xlink:title="layer 22" target="_blank">
<polygon fill="lightyellow" stroke="black" points="133.12,-36 72.88,-36 72.88,0 133.12,0 133.12,-36"/>
<text text-anchor="middle" x="103" y="-12.95" font-family="Times New Roman,serif" font-size="14.00">layer 22</text>
</a>
</g>
</g>
<!-- layer_1_21&#45;&gt;layer_1_22 -->
<g id="edge22" class="edge">
<title>layer_1_21&#45;&gt;layer_1_22</title>
<path fill="none" stroke="black" d="M103,-71.7C103,-64.41 103,-55.73 103,-47.54"/>
<polygon fill="black" stroke="black" points="106.5,-47.62 103,-37.62 99.5,-47.62 106.5,-47.62"/>
</g>
</g>
</svg>
