<?xml version="1.0" encoding="UTF-8" standalone="no"?>
<!DOCTYPE svg PUBLIC "-//W3C//DTD SVG 1.1//EN"
 "http://www.w3.org/Graphics/SVG/1.1/DTD/svg11.dtd">
<!-- Generated by graphviz version 12.2.1 (20241206.2353)
 -->
<!-- Pages: 1 -->
<svg width="1228pt" height="1700pt"
 viewBox="0.00 0.00 1228.00 1700.00" xmlns="http://www.w3.org/2000/svg" xmlns:xlink="http://www.w3.org/1999/xlink">
<g id="graph0" class="graph" transform="scale(1 1) rotate(0) translate(4 1696)">
<polygon fill="white" stroke="none" points="-4,4 -4,-1696 1224,-1696 1224,4 -4,4"/>
<!-- layer_0_&#45;1 -->
<g id="node1" class="node">
<title>layer_0_&#45;1</title>
<g id="a_node1"><a xlink:href="layer_-1_data_0_detail.svg" xlink:title="layer &#45;1" target="_blank">
<polygon fill="lightyellow" stroke="black" points="624,-1692 566,-1692 566,-1656 624,-1656 624,-1692"/>
<text text-anchor="middle" x="595" y="-1668.95" font-family="Times New Roman,serif" font-size="14.00">layer &#45;1</text>
</a>
</g>
</g>
<!-- layer_0_0 -->
<g id="node2" class="node">
<title>layer_0_0</title>
<g id="a_node2"><a xlink:href="layer_0_data_0_detail.svg" xlink:title="layer 0" target="_blank">
<polygon fill="lightyellow" stroke="black" points="54,-1620 0,-1620 0,-1584 54,-1584 54,-1620"/>
<text text-anchor="middle" x="27" y="-1596.95" font-family="Times New Roman,serif" font-size="14.00">layer 0</text>
</a>
</g>
</g>
<!-- layer_0_&#45;1&#45;&gt;layer_0_0 -->
<g id="edge1" class="edge">
<title>layer_0_&#45;1&#45;&gt;layer_0_0</title>
<path fill="none" stroke="black" d="M565.55,-1673.08C481.67,-1672.95 245.83,-1669.01 54.11,-1623.21"/>
<polygon fill="black" stroke="black" points="55.01,-1619.83 44.46,-1620.86 53.34,-1626.63 55.01,-1619.83"/>
</g>
<!-- layer_0_&#45;1&#45;&gt;layer_0_0 -->
<g id="edge2" class="edge">
<title>layer_0_&#45;1&#45;&gt;layer_0_0</title>
<path fill="none" stroke="black" d="M565.65,-1673.06C485.28,-1672.68 256.32,-1667.63 65.55,-1621.48"/>
<polygon fill="black" stroke="black" points="66.5,-1618.11 55.95,-1619.11 64.82,-1624.91 66.5,-1618.11"/>
</g>
<!-- layer_0_&#45;1&#45;&gt;layer_0_0 -->
<g id="edge3" class="edge">
<title>layer_0_&#45;1&#45;&gt;layer_0_0</title>
<path fill="none" stroke="black" d="M565.56,-1673C485.55,-1672.26 258.91,-1665.8 77,-1620 73.03,-1619 68.94,-1617.68 64.88,-1616.22"/>
<polygon fill="black" stroke="black" points="66.26,-1613.01 55.67,-1612.69 63.75,-1619.54 66.26,-1613.01"/>
</g>
<!-- layer_0_&#45;1&#45;&gt;layer_0_0 -->
<g id="edge4" class="edge">
<title>layer_0_&#45;1&#45;&gt;layer_0_0</title>
<path fill="none" stroke="black" d="M565.71,-1672.89C486.4,-1671.71 270,-1664.06 95,-1620 85.71,-1617.66 75.78,-1613.59 64.93,-1610.01"/>
<polygon fill="black" stroke="black" points="66.27,-1606.76 55.68,-1607.25 64.26,-1613.47 66.27,-1606.76"/>
</g>
<!-- layer_0_1 -->
<g id="node3" class="node">
<title>layer_0_1</title>
<g id="a_node3"><a xlink:href="layer_1_data_0_detail.svg" xlink:title="layer 1" target="_blank">
<polygon fill="lightyellow" stroke="black" points="110,-1548 56,-1548 56,-1512 110,-1512 110,-1548"/>
<text text-anchor="middle" x="83" y="-1524.95" font-family="Times New Roman,serif" font-size="14.00">layer 1</text>
</a>
</g>
</g>
<!-- layer_0_&#45;1&#45;&gt;layer_0_1 -->
<g id="edge7" class="edge">
<title>layer_0_&#45;1&#45;&gt;layer_0_1</title>
<path fill="none" stroke="black" d="M565.78,-1673.33C472.82,-1673.99 187.04,-1672.04 115,-1620 95.29,-1605.76 84.81,-1579.67 80.96,-1559.41"/>
<polygon fill="black" stroke="black" points="84.47,-1559.22 79.65,-1549.79 77.53,-1560.17 84.47,-1559.22"/>
</g>
<!-- layer_0_&#45;1&#45;&gt;layer_0_1 -->
<g id="edge8" class="edge">
<title>layer_0_&#45;1&#45;&gt;layer_0_1</title>
<path fill="none" stroke="black" d="M565.66,-1673.38C475.11,-1673.85 203.04,-1670.59 133,-1620 113.2,-1605.69 102.71,-1579.43 95.73,-1559.13"/>
<polygon fill="black" stroke="black" points="99.07,-1558.08 92.56,-1549.72 92.43,-1560.31 99.07,-1558.08"/>
</g>
<!-- layer_0_2 -->
<g id="node4" class="node">
<title>layer_0_2</title>
<g id="a_node4"><a xlink:href="layer_2_data_0_detail.svg" xlink:title="layer 2" target="_blank">
<polygon fill="lightyellow" stroke="black" points="166,-1476 112,-1476 112,-1440 166,-1440 166,-1476"/>
<text text-anchor="middle" x="139" y="-1452.95" font-family="Times New Roman,serif" font-size="14.00">layer 2</text>
</a>
</g>
</g>
<!-- layer_0_&#45;1&#45;&gt;layer_0_2 -->
<g id="edge11" class="edge">
<title>layer_0_&#45;1&#45;&gt;layer_0_2</title>
<path fill="none" stroke="black" d="M565.51,-1673.35C478.93,-1673.92 229.08,-1671.37 171,-1620 133.44,-1586.78 127.99,-1524.43 131.17,-1487.83"/>
<polygon fill="black" stroke="black" points="134.64,-1488.34 132.37,-1477.99 127.69,-1487.5 134.64,-1488.34"/>
</g>
<!-- layer_0_&#45;1&#45;&gt;layer_0_2 -->
<g id="edge12" class="edge">
<title>layer_0_&#45;1&#45;&gt;layer_0_2</title>
<path fill="none" stroke="black" d="M565.64,-1673.39C481.89,-1673.72 245.31,-1669.81 189,-1620 151.44,-1586.78 145.99,-1524.43 143.53,-1487.83"/>
<polygon fill="black" stroke="black" points="147.04,-1487.75 142.88,-1478 140.05,-1488.21 147.04,-1487.75"/>
</g>
<!-- layer_0_3 -->
<g id="node5" class="node">
<title>layer_0_3</title>
<g id="a_node5"><a xlink:href="layer_3_data_0_detail.svg" xlink:title="layer 3" target="_blank">
<polygon fill="lightyellow" stroke="black" points="222,-1404 168,-1404 168,-1368 222,-1368 222,-1404"/>
<text text-anchor="middle" x="195" y="-1380.95" font-family="Times New Roman,serif" font-size="14.00">layer 3</text>
</a>
</g>
</g>
<!-- layer_0_&#45;1&#45;&gt;layer_0_3 -->
<g id="edge15" class="edge">
<title>layer_0_&#45;1&#45;&gt;layer_0_3</title>
<path fill="none" stroke="black" d="M565.52,-1672.95C486.62,-1672.27 274.53,-1666.24 227,-1620 171.38,-1565.89 175.52,-1464.75 185.13,-1415.46"/>
<polygon fill="black" stroke="black" points="188.51,-1416.38 187.26,-1405.86 181.68,-1414.87 188.51,-1416.38"/>
</g>
<!-- layer_0_&#45;1&#45;&gt;layer_0_3 -->
<g id="edge16" class="edge">
<title>layer_0_&#45;1&#45;&gt;layer_0_3</title>
<path fill="none" stroke="black" d="M565.62,-1672.86C489.72,-1671.79 290.84,-1664.59 245,-1620 189.5,-1566.01 193.51,-1465.18 195.88,-1415.78"/>
<polygon fill="black" stroke="black" points="199.37,-1416.05 196.34,-1405.9 192.38,-1415.72 199.37,-1416.05"/>
</g>
<!-- layer_0_4 -->
<g id="node6" class="node">
<title>layer_0_4</title>
<g id="a_node6"><a xlink:href="layer_4_data_0_detail.svg" xlink:title="layer 4" target="_blank">
<polygon fill="lightyellow" stroke="black" points="278,-1332 224,-1332 224,-1296 278,-1296 278,-1332"/>
<text text-anchor="middle" x="251" y="-1308.95" font-family="Times New Roman,serif" font-size="14.00">layer 4</text>
</a>
</g>
</g>
<!-- layer_0_&#45;1&#45;&gt;layer_0_4 -->
<g id="edge19" class="edge">
<title>layer_0_&#45;1&#45;&gt;layer_0_4</title>
<path fill="none" stroke="black" d="M565.62,-1671.77C496.12,-1668.1 325.32,-1655.24 283,-1620 250.58,-1593 250,-1573.19 250,-1531 250,-1531 250,-1531 250,-1457 250,-1417.68 246.9,-1372.33 246.73,-1343.67"/>
<polygon fill="black" stroke="black" points="250.23,-1344.02 246.84,-1333.98 243.23,-1343.95 250.23,-1344.02"/>
</g>
<!-- layer_0_&#45;1&#45;&gt;layer_0_4 -->
<g id="edge20" class="edge">
<title>layer_0_&#45;1&#45;&gt;layer_0_4</title>
<path fill="none" stroke="black" d="M565.73,-1671.23C499.46,-1666.94 341.47,-1653.71 301,-1620 268.58,-1593 268,-1573.19 268,-1531 268,-1531 268,-1531 268,-1457 268,-1417.68 264.9,-1372.33 260.4,-1343.67"/>
<polygon fill="black" stroke="black" points="263.87,-1343.18 258.65,-1333.96 256.98,-1344.42 263.87,-1343.18"/>
</g>
<!-- layer_0_5 -->
<g id="node7" class="node">
<title>layer_0_5</title>
<g id="a_node7"><a xlink:href="layer_5_data_0_detail.svg" xlink:title="layer 5" target="_blank">
<polygon fill="lightyellow" stroke="black" points="334,-1260 280,-1260 280,-1224 334,-1224 334,-1260"/>
<text text-anchor="middle" x="307" y="-1236.95" font-family="Times New Roman,serif" font-size="14.00">layer 5</text>
</a>
</g>
</g>
<!-- layer_0_&#45;1&#45;&gt;layer_0_5 -->
<g id="edge23" class="edge">
<title>layer_0_&#45;1&#45;&gt;layer_0_5</title>
<path fill="none" stroke="black" d="M565.67,-1670.71C505.59,-1665.07 372.32,-1648.85 339,-1620 307.1,-1592.39 306,-1573.19 306,-1531 306,-1531 306,-1531 306,-1385 306,-1345.68 302.9,-1300.33 302.73,-1271.67"/>
<polygon fill="black" stroke="black" points="306.23,-1272.02 302.84,-1261.98 299.23,-1271.95 306.23,-1272.02"/>
</g>
<!-- layer_0_&#45;1&#45;&gt;layer_0_5 -->
<g id="edge24" class="edge">
<title>layer_0_&#45;1&#45;&gt;layer_0_5</title>
<path fill="none" stroke="black" d="M565.81,-1669.69C509.3,-1663.26 388.5,-1647.27 357,-1620 325.1,-1592.39 324,-1573.19 324,-1531 324,-1531 324,-1531 324,-1385 324,-1345.68 320.9,-1300.33 316.4,-1271.67"/>
<polygon fill="black" stroke="black" points="319.87,-1271.18 314.65,-1261.96 312.98,-1272.42 319.87,-1271.18"/>
</g>
<!-- layer_0_6 -->
<g id="node8" class="node">
<title>layer_0_6</title>
<g id="a_node8"><a xlink:href="layer_6_data_0_detail.svg" xlink:title="layer 6" target="_blank">
<polygon fill="lightyellow" stroke="black" points="390,-1188 336,-1188 336,-1152 390,-1152 390,-1188"/>
<text text-anchor="middle" x="363" y="-1164.95" font-family="Times New Roman,serif" font-size="14.00">layer 6</text>
</a>
</g>
</g>
<!-- layer_0_&#45;1&#45;&gt;layer_0_6 -->
<g id="edge27" class="edge">
<title>layer_0_&#45;1&#45;&gt;layer_0_6</title>
<path fill="none" stroke="black" d="M565.69,-1673.01C522.46,-1671.75 442.38,-1663.54 395,-1620 363.94,-1591.45 362,-1573.19 362,-1531 362,-1531 362,-1531 362,-1313 362,-1273.68 358.9,-1228.33 358.73,-1199.67"/>
<polygon fill="black" stroke="black" points="362.23,-1200.02 358.84,-1189.98 355.23,-1199.95 362.23,-1200.02"/>
</g>
<!-- layer_0_&#45;1&#45;&gt;layer_0_6 -->
<g id="edge28" class="edge">
<title>layer_0_&#45;1&#45;&gt;layer_0_6</title>
<path fill="none" stroke="black" d="M565.77,-1672.48C526.17,-1669.97 456.08,-1659.58 413,-1620 381.94,-1591.45 380,-1573.19 380,-1531 380,-1531 380,-1531 380,-1313 380,-1273.68 376.9,-1228.33 372.4,-1199.67"/>
<polygon fill="black" stroke="black" points="375.87,-1199.18 370.65,-1189.96 368.98,-1200.42 375.87,-1199.18"/>
</g>
<!-- layer_0_7 -->
<g id="node9" class="node">
<title>layer_0_7</title>
<g id="a_node9"><a xlink:href="layer_7_data_0_detail.svg" xlink:title="layer 7" target="_blank">
<polygon fill="lightyellow" stroke="black" points="446,-1116 392,-1116 392,-1080 446,-1080 446,-1116"/>
<text text-anchor="middle" x="419" y="-1092.95" font-family="Times New Roman,serif" font-size="14.00">layer 7</text>
</a>
</g>
</g>
<!-- layer_0_&#45;1&#45;&gt;layer_0_7 -->
<g id="edge31" class="edge">
<title>layer_0_&#45;1&#45;&gt;layer_0_7</title>
<path fill="none" stroke="black" d="M565.59,-1669.8C533.02,-1664.52 481.68,-1651.27 451,-1620 421.45,-1589.89 418,-1573.19 418,-1531 418,-1531 418,-1531 418,-1241 418,-1201.68 414.9,-1156.33 414.73,-1127.67"/>
<polygon fill="black" stroke="black" points="418.23,-1128.02 414.84,-1117.98 411.23,-1127.95 418.23,-1128.02"/>
</g>
<!-- layer_0_&#45;1&#45;&gt;layer_0_7 -->
<g id="edge32" class="edge">
<title>layer_0_&#45;1&#45;&gt;layer_0_7</title>
<path fill="none" stroke="black" d="M565.53,-1667.13C537.25,-1660.52 495.45,-1646.96 469,-1620 439.45,-1589.89 436,-1573.19 436,-1531 436,-1531 436,-1531 436,-1241 436,-1201.68 432.9,-1156.33 428.4,-1127.67"/>
<polygon fill="black" stroke="black" points="431.87,-1127.18 426.65,-1117.96 424.98,-1128.42 431.87,-1127.18"/>
</g>
<!-- layer_0_8 -->
<g id="node10" class="node">
<title>layer_0_8</title>
<g id="a_node10"><a xlink:href="layer_8_data_0_detail.svg" xlink:title="layer 8" target="_blank">
<polygon fill="lightyellow" stroke="black" points="502,-1044 448,-1044 448,-1008 502,-1008 502,-1044"/>
<text text-anchor="middle" x="475" y="-1020.95" font-family="Times New Roman,serif" font-size="14.00">layer 8</text>
</a>
</g>
</g>
<!-- layer_0_&#45;1&#45;&gt;layer_0_8 -->
<g id="edge35" class="edge">
<title>layer_0_&#45;1&#45;&gt;layer_0_8</title>
<path fill="none" stroke="black" d="M565.5,-1662.91C546.17,-1653.91 522.13,-1639.2 507,-1620 480.89,-1586.87 474,-1573.19 474,-1531 474,-1531 474,-1531 474,-1169 474,-1129.68 470.9,-1084.33 470.73,-1055.67"/>
<polygon fill="black" stroke="black" points="474.23,-1056.02 470.84,-1045.98 467.23,-1055.95 474.23,-1056.02"/>
</g>
<!-- layer_0_&#45;1&#45;&gt;layer_0_8 -->
<g id="edge36" class="edge">
<title>layer_0_&#45;1&#45;&gt;layer_0_8</title>
<path fill="none" stroke="black" d="M567.63,-1655.58C553.3,-1646.7 536.55,-1634.66 525,-1620 498.89,-1586.87 492,-1573.19 492,-1531 492,-1531 492,-1531 492,-1169 492,-1129.68 488.9,-1084.33 484.4,-1055.67"/>
<polygon fill="black" stroke="black" points="487.87,-1055.18 482.65,-1045.96 480.98,-1056.42 487.87,-1055.18"/>
</g>
<!-- layer_0_9 -->
<g id="node11" class="node">
<title>layer_0_9</title>
<g id="a_node11"><a xlink:href="layer_9_data_0_detail.svg" xlink:title="layer 9" target="_blank">
<polygon fill="lightyellow" stroke="black" points="558,-972 504,-972 504,-936 558,-936 558,-972"/>
<text text-anchor="middle" x="531" y="-948.95" font-family="Times New Roman,serif" font-size="14.00">layer 9</text>
</a>
</g>
</g>
<!-- layer_0_&#45;1&#45;&gt;layer_0_9 -->
<g id="edge39" class="edge">
<title>layer_0_&#45;1&#45;&gt;layer_0_9</title>
<path fill="none" stroke="black" d="M577.58,-1655.93C557.99,-1630.09 530,-1578.97 530,-1531 530,-1531 530,-1531 530,-1097 530,-1057.68 526.9,-1012.33 526.73,-983.67"/>
<polygon fill="black" stroke="black" points="530.23,-984.02 526.84,-973.98 523.23,-983.95 530.23,-984.02"/>
</g>
<!-- layer_0_&#45;1&#45;&gt;layer_0_9 -->
<g id="edge40" class="edge">
<title>layer_0_&#45;1&#45;&gt;layer_0_9</title>
<path fill="none" stroke="black" d="M589.22,-1655.93C575.99,-1630.09 548,-1578.97 548,-1531 548,-1531 548,-1531 548,-1097 548,-1057.68 544.9,-1012.33 540.4,-983.67"/>
<polygon fill="black" stroke="black" points="543.87,-983.18 538.65,-973.96 536.98,-984.42 543.87,-983.18"/>
</g>
<!-- layer_0_10 -->
<g id="node12" class="node">
<title>layer_0_10</title>
<g id="a_node12"><a xlink:href="layer_10_data_0_detail.svg" xlink:title="layer 10" target="_blank">
<polygon fill="lightyellow" stroke="black" points="614.12,-900 553.88,-900 553.88,-864 614.12,-864 614.12,-900"/>
<text text-anchor="middle" x="584" y="-876.95" font-family="Times New Roman,serif" font-size="14.00">layer 10</text>
</a>
</g>
</g>
<!-- layer_0_&#45;1&#45;&gt;layer_0_10 -->
<g id="edge43" class="edge">
<title>layer_0_&#45;1&#45;&gt;layer_0_10</title>
<path fill="none" stroke="black" d="M589.23,-1655.51C586,-1628.71 586,-1575.87 586,-1531 586,-1531 586,-1531 586,-1025 586,-985.62 581.74,-940.29 580.69,-911.64"/>
<polygon fill="black" stroke="black" points="584.2,-911.89 580.49,-901.97 577.2,-912.04 584.2,-911.89"/>
</g>
<!-- layer_0_&#45;1&#45;&gt;layer_0_10 -->
<g id="edge44" class="edge">
<title>layer_0_&#45;1&#45;&gt;layer_0_10</title>
<path fill="none" stroke="black" d="M600.77,-1655.51C604,-1628.71 604,-1575.87 604,-1531 604,-1531 604,-1531 604,-1025 604,-985.62 599.74,-940.29 594.36,-911.64"/>
<polygon fill="black" stroke="black" points="597.8,-910.99 592.31,-901.94 590.95,-912.44 597.8,-910.99"/>
</g>
<!-- layer_0_11 -->
<g id="node13" class="node">
<title>layer_0_11</title>
<g id="a_node13"><a xlink:href="layer_11_data_0_detail.svg" xlink:title="layer 11" target="_blank">
<polygon fill="lightyellow" stroke="black" points="670.12,-828 609.88,-828 609.88,-792 670.12,-792 670.12,-828"/>
<text text-anchor="middle" x="640" y="-804.95" font-family="Times New Roman,serif" font-size="14.00">layer 11</text>
</a>
</g>
</g>
<!-- layer_0_&#45;1&#45;&gt;layer_0_11 -->
<g id="edge47" class="edge">
<title>layer_0_&#45;1&#45;&gt;layer_0_11</title>
<path fill="none" stroke="black" d="M600.78,-1655.93C614.01,-1630.09 642,-1578.97 642,-1531 642,-1531 642,-1531 642,-953 642,-913.62 637.74,-868.29 636.69,-839.64"/>
<polygon fill="black" stroke="black" points="640.2,-839.89 636.49,-829.97 633.2,-840.04 640.2,-839.89"/>
</g>
<!-- layer_0_&#45;1&#45;&gt;layer_0_11 -->
<g id="edge48" class="edge">
<title>layer_0_&#45;1&#45;&gt;layer_0_11</title>
<path fill="none" stroke="black" d="M612.42,-1655.93C632.01,-1630.09 660,-1578.97 660,-1531 660,-1531 660,-1531 660,-953 660,-913.62 655.74,-868.29 650.36,-839.64"/>
<polygon fill="black" stroke="black" points="653.8,-838.99 648.31,-829.94 646.95,-840.44 653.8,-838.99"/>
</g>
<!-- layer_0_12 -->
<g id="node14" class="node">
<title>layer_0_12</title>
<g id="a_node14"><a xlink:href="layer_12_data_0_detail.svg" xlink:title="layer 12" target="_blank">
<polygon fill="lightyellow" stroke="black" points="726.12,-756 665.88,-756 665.88,-720 726.12,-720 726.12,-756"/>
<text text-anchor="middle" x="696" y="-732.95" font-family="Times New Roman,serif" font-size="14.00">layer 12</text>
</a>
</g>
</g>
<!-- layer_0_&#45;1&#45;&gt;layer_0_12 -->
<g id="edge51" class="edge">
<title>layer_0_&#45;1&#45;&gt;layer_0_12</title>
<path fill="none" stroke="black" d="M615.68,-1655.65C645.96,-1631.86 698,-1585.79 698,-1531 698,-1531 698,-1531 698,-881 698,-841.62 693.74,-796.29 692.69,-767.64"/>
<polygon fill="black" stroke="black" points="696.2,-767.89 692.49,-757.97 689.2,-768.04 696.2,-767.89"/>
</g>
<!-- layer_0_&#45;1&#45;&gt;layer_0_12 -->
<g id="edge52" class="edge">
<title>layer_0_&#45;1&#45;&gt;layer_0_12</title>
<path fill="none" stroke="black" d="M624.32,-1658.02C660.32,-1635.02 716,-1587.67 716,-1531 716,-1531 716,-1531 716,-881 716,-841.62 711.74,-796.29 706.36,-767.64"/>
<polygon fill="black" stroke="black" points="709.8,-766.99 704.31,-757.94 702.95,-768.44 709.8,-766.99"/>
</g>
<!-- layer_0_13 -->
<g id="node15" class="node">
<title>layer_0_13</title>
<g id="a_node15"><a xlink:href="layer_13_data_0_detail.svg" xlink:title="layer 13" target="_blank">
<polygon fill="lightyellow" stroke="black" points="782.12,-684 721.88,-684 721.88,-648 782.12,-648 782.12,-684"/>
<text text-anchor="middle" x="752" y="-660.95" font-family="Times New Roman,serif" font-size="14.00">layer 13</text>
</a>
</g>
</g>
<!-- layer_0_&#45;1&#45;&gt;layer_0_13 -->
<g id="edge55" class="edge">
<title>layer_0_&#45;1&#45;&gt;layer_0_13</title>
<path fill="none" stroke="black" d="M624.37,-1661.22C670.48,-1642.25 754,-1599.93 754,-1531 754,-1531 754,-1531 754,-809 754,-769.62 749.74,-724.29 748.69,-695.64"/>
<polygon fill="black" stroke="black" points="752.2,-695.89 748.49,-685.97 745.2,-696.04 752.2,-695.89"/>
</g>
<!-- layer_0_&#45;1&#45;&gt;layer_0_13 -->
<g id="edge56" class="edge">
<title>layer_0_&#45;1&#45;&gt;layer_0_13</title>
<path fill="none" stroke="black" d="M624.48,-1665.21C675.02,-1648.66 772,-1605.28 772,-1531 772,-1531 772,-1531 772,-809 772,-769.62 767.74,-724.29 762.36,-695.64"/>
<polygon fill="black" stroke="black" points="765.8,-694.99 760.31,-685.94 758.95,-696.44 765.8,-694.99"/>
</g>
<!-- layer_0_14 -->
<g id="node16" class="node">
<title>layer_0_14</title>
<g id="a_node16"><a xlink:href="layer_14_data_0_detail.svg" xlink:title="layer 14" target="_blank">
<polygon fill="lightyellow" stroke="black" points="838.12,-612 777.88,-612 777.88,-576 838.12,-576 838.12,-612"/>
<text text-anchor="middle" x="808" y="-588.95" font-family="Times New Roman,serif" font-size="14.00">layer 14</text>
</a>
</g>
</g>
<!-- layer_0_&#45;1&#45;&gt;layer_0_14 -->
<g id="edge59" class="edge">
<title>layer_0_&#45;1&#45;&gt;layer_0_14</title>
<path fill="none" stroke="black" d="M624.34,-1667.48C683.34,-1655.26 810,-1619.64 810,-1531 810,-1531 810,-1531 810,-737 810,-697.62 805.74,-652.29 804.69,-623.64"/>
<polygon fill="black" stroke="black" points="808.2,-623.89 804.49,-613.97 801.2,-624.04 808.2,-623.89"/>
</g>
<!-- layer_0_&#45;1&#45;&gt;layer_0_14 -->
<g id="edge60" class="edge">
<title>layer_0_&#45;1&#45;&gt;layer_0_14</title>
<path fill="none" stroke="black" d="M624.34,-1669.28C687.15,-1658.99 828,-1624.47 828,-1531 828,-1531 828,-1531 828,-737 828,-697.62 823.74,-652.29 818.36,-623.64"/>
<polygon fill="black" stroke="black" points="821.8,-622.99 816.31,-613.94 814.95,-624.44 821.8,-622.99"/>
</g>
<!-- layer_0_15 -->
<g id="node17" class="node">
<title>layer_0_15</title>
<g id="a_node17"><a xlink:href="layer_15_data_0_detail.svg" xlink:title="layer 15" target="_blank">
<polygon fill="lightyellow" stroke="black" points="894.12,-540 833.88,-540 833.88,-504 894.12,-504 894.12,-540"/>
<text text-anchor="middle" x="864" y="-516.95" font-family="Times New Roman,serif" font-size="14.00">layer 15</text>
</a>
</g>
</g>
<!-- layer_0_&#45;1&#45;&gt;layer_0_15 -->
<g id="edge63" class="edge">
<title>layer_0_&#45;1&#45;&gt;layer_0_15</title>
<path fill="none" stroke="black" d="M624.36,-1671.26C694.67,-1665.43 866,-1640.15 866,-1531 866,-1531 866,-1531 866,-665 866,-625.62 861.74,-580.29 860.69,-551.64"/>
<polygon fill="black" stroke="black" points="864.2,-551.89 860.49,-541.97 857.2,-552.04 864.2,-551.89"/>
</g>
<!-- layer_0_&#45;1&#45;&gt;layer_0_15 -->
<g id="edge64" class="edge">
<title>layer_0_&#45;1&#45;&gt;layer_0_15</title>
<path fill="none" stroke="black" d="M624.48,-1671.89C698.27,-1667.37 884,-1644.64 884,-1531 884,-1531 884,-1531 884,-665 884,-625.62 879.74,-580.29 874.36,-551.64"/>
<polygon fill="black" stroke="black" points="877.8,-550.99 872.31,-541.94 870.95,-552.44 877.8,-550.99"/>
</g>
<!-- layer_0_16 -->
<g id="node18" class="node">
<title>layer_0_16</title>
<g id="a_node18"><a xlink:href="layer_16_data_0_detail.svg" xlink:title="layer 16" target="_blank">
<polygon fill="lightyellow" stroke="black" points="950.12,-468 889.88,-468 889.88,-432 950.12,-432 950.12,-468"/>
<text text-anchor="middle" x="920" y="-444.95" font-family="Times New Roman,serif" font-size="14.00">layer 16</text>
</a>
</g>
</g>
<!-- layer_0_&#45;1&#45;&gt;layer_0_16 -->
<g id="edge67" class="edge">
<title>layer_0_&#45;1&#45;&gt;layer_0_16</title>
<path fill="none" stroke="black" d="M624.43,-1673.8C704.96,-1673.88 922,-1661.3 922,-1531 922,-1531 922,-1531 922,-593 922,-553.62 917.74,-508.29 916.69,-479.64"/>
<polygon fill="black" stroke="black" points="920.2,-479.89 916.49,-469.97 913.2,-480.04 920.2,-479.89"/>
</g>
<!-- layer_0_&#45;1&#45;&gt;layer_0_16 -->
<g id="edge68" class="edge">
<title>layer_0_&#45;1&#45;&gt;layer_0_16</title>
<path fill="none" stroke="black" d="M624.36,-1673.75C707.94,-1674.6 940,-1665.73 940,-1531 940,-1531 940,-1531 940,-593 940,-553.62 935.74,-508.29 930.36,-479.64"/>
<polygon fill="black" stroke="black" points="933.8,-478.99 928.31,-469.94 926.95,-480.44 933.8,-478.99"/>
</g>
<!-- layer_0_17 -->
<g id="node19" class="node">
<title>layer_0_17</title>
<g id="a_node19"><a xlink:href="layer_17_data_0_detail.svg" xlink:title="layer 17" target="_blank">
<polygon fill="lightyellow" stroke="black" points="1006.12,-396 945.88,-396 945.88,-360 1006.12,-360 1006.12,-396"/>
<text text-anchor="middle" x="976" y="-372.95" font-family="Times New Roman,serif" font-size="14.00">layer 17</text>
</a>
</g>
</g>
<!-- layer_0_&#45;1&#45;&gt;layer_0_17 -->
<g id="edge71" class="edge">
<title>layer_0_&#45;1&#45;&gt;layer_0_17</title>
<path fill="none" stroke="black" d="M624.27,-1670.7C693.31,-1665.24 863.27,-1649.67 912,-1620 954.06,-1594.39 978,-1580.25 978,-1531 978,-1531 978,-1531 978,-521 978,-481.62 973.74,-436.29 972.69,-407.64"/>
<polygon fill="black" stroke="black" points="976.2,-407.89 972.49,-397.97 969.2,-408.04 976.2,-407.89"/>
</g>
<!-- layer_0_&#45;1&#45;&gt;layer_0_17 -->
<g id="edge72" class="edge">
<title>layer_0_&#45;1&#45;&gt;layer_0_17</title>
<path fill="none" stroke="black" d="M624.41,-1671.35C696.57,-1666.54 879.19,-1650.94 930,-1620 972.06,-1594.39 996,-1580.25 996,-1531 996,-1531 996,-1531 996,-521 996,-481.62 991.74,-436.29 986.36,-407.64"/>
<polygon fill="black" stroke="black" points="989.8,-406.99 984.31,-397.94 982.95,-408.44 989.8,-406.99"/>
</g>
<!-- layer_0_18 -->
<g id="node20" class="node">
<title>layer_0_18</title>
<g id="a_node20"><a xlink:href="layer_18_data_0_detail.svg" xlink:title="layer 18" target="_blank">
<polygon fill="lightyellow" stroke="black" points="1062.12,-324 1001.88,-324 1001.88,-288 1062.12,-288 1062.12,-324"/>
<text text-anchor="middle" x="1032" y="-300.95" font-family="Times New Roman,serif" font-size="14.00">layer 18</text>
</a>
</g>
</g>
<!-- layer_0_&#45;1&#45;&gt;layer_0_18 -->
<g id="edge75" class="edge">
<title>layer_0_&#45;1&#45;&gt;layer_0_18</title>
<path fill="none" stroke="black" d="M624.36,-1671.26C700.41,-1666.65 900.93,-1652.17 959,-1620 1004.25,-1594.94 1034,-1582.73 1034,-1531 1034,-1531 1034,-1531 1034,-449 1034,-409.62 1029.74,-364.29 1028.69,-335.64"/>
<polygon fill="black" stroke="black" points="1032.2,-335.89 1028.49,-325.97 1025.2,-336.04 1032.2,-335.89"/>
</g>
<!-- layer_0_&#45;1&#45;&gt;layer_0_18 -->
<g id="edge76" class="edge">
<title>layer_0_&#45;1&#45;&gt;layer_0_18</title>
<path fill="none" stroke="black" d="M624.45,-1671.73C703.4,-1667.69 916.78,-1653.36 977,-1620 1022.25,-1594.94 1052,-1582.73 1052,-1531 1052,-1531 1052,-1531 1052,-449 1052,-409.62 1047.74,-364.29 1042.36,-335.64"/>
<polygon fill="black" stroke="black" points="1045.8,-334.99 1040.31,-325.94 1038.95,-336.44 1045.8,-334.99"/>
</g>
<!-- layer_0_19 -->
<g id="node21" class="node">
<title>layer_0_19</title>
<g id="a_node21"><a xlink:href="layer_19_data_0_detail.svg" xlink:title="layer 19" target="_blank">
<polygon fill="lightyellow" stroke="black" points="1118.12,-252 1057.88,-252 1057.88,-216 1118.12,-216 1118.12,-252"/>
<text text-anchor="middle" x="1088" y="-228.95" font-family="Times New Roman,serif" font-size="14.00">layer 19</text>
</a>
</g>
</g>
<!-- layer_0_&#45;1&#45;&gt;layer_0_19 -->
<g id="edge79" class="edge">
<title>layer_0_&#45;1&#45;&gt;layer_0_19</title>
<path fill="none" stroke="black" d="M624.44,-1671.77C707.53,-1668.09 941.17,-1655.19 1009,-1620 1056.48,-1595.37 1090,-1584.48 1090,-1531 1090,-1531 1090,-1531 1090,-377 1090,-337.62 1085.74,-292.29 1084.69,-263.64"/>
<polygon fill="black" stroke="black" points="1088.2,-263.89 1084.49,-253.97 1081.2,-264.04 1088.2,-263.89"/>
</g>
<!-- layer_0_&#45;1&#45;&gt;layer_0_19 -->
<g id="edge80" class="edge">
<title>layer_0_&#45;1&#45;&gt;layer_0_19</title>
<path fill="none" stroke="black" d="M624.39,-1672.1C710.08,-1668.91 956.95,-1656.34 1027,-1620 1074.48,-1595.37 1108,-1584.48 1108,-1531 1108,-1531 1108,-1531 1108,-377 1108,-337.62 1103.74,-292.29 1098.36,-263.64"/>
<polygon fill="black" stroke="black" points="1101.8,-262.99 1096.31,-253.94 1094.95,-264.44 1101.8,-262.99"/>
</g>
<!-- layer_0_20 -->
<g id="node22" class="node">
<title>layer_0_20</title>
<g id="a_node22"><a xlink:href="layer_20_data_0_detail.svg" xlink:title="layer 20" target="_blank">
<polygon fill="lightyellow" stroke="black" points="1174.12,-180 1113.88,-180 1113.88,-144 1174.12,-144 1174.12,-180"/>
<text text-anchor="middle" x="1144" y="-156.95" font-family="Times New Roman,serif" font-size="14.00">layer 20</text>
</a>
</g>
</g>
<!-- layer_0_&#45;1&#45;&gt;layer_0_20 -->
<g id="edge83" class="edge">
<title>layer_0_&#45;1&#45;&gt;layer_0_20</title>
<path fill="none" stroke="black" d="M624.3,-1672.25C714.26,-1669.64 983.96,-1658.92 1062,-1620 1110.67,-1595.73 1146,-1585.39 1146,-1531 1146,-1531 1146,-1531 1146,-305 1146,-265.62 1141.74,-220.29 1140.69,-191.64"/>
<polygon fill="black" stroke="black" points="1144.2,-191.89 1140.49,-181.97 1137.2,-192.04 1144.2,-191.89"/>
</g>
<!-- layer_0_&#45;1&#45;&gt;layer_0_20 -->
<g id="edge84" class="edge">
<title>layer_0_&#45;1&#45;&gt;layer_0_20</title>
<path fill="none" stroke="black" d="M624.26,-1672.45C716.67,-1670.23 999.73,-1660.03 1080,-1620 1128.67,-1595.73 1164,-1585.39 1164,-1531 1164,-1531 1164,-1531 1164,-305 1164,-265.62 1159.74,-220.29 1154.36,-191.64"/>
<polygon fill="black" stroke="black" points="1157.8,-190.99 1152.31,-181.94 1150.95,-192.44 1157.8,-190.99"/>
</g>
<!-- layer_0_21 -->
<g id="node23" class="node">
<title>layer_0_21</title>
<g id="a_node23"><a xlink:href="layer_21_data_0_detail.svg" xlink:title="layer 21" target="_blank">
<polygon fill="lightyellow" stroke="black" points="1207.12,-108 1146.88,-108 1146.88,-72 1207.12,-72 1207.12,-108"/>
<text text-anchor="middle" x="1177" y="-84.95" font-family="Times New Roman,serif" font-size="14.00">layer 21</text>
</a>
</g>
</g>
<!-- layer_0_&#45;1&#45;&gt;layer_0_21 -->
<g id="edge87" class="edge">
<title>layer_0_&#45;1&#45;&gt;layer_0_21</title>
<path fill="none" stroke="black" d="M624.2,-1672.64C720.76,-1671.08 1027.58,-1662.83 1116,-1620 1165.5,-1596.02 1202,-1586.01 1202,-1531 1202,-1531 1202,-1531 1202,-233 1202,-192.63 1188.84,-147.54 1181.06,-119.22"/>
<polygon fill="black" stroke="black" points="1184.47,-118.39 1178.5,-109.63 1177.7,-120.2 1184.47,-118.39"/>
</g>
<!-- layer_0_&#45;1&#45;&gt;layer_0_21 -->
<g id="edge88" class="edge">
<title>layer_0_&#45;1&#45;&gt;layer_0_21</title>
<path fill="none" stroke="black" d="M624.35,-1672.74C723.47,-1671.46 1043.39,-1663.89 1134,-1620 1183.5,-1596.02 1220,-1586.01 1220,-1531 1220,-1531 1220,-1531 1220,-233 1220,-192.27 1206.61,-146.73 1194.41,-118.46"/>
<polygon fill="black" stroke="black" points="1197.66,-117.15 1190.28,-109.54 1191.3,-120.09 1197.66,-117.15"/>
</g>
<!-- layer_0_0&#45;&gt;layer_0_1 -->
<g id="edge5" class="edge">
<title>layer_0_0&#45;&gt;layer_0_1</title>
<path fill="none" stroke="black" d="M34.93,-1583.7C40.6,-1575.56 48.29,-1565.69 55.91,-1556.7"/>
<polygon fill="black" stroke="black" points="58.48,-1559.08 62.43,-1549.24 53.21,-1554.47 58.48,-1559.08"/>
</g>
<!-- layer_0_0&#45;&gt;layer_0_1 -->
<g id="edge6" class="edge">
<title>layer_0_0&#45;&gt;layer_0_1</title>
<path fill="none" stroke="black" d="M46.76,-1583.7C53.95,-1575.73 61.87,-1566.1 68.55,-1557.26"/>
<polygon fill="black" stroke="black" points="71.27,-1559.47 74.32,-1549.33 65.61,-1555.36 71.27,-1559.47"/>
</g>
<!-- layer_0_1&#45;&gt;layer_0_2 -->
<g id="edge9" class="edge">
<title>layer_0_1&#45;&gt;layer_0_2</title>
<path fill="none" stroke="black" d="M90.93,-1511.7C96.6,-1503.56 104.29,-1493.69 111.91,-1484.7"/>
<polygon fill="black" stroke="black" points="114.48,-1487.08 118.43,-1477.24 109.21,-1482.47 114.48,-1487.08"/>
</g>
<!-- layer_0_1&#45;&gt;layer_0_2 -->
<g id="edge10" class="edge">
<title>layer_0_1&#45;&gt;layer_0_2</title>
<path fill="none" stroke="black" d="M102.76,-1511.7C109.95,-1503.73 117.87,-1494.1 124.55,-1485.26"/>
<polygon fill="black" stroke="black" points="127.27,-1487.47 130.32,-1477.33 121.61,-1483.36 127.27,-1487.47"/>
</g>
<!-- layer_0_2&#45;&gt;layer_0_3 -->
<g id="edge13" class="edge">
<title>layer_0_2&#45;&gt;layer_0_3</title>
<path fill="none" stroke="black" d="M146.93,-1439.7C152.6,-1431.56 160.29,-1421.69 167.91,-1412.7"/>
<polygon fill="black" stroke="black" points="170.48,-1415.08 174.43,-1405.24 165.21,-1410.47 170.48,-1415.08"/>
</g>
<!-- layer_0_2&#45;&gt;layer_0_3 -->
<g id="edge14" class="edge">
<title>layer_0_2&#45;&gt;layer_0_3</title>
<path fill="none" stroke="black" d="M158.76,-1439.7C165.95,-1431.73 173.87,-1422.1 180.55,-1413.26"/>
<polygon fill="black" stroke="black" points="183.27,-1415.47 186.32,-1405.33 177.61,-1411.36 183.27,-1415.47"/>
</g>
<!-- layer_0_3&#45;&gt;layer_0_4 -->
<g id="edge17" class="edge">
<title>layer_0_3&#45;&gt;layer_0_4</title>
<path fill="none" stroke="black" d="M202.93,-1367.7C208.6,-1359.56 216.29,-1349.69 223.91,-1340.7"/>
<polygon fill="black" stroke="black" points="226.48,-1343.08 230.43,-1333.24 221.21,-1338.47 226.48,-1343.08"/>
</g>
<!-- layer_0_3&#45;&gt;layer_0_4 -->
<g id="edge18" class="edge">
<title>layer_0_3&#45;&gt;layer_0_4</title>
<path fill="none" stroke="black" d="M214.76,-1367.7C221.95,-1359.73 229.87,-1350.1 236.55,-1341.26"/>
<polygon fill="black" stroke="black" points="239.27,-1343.47 242.32,-1333.33 233.61,-1339.36 239.27,-1343.47"/>
</g>
<!-- layer_0_4&#45;&gt;layer_0_5 -->
<g id="edge21" class="edge">
<title>layer_0_4&#45;&gt;layer_0_5</title>
<path fill="none" stroke="black" d="M258.93,-1295.7C264.6,-1287.56 272.29,-1277.69 279.91,-1268.7"/>
<polygon fill="black" stroke="black" points="282.48,-1271.08 286.43,-1261.24 277.21,-1266.47 282.48,-1271.08"/>
</g>
<!-- layer_0_4&#45;&gt;layer_0_5 -->
<g id="edge22" class="edge">
<title>layer_0_4&#45;&gt;layer_0_5</title>
<path fill="none" stroke="black" d="M270.76,-1295.7C277.95,-1287.73 285.87,-1278.1 292.55,-1269.26"/>
<polygon fill="black" stroke="black" points="295.27,-1271.47 298.32,-1261.33 289.61,-1267.36 295.27,-1271.47"/>
</g>
<!-- layer_0_5&#45;&gt;layer_0_6 -->
<g id="edge25" class="edge">
<title>layer_0_5&#45;&gt;layer_0_6</title>
<path fill="none" stroke="black" d="M314.93,-1223.7C320.6,-1215.56 328.29,-1205.69 335.91,-1196.7"/>
<polygon fill="black" stroke="black" points="338.48,-1199.08 342.43,-1189.24 333.21,-1194.47 338.48,-1199.08"/>
</g>
<!-- layer_0_5&#45;&gt;layer_0_6 -->
<g id="edge26" class="edge">
<title>layer_0_5&#45;&gt;layer_0_6</title>
<path fill="none" stroke="black" d="M326.76,-1223.7C333.95,-1215.73 341.87,-1206.1 348.55,-1197.26"/>
<polygon fill="black" stroke="black" points="351.27,-1199.47 354.32,-1189.33 345.61,-1195.36 351.27,-1199.47"/>
</g>
<!-- layer_0_6&#45;&gt;layer_0_7 -->
<g id="edge29" class="edge">
<title>layer_0_6&#45;&gt;layer_0_7</title>
<path fill="none" stroke="black" d="M370.93,-1151.7C376.6,-1143.56 384.29,-1133.69 391.91,-1124.7"/>
<polygon fill="black" stroke="black" points="394.48,-1127.08 398.43,-1117.24 389.21,-1122.47 394.48,-1127.08"/>
</g>
<!-- layer_0_6&#45;&gt;layer_0_7 -->
<g id="edge30" class="edge">
<title>layer_0_6&#45;&gt;layer_0_7</title>
<path fill="none" stroke="black" d="M382.76,-1151.7C389.95,-1143.73 397.87,-1134.1 404.55,-1125.26"/>
<polygon fill="black" stroke="black" points="407.27,-1127.47 410.32,-1117.33 401.61,-1123.36 407.27,-1127.47"/>
</g>
<!-- layer_0_7&#45;&gt;layer_0_8 -->
<g id="edge33" class="edge">
<title>layer_0_7&#45;&gt;layer_0_8</title>
<path fill="none" stroke="black" d="M426.93,-1079.7C432.6,-1071.56 440.29,-1061.69 447.91,-1052.7"/>
<polygon fill="black" stroke="black" points="450.48,-1055.08 454.43,-1045.24 445.21,-1050.47 450.48,-1055.08"/>
</g>
<!-- layer_0_7&#45;&gt;layer_0_8 -->
<g id="edge34" class="edge">
<title>layer_0_7&#45;&gt;layer_0_8</title>
<path fill="none" stroke="black" d="M438.76,-1079.7C445.95,-1071.73 453.87,-1062.1 460.55,-1053.26"/>
<polygon fill="black" stroke="black" points="463.27,-1055.47 466.32,-1045.33 457.61,-1051.36 463.27,-1055.47"/>
</g>
<!-- layer_0_8&#45;&gt;layer_0_9 -->
<g id="edge37" class="edge">
<title>layer_0_8&#45;&gt;layer_0_9</title>
<path fill="none" stroke="black" d="M482.93,-1007.7C488.6,-999.56 496.29,-989.69 503.91,-980.7"/>
<polygon fill="black" stroke="black" points="506.48,-983.08 510.43,-973.24 501.21,-978.47 506.48,-983.08"/>
</g>
<!-- layer_0_8&#45;&gt;layer_0_9 -->
<g id="edge38" class="edge">
<title>layer_0_8&#45;&gt;layer_0_9</title>
<path fill="none" stroke="black" d="M494.76,-1007.7C501.95,-999.73 509.87,-990.1 516.55,-981.26"/>
<polygon fill="black" stroke="black" points="519.27,-983.47 522.32,-973.33 513.61,-979.36 519.27,-983.47"/>
</g>
<!-- layer_0_9&#45;&gt;layer_0_10 -->
<g id="edge41" class="edge">
<title>layer_0_9&#45;&gt;layer_0_10</title>
<path fill="none" stroke="black" d="M538.19,-935.7C543.51,-927.56 550.77,-917.69 558.01,-908.7"/>
<polygon fill="black" stroke="black" points="560.48,-911.2 564.19,-901.27 555.1,-906.72 560.48,-911.2"/>
</g>
<!-- layer_0_9&#45;&gt;layer_0_10 -->
<g id="edge42" class="edge">
<title>layer_0_9&#45;&gt;layer_0_10</title>
<path fill="none" stroke="black" d="M550.02,-935.7C556.8,-927.81 564.22,-918.3 570.47,-909.55"/>
<polygon fill="black" stroke="black" points="573.32,-911.58 576.09,-901.35 567.55,-907.62 573.32,-911.58"/>
</g>
<!-- layer_0_10&#45;&gt;layer_0_11 -->
<g id="edge45" class="edge">
<title>layer_0_10&#45;&gt;layer_0_11</title>
<path fill="none" stroke="black" d="M591.93,-863.7C597.6,-855.56 605.29,-845.69 612.91,-836.7"/>
<polygon fill="black" stroke="black" points="615.48,-839.08 619.43,-829.24 610.21,-834.47 615.48,-839.08"/>
</g>
<!-- layer_0_10&#45;&gt;layer_0_11 -->
<g id="edge46" class="edge">
<title>layer_0_10&#45;&gt;layer_0_11</title>
<path fill="none" stroke="black" d="M603.76,-863.7C610.95,-855.73 618.87,-846.1 625.55,-837.26"/>
<polygon fill="black" stroke="black" points="628.27,-839.47 631.32,-829.33 622.61,-835.36 628.27,-839.47"/>
</g>
<!-- layer_0_11&#45;&gt;layer_0_12 -->
<g id="edge49" class="edge">
<title>layer_0_11&#45;&gt;layer_0_12</title>
<path fill="none" stroke="black" d="M647.93,-791.7C653.6,-783.56 661.29,-773.69 668.91,-764.7"/>
<polygon fill="black" stroke="black" points="671.48,-767.08 675.43,-757.24 666.21,-762.47 671.48,-767.08"/>
</g>
<!-- layer_0_11&#45;&gt;layer_0_12 -->
<g id="edge50" class="edge">
<title>layer_0_11&#45;&gt;layer_0_12</title>
<path fill="none" stroke="black" d="M659.76,-791.7C666.95,-783.73 674.87,-774.1 681.55,-765.26"/>
<polygon fill="black" stroke="black" points="684.27,-767.47 687.32,-757.33 678.61,-763.36 684.27,-767.47"/>
</g>
<!-- layer_0_12&#45;&gt;layer_0_13 -->
<g id="edge53" class="edge">
<title>layer_0_12&#45;&gt;layer_0_13</title>
<path fill="none" stroke="black" d="M703.93,-719.7C709.6,-711.56 717.29,-701.69 724.91,-692.7"/>
<polygon fill="black" stroke="black" points="727.48,-695.08 731.43,-685.24 722.21,-690.47 727.48,-695.08"/>
</g>
<!-- layer_0_12&#45;&gt;layer_0_13 -->
<g id="edge54" class="edge">
<title>layer_0_12&#45;&gt;layer_0_13</title>
<path fill="none" stroke="black" d="M715.76,-719.7C722.95,-711.73 730.87,-702.1 737.55,-693.26"/>
<polygon fill="black" stroke="black" points="740.27,-695.47 743.32,-685.33 734.61,-691.36 740.27,-695.47"/>
</g>
<!-- layer_0_13&#45;&gt;layer_0_14 -->
<g id="edge57" class="edge">
<title>layer_0_13&#45;&gt;layer_0_14</title>
<path fill="none" stroke="black" d="M759.93,-647.7C765.6,-639.56 773.29,-629.69 780.91,-620.7"/>
<polygon fill="black" stroke="black" points="783.48,-623.08 787.43,-613.24 778.21,-618.47 783.48,-623.08"/>
</g>
<!-- layer_0_13&#45;&gt;layer_0_14 -->
<g id="edge58" class="edge">
<title>layer_0_13&#45;&gt;layer_0_14</title>
<path fill="none" stroke="black" d="M771.76,-647.7C778.95,-639.73 786.87,-630.1 793.55,-621.26"/>
<polygon fill="black" stroke="black" points="796.27,-623.47 799.32,-613.33 790.61,-619.36 796.27,-623.47"/>
</g>
<!-- layer_0_14&#45;&gt;layer_0_15 -->
<g id="edge61" class="edge">
<title>layer_0_14&#45;&gt;layer_0_15</title>
<path fill="none" stroke="black" d="M815.93,-575.7C821.6,-567.56 829.29,-557.69 836.91,-548.7"/>
<polygon fill="black" stroke="black" points="839.48,-551.08 843.43,-541.24 834.21,-546.47 839.48,-551.08"/>
</g>
<!-- layer_0_14&#45;&gt;layer_0_15 -->
<g id="edge62" class="edge">
<title>layer_0_14&#45;&gt;layer_0_15</title>
<path fill="none" stroke="black" d="M827.76,-575.7C834.95,-567.73 842.87,-558.1 849.55,-549.26"/>
<polygon fill="black" stroke="black" points="852.27,-551.47 855.32,-541.33 846.61,-547.36 852.27,-551.47"/>
</g>
<!-- layer_0_15&#45;&gt;layer_0_16 -->
<g id="edge65" class="edge">
<title>layer_0_15&#45;&gt;layer_0_16</title>
<path fill="none" stroke="black" d="M871.93,-503.7C877.6,-495.56 885.29,-485.69 892.91,-476.7"/>
<polygon fill="black" stroke="black" points="895.48,-479.08 899.43,-469.24 890.21,-474.47 895.48,-479.08"/>
</g>
<!-- layer_0_15&#45;&gt;layer_0_16 -->
<g id="edge66" class="edge">
<title>layer_0_15&#45;&gt;layer_0_16</title>
<path fill="none" stroke="black" d="M883.76,-503.7C890.95,-495.73 898.87,-486.1 905.55,-477.26"/>
<polygon fill="black" stroke="black" points="908.27,-479.47 911.32,-469.33 902.61,-475.36 908.27,-479.47"/>
</g>
<!-- layer_0_16&#45;&gt;layer_0_17 -->
<g id="edge69" class="edge">
<title>layer_0_16&#45;&gt;layer_0_17</title>
<path fill="none" stroke="black" d="M927.93,-431.7C933.6,-423.56 941.29,-413.69 948.91,-404.7"/>
<polygon fill="black" stroke="black" points="951.48,-407.08 955.43,-397.24 946.21,-402.47 951.48,-407.08"/>
</g>
<!-- layer_0_16&#45;&gt;layer_0_17 -->
<g id="edge70" class="edge">
<title>layer_0_16&#45;&gt;layer_0_17</title>
<path fill="none" stroke="black" d="M939.76,-431.7C946.95,-423.73 954.87,-414.1 961.55,-405.26"/>
<polygon fill="black" stroke="black" points="964.27,-407.47 967.32,-397.33 958.61,-403.36 964.27,-407.47"/>
</g>
<!-- layer_0_17&#45;&gt;layer_0_18 -->
<g id="edge73" class="edge">
<title>layer_0_17&#45;&gt;layer_0_18</title>
<path fill="none" stroke="black" d="M983.93,-359.7C989.6,-351.56 997.29,-341.69 1004.91,-332.7"/>
<polygon fill="black" stroke="black" points="1007.48,-335.08 1011.43,-325.24 1002.21,-330.47 1007.48,-335.08"/>
</g>
<!-- layer_0_17&#45;&gt;layer_0_18 -->
<g id="edge74" class="edge">
<title>layer_0_17&#45;&gt;layer_0_18</title>
<path fill="none" stroke="black" d="M995.76,-359.7C1002.95,-351.73 1010.87,-342.1 1017.55,-333.26"/>
<polygon fill="black" stroke="black" points="1020.27,-335.47 1023.32,-325.33 1014.61,-331.36 1020.27,-335.47"/>
</g>
<!-- layer_0_18&#45;&gt;layer_0_19 -->
<g id="edge77" class="edge">
<title>layer_0_18&#45;&gt;layer_0_19</title>
<path fill="none" stroke="black" d="M1039.93,-287.7C1045.6,-279.56 1053.29,-269.69 1060.91,-260.7"/>
<polygon fill="black" stroke="black" points="1063.48,-263.08 1067.43,-253.24 1058.21,-258.47 1063.48,-263.08"/>
</g>
<!-- layer_0_18&#45;&gt;layer_0_19 -->
<g id="edge78" class="edge">
<title>layer_0_18&#45;&gt;layer_0_19</title>
<path fill="none" stroke="black" d="M1051.76,-287.7C1058.95,-279.73 1066.87,-270.1 1073.55,-261.26"/>
<polygon fill="black" stroke="black" points="1076.27,-263.47 1079.32,-253.33 1070.61,-259.36 1076.27,-263.47"/>
</g>
<!-- layer_0_19&#45;&gt;layer_0_20 -->
<g id="edge81" class="edge">
<title>layer_0_19&#45;&gt;layer_0_20</title>
<path fill="none" stroke="black" d="M1095.93,-215.7C1101.6,-207.56 1109.29,-197.69 1116.91,-188.7"/>
<polygon fill="black" stroke="black" points="1119.48,-191.08 1123.43,-181.24 1114.21,-186.47 1119.48,-191.08"/>
</g>
<!-- layer_0_19&#45;&gt;layer_0_20 -->
<g id="edge82" class="edge">
<title>layer_0_19&#45;&gt;layer_0_20</title>
<path fill="none" stroke="black" d="M1107.76,-215.7C1114.95,-207.73 1122.87,-198.1 1129.55,-189.26"/>
<polygon fill="black" stroke="black" points="1132.27,-191.47 1135.32,-181.33 1126.61,-187.36 1132.27,-191.47"/>
</g>
<!-- layer_0_20&#45;&gt;layer_0_21 -->
<g id="edge85" class="edge">
<title>layer_0_20&#45;&gt;layer_0_21</title>
<path fill="none" stroke="black" d="M1146.24,-143.7C1149.08,-135.98 1153.23,-126.71 1157.62,-118.11"/>
<polygon fill="black" stroke="black" points="1160.64,-119.9 1162.32,-109.44 1154.48,-116.56 1160.64,-119.9"/>
</g>
<!-- layer_0_20&#45;&gt;layer_0_21 -->
<g id="edge86" class="edge">
<title>layer_0_20&#45;&gt;layer_0_21</title>
<path fill="none" stroke="black" d="M1158.07,-143.7C1162.41,-136.15 1166.9,-127.12 1170.57,-118.68"/>
<polygon fill="black" stroke="black" points="1173.77,-120.09 1174.27,-109.51 1167.28,-117.47 1173.77,-120.09"/>
</g>
<!-- layer_0_22 -->
<g id="node24" class="node">
<title>layer_0_22</title>
<g id="a_node24"><a xlink:href="layer_22_data_0_detail.svg" xlink:title="layer 22" target="_blank">
<polygon fill="lightyellow" stroke="black" points="1207.12,-36 1146.88,-36 1146.88,0 1207.12,0 1207.12,-36"/>
<text text-anchor="middle" x="1177" y="-12.95" font-family="Times New Roman,serif" font-size="14.00">layer 22</text>
</a>
</g>
</g>
<!-- layer_0_21&#45;&gt;layer_0_22 -->
<g id="edge89" class="edge">
<title>layer_0_21&#45;&gt;layer_0_22</title>
<path fill="none" stroke="black" d="M1171.08,-71.7C1170.33,-64.41 1170.09,-55.73 1170.35,-47.54"/>
<polygon fill="black" stroke="black" points="1173.84,-47.82 1171.01,-37.61 1166.86,-47.36 1173.84,-47.82"/>
</g>
<!-- layer_0_21&#45;&gt;layer_0_22 -->
<g id="edge90" class="edge">
<title>layer_0_21&#45;&gt;layer_0_22</title>
<path fill="none" stroke="black" d="M1182.92,-71.7C1183.67,-64.41 1183.91,-55.73 1183.65,-47.54"/>
<polygon fill="black" stroke="black" points="1187.14,-47.36 1182.99,-37.61 1180.16,-47.82 1187.14,-47.36"/>
</g>
</g>
</svg>
