<?xml version="1.0" encoding="UTF-8" standalone="no"?>
<!DOCTYPE svg PUBLIC "-//W3C//DTD SVG 1.1//EN"
 "http://www.w3.org/Graphics/SVG/1.1/DTD/svg11.dtd">
<!-- Generated by graphviz version 12.2.1 (20241206.2353)
 -->
<!-- Pages: 1 -->
<svg width="470pt" height="203pt"
 viewBox="0.00 0.00 470.25 203.00" xmlns="http://www.w3.org/2000/svg" xmlns:xlink="http://www.w3.org/1999/xlink">
<g id="graph0" class="graph" transform="scale(1 1) rotate(0) translate(4 199)">
<polygon fill="white" stroke="none" points="-4,4 -4,-199 466.25,-199 466.25,4 -4,4"/>
<!-- 2568757693456 -->
<g id="node1" class="node">
<title>2568757693456</title>
<polygon fill="lightblue" stroke="black" points="272.12,-195 190.12,-195 190.12,-154 272.12,-154 272.12,-195"/>
<text text-anchor="middle" x="231.12" y="-177.7" font-family="Times New Roman,serif" font-size="14.00">ScatterInput</text>
<text text-anchor="middle" x="231.12" y="-161.2" font-family="Times New Roman,serif" font-size="14.00">(Scatter)</text>
</g>
<!-- gpu_0 -->
<g id="node3" class="node">
<title>gpu_0</title>
<g id="a_node3"><a xlink:href="gpu_0_detail.svg" xlink:title="GPU 0&#10;(ReplicaModel)" target="_blank">
<polygon fill="lightgray" stroke="black" points="102.25,-118 4,-118 0,-114 0,-77 98.25,-77 102.25,-81 102.25,-118"/>
<polyline fill="none" stroke="black" points="98.25,-114 0,-114"/>
<polyline fill="none" stroke="black" points="98.25,-114 98.25,-77"/>
<polyline fill="none" stroke="black" points="98.25,-114 102.25,-118"/>
<text text-anchor="middle" x="51.12" y="-100.7" font-family="Times New Roman,serif" font-size="14.00">GPU 0</text>
<text text-anchor="middle" x="51.12" y="-84.2" font-family="Times New Roman,serif" font-size="14.00">(ReplicaModel)</text>
</a>
</g>
</g>
<!-- 2568757693456&#45;&gt;gpu_0 -->
<g id="edge1" class="edge">
<title>2568757693456&#45;&gt;gpu_0</title>
<path fill="none" stroke="black" d="M189.83,-156.29C166.02,-146.37 135.7,-133.74 109.49,-122.82"/>
<polygon fill="black" stroke="black" points="110.89,-119.61 100.31,-118.99 108.2,-126.07 110.89,-119.61"/>
</g>
<!-- gpu_1 -->
<g id="node4" class="node">
<title>gpu_1</title>
<g id="a_node4"><a xlink:href="gpu_1_detail.svg" xlink:title="GPU 1&#10;(ReplicaModel)" target="_blank">
<polygon fill="lightgray" stroke="black" points="222.25,-118 124,-118 120,-114 120,-77 218.25,-77 222.25,-81 222.25,-118"/>
<polyline fill="none" stroke="black" points="218.25,-114 120,-114"/>
<polyline fill="none" stroke="black" points="218.25,-114 218.25,-77"/>
<polyline fill="none" stroke="black" points="218.25,-114 222.25,-118"/>
<text text-anchor="middle" x="171.12" y="-100.7" font-family="Times New Roman,serif" font-size="14.00">GPU 1</text>
<text text-anchor="middle" x="171.12" y="-84.2" font-family="Times New Roman,serif" font-size="14.00">(ReplicaModel)</text>
</a>
</g>
</g>
<!-- 2568757693456&#45;&gt;gpu_1 -->
<g id="edge3" class="edge">
<title>2568757693456&#45;&gt;gpu_1</title>
<path fill="none" stroke="black" d="M215.36,-153.79C208.87,-145.68 201.21,-136.11 194.12,-127.24"/>
<polygon fill="black" stroke="black" points="196.92,-125.14 187.94,-119.52 191.45,-129.51 196.92,-125.14"/>
</g>
<!-- gpu_2 -->
<g id="node5" class="node">
<title>gpu_2</title>
<g id="a_node5"><a xlink:href="gpu_2_detail.svg" xlink:title="GPU 2&#10;(ReplicaModel)" target="_blank">
<polygon fill="lightgray" stroke="black" points="342.25,-118 244,-118 240,-114 240,-77 338.25,-77 342.25,-81 342.25,-118"/>
<polyline fill="none" stroke="black" points="338.25,-114 240,-114"/>
<polyline fill="none" stroke="black" points="338.25,-114 338.25,-77"/>
<polyline fill="none" stroke="black" points="338.25,-114 342.25,-118"/>
<text text-anchor="middle" x="291.12" y="-100.7" font-family="Times New Roman,serif" font-size="14.00">GPU 2</text>
<text text-anchor="middle" x="291.12" y="-84.2" font-family="Times New Roman,serif" font-size="14.00">(ReplicaModel)</text>
</a>
</g>
</g>
<!-- 2568757693456&#45;&gt;gpu_2 -->
<g id="edge5" class="edge">
<title>2568757693456&#45;&gt;gpu_2</title>
<path fill="none" stroke="black" d="M246.89,-153.79C253.38,-145.68 261.04,-136.11 268.13,-127.24"/>
<polygon fill="black" stroke="black" points="270.8,-129.51 274.31,-119.52 265.33,-125.14 270.8,-129.51"/>
</g>
<!-- gpu_3 -->
<g id="node6" class="node">
<title>gpu_3</title>
<g id="a_node6"><a xlink:href="gpu_3_detail.svg" xlink:title="GPU 3&#10;(ReplicaModel)" target="_blank">
<polygon fill="lightgray" stroke="black" points="462.25,-118 364,-118 360,-114 360,-77 458.25,-77 462.25,-81 462.25,-118"/>
<polyline fill="none" stroke="black" points="458.25,-114 360,-114"/>
<polyline fill="none" stroke="black" points="458.25,-114 458.25,-77"/>
<polyline fill="none" stroke="black" points="458.25,-114 462.25,-118"/>
<text text-anchor="middle" x="411.12" y="-100.7" font-family="Times New Roman,serif" font-size="14.00">GPU 3</text>
<text text-anchor="middle" x="411.12" y="-84.2" font-family="Times New Roman,serif" font-size="14.00">(ReplicaModel)</text>
</a>
</g>
</g>
<!-- 2568757693456&#45;&gt;gpu_3 -->
<g id="edge7" class="edge">
<title>2568757693456&#45;&gt;gpu_3</title>
<path fill="none" stroke="black" d="M272.42,-156.29C296.23,-146.37 326.55,-133.74 352.76,-122.82"/>
<polygon fill="black" stroke="black" points="354.05,-126.07 361.94,-118.99 351.36,-119.61 354.05,-126.07"/>
</g>
<!-- 2568896459200 -->
<g id="node2" class="node">
<title>2568896459200</title>
<polygon fill="lightblue" stroke="black" points="281.5,-41 180.75,-41 180.75,0 281.5,0 281.5,-41"/>
<text text-anchor="middle" x="231.12" y="-23.7" font-family="Times New Roman,serif" font-size="14.00">AllReduceGrad</text>
<text text-anchor="middle" x="231.12" y="-7.2" font-family="Times New Roman,serif" font-size="14.00">(AllReduce)</text>
</g>
<!-- gpu_0&#45;&gt;2568896459200 -->
<g id="edge2" class="edge">
<title>gpu_0&#45;&gt;2568896459200</title>
<path fill="none" stroke="black" d="M98.89,-76.6C121.57,-67.15 148.88,-55.77 172.78,-45.81"/>
<polygon fill="black" stroke="black" points="173.86,-49.15 181.74,-42.08 171.16,-42.69 173.86,-49.15"/>
</g>
<!-- gpu_1&#45;&gt;2568896459200 -->
<g id="edge4" class="edge">
<title>gpu_1&#45;&gt;2568896459200</title>
<path fill="none" stroke="black" d="M186.89,-76.79C193.38,-68.68 201.04,-59.11 208.13,-50.24"/>
<polygon fill="black" stroke="black" points="210.8,-52.51 214.31,-42.52 205.33,-48.14 210.8,-52.51"/>
</g>
<!-- gpu_2&#45;&gt;2568896459200 -->
<g id="edge6" class="edge">
<title>gpu_2&#45;&gt;2568896459200</title>
<path fill="none" stroke="black" d="M275.36,-76.79C268.87,-68.68 261.21,-59.11 254.12,-50.24"/>
<polygon fill="black" stroke="black" points="256.92,-48.14 247.94,-42.52 251.45,-52.51 256.92,-48.14"/>
</g>
<!-- gpu_3&#45;&gt;2568896459200 -->
<g id="edge8" class="edge">
<title>gpu_3&#45;&gt;2568896459200</title>
<path fill="none" stroke="black" d="M363.36,-76.6C340.68,-67.15 313.37,-55.77 289.47,-45.81"/>
<polygon fill="black" stroke="black" points="291.09,-42.69 280.51,-42.08 288.39,-49.15 291.09,-42.69"/>
</g>
</g>
</svg>
