<?xml version="1.0" encoding="UTF-8" standalone="no"?>
<!DOCTYPE svg PUBLIC "-//W3C//DTD SVG 1.1//EN"
 "http://www.w3.org/Graphics/SVG/1.1/DTD/svg11.dtd">
<!-- Generated by graphviz version 12.2.1 (20241206.2353)
 -->
<!-- Pages: 1 -->
<svg width="350pt" height="203pt"
 viewBox="0.00 0.00 350.25 203.00" xmlns="http://www.w3.org/2000/svg" xmlns:xlink="http://www.w3.org/1999/xlink">
<g id="graph0" class="graph" transform="scale(1 1) rotate(0) translate(4 199)">
<polygon fill="white" stroke="none" points="-4,4 -4,-199 346.25,-199 346.25,4 -4,4"/>
<!-- 2309204524864 -->
<g id="node1" class="node">
<title>2309204524864</title>
<polygon fill="lightblue" stroke="black" points="212.12,-195 130.12,-195 130.12,-154 212.12,-154 212.12,-195"/>
<text text-anchor="middle" x="171.12" y="-177.7" font-family="Times New Roman,serif" font-size="14.00">ScatterInput</text>
<text text-anchor="middle" x="171.12" y="-161.2" font-family="Times New Roman,serif" font-size="14.00">(Scatter)</text>
</g>
<!-- gpu_0 -->
<g id="node3" class="node">
<title>gpu_0</title>
<g id="a_node3"><a xlink:href="gpu_0_detail.svg" xlink:title="GPU 0&#10;(ReplicaModel)" target="_blank">
<polygon fill="lightgray" stroke="black" points="102.25,-118 4,-118 0,-114 0,-77 98.25,-77 102.25,-81 102.25,-118"/>
<polyline fill="none" stroke="black" points="98.25,-114 0,-114"/>
<polyline fill="none" stroke="black" points="98.25,-114 98.25,-77"/>
<polyline fill="none" stroke="black" points="98.25,-114 102.25,-118"/>
<text text-anchor="middle" x="51.12" y="-100.7" font-family="Times New Roman,serif" font-size="14.00">GPU 0</text>
<text text-anchor="middle" x="51.12" y="-84.2" font-family="Times New Roman,serif" font-size="14.00">(ReplicaModel)</text>
</a>
</g>
</g>
<!-- 2309204524864&#45;&gt;gpu_0 -->
<g id="edge1" class="edge">
<title>2309204524864&#45;&gt;gpu_0</title>
<path fill="none" stroke="black" d="M139.28,-153.6C125.04,-144.7 108.07,-134.09 92.83,-124.57"/>
<polygon fill="black" stroke="black" points="94.74,-121.63 84.4,-119.3 91.03,-127.56 94.74,-121.63"/>
</g>
<!-- gpu_1 -->
<g id="node4" class="node">
<title>gpu_1</title>
<g id="a_node4"><a xlink:href="gpu_1_detail.svg" xlink:title="GPU 1&#10;(ReplicaModel)" target="_blank">
<polygon fill="lightgray" stroke="black" points="222.25,-118 124,-118 120,-114 120,-77 218.25,-77 222.25,-81 222.25,-118"/>
<polyline fill="none" stroke="black" points="218.25,-114 120,-114"/>
<polyline fill="none" stroke="black" points="218.25,-114 218.25,-77"/>
<polyline fill="none" stroke="black" points="218.25,-114 222.25,-118"/>
<text text-anchor="middle" x="171.12" y="-100.7" font-family="Times New Roman,serif" font-size="14.00">GPU 1</text>
<text text-anchor="middle" x="171.12" y="-84.2" font-family="Times New Roman,serif" font-size="14.00">(ReplicaModel)</text>
</a>
</g>
</g>
<!-- 2309204524864&#45;&gt;gpu_1 -->
<g id="edge3" class="edge">
<title>2309204524864&#45;&gt;gpu_1</title>
<path fill="none" stroke="black" d="M171.12,-153.79C171.12,-146.45 171.12,-137.91 171.12,-129.78"/>
<polygon fill="black" stroke="black" points="174.63,-129.85 171.13,-119.85 167.63,-129.85 174.63,-129.85"/>
</g>
<!-- gpu_2 -->
<g id="node5" class="node">
<title>gpu_2</title>
<g id="a_node5"><a xlink:href="gpu_2_detail.svg" xlink:title="GPU 2&#10;(ReplicaModel)" target="_blank">
<polygon fill="lightgray" stroke="black" points="342.25,-118 244,-118 240,-114 240,-77 338.25,-77 342.25,-81 342.25,-118"/>
<polyline fill="none" stroke="black" points="338.25,-114 240,-114"/>
<polyline fill="none" stroke="black" points="338.25,-114 338.25,-77"/>
<polyline fill="none" stroke="black" points="338.25,-114 342.25,-118"/>
<text text-anchor="middle" x="291.12" y="-100.7" font-family="Times New Roman,serif" font-size="14.00">GPU 2</text>
<text text-anchor="middle" x="291.12" y="-84.2" font-family="Times New Roman,serif" font-size="14.00">(ReplicaModel)</text>
</a>
</g>
</g>
<!-- 2309204524864&#45;&gt;gpu_2 -->
<g id="edge5" class="edge">
<title>2309204524864&#45;&gt;gpu_2</title>
<path fill="none" stroke="black" d="M202.97,-153.6C217.21,-144.7 234.18,-134.09 249.42,-124.57"/>
<polygon fill="black" stroke="black" points="251.22,-127.56 257.85,-119.3 247.51,-121.63 251.22,-127.56"/>
</g>
<!-- 2309619343520 -->
<g id="node2" class="node">
<title>2309619343520</title>
<polygon fill="lightblue" stroke="black" points="221.5,-41 120.75,-41 120.75,0 221.5,0 221.5,-41"/>
<text text-anchor="middle" x="171.12" y="-23.7" font-family="Times New Roman,serif" font-size="14.00">AllReduceGrad</text>
<text text-anchor="middle" x="171.12" y="-7.2" font-family="Times New Roman,serif" font-size="14.00">(AllReduce)</text>
</g>
<!-- gpu_0&#45;&gt;2309619343520 -->
<g id="edge2" class="edge">
<title>gpu_0&#45;&gt;2309619343520</title>
<path fill="none" stroke="black" d="M82.97,-76.6C97.21,-67.7 114.18,-57.09 129.42,-47.57"/>
<polygon fill="black" stroke="black" points="131.22,-50.56 137.85,-42.3 127.51,-44.63 131.22,-50.56"/>
</g>
<!-- gpu_1&#45;&gt;2309619343520 -->
<g id="edge4" class="edge">
<title>gpu_1&#45;&gt;2309619343520</title>
<path fill="none" stroke="black" d="M171.12,-76.79C171.12,-69.45 171.12,-60.91 171.12,-52.78"/>
<polygon fill="black" stroke="black" points="174.63,-52.85 171.13,-42.85 167.63,-52.85 174.63,-52.85"/>
</g>
<!-- gpu_2&#45;&gt;2309619343520 -->
<g id="edge6" class="edge">
<title>gpu_2&#45;&gt;2309619343520</title>
<path fill="none" stroke="black" d="M259.28,-76.6C245.04,-67.7 228.07,-57.09 212.83,-47.57"/>
<polygon fill="black" stroke="black" points="214.74,-44.63 204.4,-42.3 211.03,-50.56 214.74,-44.63"/>
</g>
</g>
</svg>
