<?xml version="1.0" encoding="UTF-8" standalone="no"?>
<!DOCTYPE svg PUBLIC "-//W3C//DTD SVG 1.1//EN"
 "http://www.w3.org/Graphics/SVG/1.1/DTD/svg11.dtd">
<!-- Generated by graphviz version 12.2.1 (20241206.2353)
 -->
<!-- Pages: 1 -->
<svg width="712pt" height="1145pt"
 viewBox="0.00 0.00 712.39 1145.17" xmlns="http://www.w3.org/2000/svg" xmlns:xlink="http://www.w3.org/1999/xlink">
<g id="graph0" class="graph" transform="scale(1 1) rotate(0) translate(4 1141.17)">
<polygon fill="white" stroke="none" points="-4,4 -4,-1141.17 708.39,-1141.17 708.39,4 -4,4"/>
<!-- 1593302349376 -->
<g id="node1" class="node">
<title>1593302349376</title>
<ellipse fill="none" stroke="black" cx="427.32" cy="-1096.51" rx="185.79" ry="40.66"/>
<text text-anchor="middle" x="427.32" y="-1107.96" font-family="Times New Roman,serif" font-size="14.00">/model/layers.0/input_layernorm/LayerNorm</text>
<text text-anchor="middle" x="427.32" y="-1091.46" font-family="Times New Roman,serif" font-size="14.00">(SimplifiedLayerNormalization</text>
<text text-anchor="middle" x="427.32" y="-1074.96" font-family="Times New Roman,serif" font-size="14.00">layer: 0)</text>
</g>
<!-- 1593302349328 -->
<g id="node2" class="node">
<title>1593302349328</title>
<ellipse fill="none" stroke="black" cx="427.32" cy="-979.2" rx="176.78" ry="40.66"/>
<text text-anchor="middle" x="427.32" y="-990.65" font-family="Times New Roman,serif" font-size="14.00">/model/layers.0/attn/qkv_proj/MatMul_Q4</text>
<text text-anchor="middle" x="427.32" y="-974.15" font-family="Times New Roman,serif" font-size="14.00">(MatMulNBits</text>
<text text-anchor="middle" x="427.32" y="-957.65" font-family="Times New Roman,serif" font-size="14.00">layer: 0)</text>
</g>
<!-- 1593302349376&#45;&gt;1593302349328 -->
<g id="edge1" class="edge">
<title>1593302349376&#45;&gt;1593302349328</title>
<path fill="none" stroke="black" d="M427.32,-1055.51C427.32,-1047.72 427.32,-1039.47 427.32,-1031.38"/>
<polygon fill="black" stroke="black" points="430.82,-1031.65 427.32,-1021.65 423.82,-1031.65 430.82,-1031.65"/>
</g>
<!-- 1593302349472 -->
<g id="node3" class="node">
<title>1593302349472</title>
<ellipse fill="none" stroke="black" cx="427.32" cy="-861.88" rx="175.19" ry="40.66"/>
<text text-anchor="middle" x="427.32" y="-873.33" font-family="Times New Roman,serif" font-size="14.00">/model/layers.0/attn/GroupQueryAttention</text>
<text text-anchor="middle" x="427.32" y="-856.83" font-family="Times New Roman,serif" font-size="14.00">(GroupQueryAttention</text>
<text text-anchor="middle" x="427.32" y="-840.33" font-family="Times New Roman,serif" font-size="14.00">layer: 0)</text>
</g>
<!-- 1593302349328&#45;&gt;1593302349472 -->
<g id="edge2" class="edge">
<title>1593302349328&#45;&gt;1593302349472</title>
<path fill="none" stroke="black" d="M427.32,-938.19C427.32,-930.41 427.32,-922.15 427.32,-914.07"/>
<polygon fill="black" stroke="black" points="430.82,-914.33 427.32,-904.33 423.82,-914.33 430.82,-914.33"/>
</g>
<!-- 1593302349568 -->
<g id="node4" class="node">
<title>1593302349568</title>
<ellipse fill="none" stroke="black" cx="427.32" cy="-744.56" rx="167.23" ry="40.66"/>
<text text-anchor="middle" x="427.32" y="-756.01" font-family="Times New Roman,serif" font-size="14.00">/model/layers.0/attn/o_proj/MatMul_Q4</text>
<text text-anchor="middle" x="427.32" y="-739.51" font-family="Times New Roman,serif" font-size="14.00">(MatMulNBits</text>
<text text-anchor="middle" x="427.32" y="-723.01" font-family="Times New Roman,serif" font-size="14.00">layer: 0)</text>
</g>
<!-- 1593302349472&#45;&gt;1593302349568 -->
<g id="edge3" class="edge">
<title>1593302349472&#45;&gt;1593302349568</title>
<path fill="none" stroke="black" d="M427.32,-820.87C427.32,-813.09 427.32,-804.83 427.32,-796.75"/>
<polygon fill="black" stroke="black" points="430.82,-797.01 427.32,-787.01 423.82,-797.01 430.82,-797.01"/>
</g>
<!-- 1593302349520 -->
<g id="node5" class="node">
<title>1593302349520</title>
<ellipse fill="none" stroke="black" cx="427.32" cy="-627.25" rx="237.76" ry="40.66"/>
<text text-anchor="middle" x="427.32" y="-638.7" font-family="Times New Roman,serif" font-size="14.00">/model/layers.0/post_attention_layernorm/SkipLayerNorm</text>
<text text-anchor="middle" x="427.32" y="-622.2" font-family="Times New Roman,serif" font-size="14.00">(SkipSimplifiedLayerNormalization</text>
<text text-anchor="middle" x="427.32" y="-605.7" font-family="Times New Roman,serif" font-size="14.00">layer: 0)</text>
</g>
<!-- 1593302349568&#45;&gt;1593302349520 -->
<g id="edge4" class="edge">
<title>1593302349568&#45;&gt;1593302349520</title>
<path fill="none" stroke="black" d="M427.32,-703.55C427.32,-695.77 427.32,-687.52 427.32,-679.43"/>
<polygon fill="black" stroke="black" points="430.82,-679.7 427.32,-669.7 423.82,-679.7 430.82,-679.7"/>
</g>
<!-- 1593302349664 -->
<g id="node6" class="node">
<title>1593302349664</title>
<ellipse fill="none" stroke="black" cx="324.32" cy="-509.93" rx="179.43" ry="40.66"/>
<text text-anchor="middle" x="324.32" y="-521.38" font-family="Times New Roman,serif" font-size="14.00">/model/layers.0/mlp/gate_proj/MatMul_Q4</text>
<text text-anchor="middle" x="324.32" y="-504.88" font-family="Times New Roman,serif" font-size="14.00">(MatMulNBits</text>
<text text-anchor="middle" x="324.32" y="-488.38" font-family="Times New Roman,serif" font-size="14.00">layer: 0)</text>
</g>
<!-- 1593302349520&#45;&gt;1593302349664 -->
<g id="edge5" class="edge">
<title>1593302349520&#45;&gt;1593302349664</title>
<path fill="none" stroke="black" d="M391.87,-586.56C383.77,-577.48 375.07,-567.74 366.7,-558.37"/>
<polygon fill="black" stroke="black" points="369.42,-556.16 360.14,-551.03 364.2,-560.82 369.42,-556.16"/>
</g>
<!-- 1593302349616 -->
<g id="node7" class="node">
<title>1593302349616</title>
<ellipse fill="none" stroke="black" cx="531.32" cy="-392.61" rx="173.06" ry="40.66"/>
<text text-anchor="middle" x="531.32" y="-404.06" font-family="Times New Roman,serif" font-size="14.00">/model/layers.0/mlp/up_proj/MatMul_Q4</text>
<text text-anchor="middle" x="531.32" y="-387.56" font-family="Times New Roman,serif" font-size="14.00">(MatMulNBits</text>
<text text-anchor="middle" x="531.32" y="-371.06" font-family="Times New Roman,serif" font-size="14.00">layer: 0)</text>
</g>
<!-- 1593302349520&#45;&gt;1593302349616 -->
<g id="edge6" class="edge">
<title>1593302349520&#45;&gt;1593302349616</title>
<path fill="none" stroke="black" d="M482.66,-587.59C494.22,-576.91 505.09,-564.42 512.32,-550.59 529.26,-518.2 533.72,-477.04 534.1,-444.99"/>
<polygon fill="black" stroke="black" points="537.6,-445.13 534.07,-435.14 530.6,-445.15 537.6,-445.13"/>
</g>
<!-- 1593302442768 -->
<g id="node8" class="node">
<title>1593302442768</title>
<ellipse fill="none" stroke="black" cx="151.32" cy="-392.61" rx="151.32" ry="40.66"/>
<text text-anchor="middle" x="151.32" y="-404.06" font-family="Times New Roman,serif" font-size="14.00">/model/layers.0/mlp/act_fn/Sigmoid</text>
<text text-anchor="middle" x="151.32" y="-387.56" font-family="Times New Roman,serif" font-size="14.00">(Sigmoid</text>
<text text-anchor="middle" x="151.32" y="-371.06" font-family="Times New Roman,serif" font-size="14.00">layer: 0)</text>
</g>
<!-- 1593302349664&#45;&gt;1593302442768 -->
<g id="edge7" class="edge">
<title>1593302349664&#45;&gt;1593302442768</title>
<path fill="none" stroke="black" d="M267.67,-471.17C251.29,-460.25 233.29,-448.25 216.43,-437.01"/>
<polygon fill="black" stroke="black" points="218.73,-434.34 208.47,-431.7 214.85,-440.16 218.73,-434.34"/>
</g>
<!-- 1593302349184 -->
<g id="node9" class="node">
<title>1593302349184</title>
<ellipse fill="none" stroke="black" cx="330.32" cy="-275.29" rx="134.88" ry="40.66"/>
<text text-anchor="middle" x="330.32" y="-286.74" font-family="Times New Roman,serif" font-size="14.00">/model/layers.0/mlp/act_fn/Mul</text>
<text text-anchor="middle" x="330.32" y="-270.24" font-family="Times New Roman,serif" font-size="14.00">(Mul</text>
<text text-anchor="middle" x="330.32" y="-253.74" font-family="Times New Roman,serif" font-size="14.00">layer: 0)</text>
</g>
<!-- 1593302349664&#45;&gt;1593302349184 -->
<g id="edge8" class="edge">
<title>1593302349664&#45;&gt;1593302349184</title>
<path fill="none" stroke="black" d="M325.35,-468.94C326.36,-429.79 327.9,-369.98 329,-327.4"/>
<polygon fill="black" stroke="black" points="332.49,-327.75 329.25,-317.66 325.5,-327.57 332.49,-327.75"/>
</g>
<!-- 1593310080544 -->
<g id="node10" class="node">
<title>1593310080544</title>
<ellipse fill="none" stroke="black" cx="411.32" cy="-157.98" rx="108.36" ry="40.66"/>
<text text-anchor="middle" x="411.32" y="-169.43" font-family="Times New Roman,serif" font-size="14.00">/model/layers.0/mlp/Mul</text>
<text text-anchor="middle" x="411.32" y="-152.93" font-family="Times New Roman,serif" font-size="14.00">(Mul</text>
<text text-anchor="middle" x="411.32" y="-136.43" font-family="Times New Roman,serif" font-size="14.00">layer: 0)</text>
</g>
<!-- 1593302349616&#45;&gt;1593310080544 -->
<g id="edge11" class="edge">
<title>1593302349616&#45;&gt;1593310080544</title>
<path fill="none" stroke="black" d="M520.95,-351.57C511.51,-318.81 495.76,-271.97 474.32,-234.63 468.58,-224.64 461.49,-214.66 454.16,-205.38"/>
<polygon fill="black" stroke="black" points="457.09,-203.43 448.06,-197.89 451.66,-207.85 457.09,-203.43"/>
</g>
<!-- 1593302442768&#45;&gt;1593302349184 -->
<g id="edge9" class="edge">
<title>1593302442768&#45;&gt;1593302349184</title>
<path fill="none" stroke="black" d="M208.45,-354.81C226.31,-343.3 246.16,-330.51 264.57,-318.65"/>
<polygon fill="black" stroke="black" points="266.26,-321.73 272.77,-313.37 262.47,-315.84 266.26,-321.73"/>
</g>
<!-- 1593302349184&#45;&gt;1593310080544 -->
<g id="edge10" class="edge">
<title>1593302349184&#45;&gt;1593310080544</title>
<path fill="none" stroke="black" d="M357.74,-235.25C364.15,-226.14 371.04,-216.33 377.68,-206.88"/>
<polygon fill="black" stroke="black" points="380.45,-209.02 383.33,-198.82 374.72,-205 380.45,-209.02"/>
</g>
<!-- 1593310079296 -->
<g id="node11" class="node">
<title>1593310079296</title>
<ellipse fill="none" stroke="black" cx="411.32" cy="-40.66" rx="184.73" ry="40.66"/>
<text text-anchor="middle" x="411.32" y="-52.11" font-family="Times New Roman,serif" font-size="14.00">/model/layers.0/mlp/down_proj/MatMul_Q4</text>
<text text-anchor="middle" x="411.32" y="-35.61" font-family="Times New Roman,serif" font-size="14.00">(MatMulNBits</text>
<text text-anchor="middle" x="411.32" y="-19.11" font-family="Times New Roman,serif" font-size="14.00">layer: 0)</text>
</g>
<!-- 1593310080544&#45;&gt;1593310079296 -->
<g id="edge12" class="edge">
<title>1593310080544&#45;&gt;1593310079296</title>
<path fill="none" stroke="black" d="M411.32,-116.97C411.32,-109.19 411.32,-100.93 411.32,-92.84"/>
<polygon fill="black" stroke="black" points="414.82,-93.11 411.32,-83.11 407.82,-93.11 414.82,-93.11"/>
</g>
</g>
</svg>
