<?xml version="1.0" encoding="UTF-8" standalone="no"?>
<!DOCTYPE svg PUBLIC "-//W3C//DTD SVG 1.1//EN"
 "http://www.w3.org/Graphics/SVG/1.1/DTD/svg11.dtd">
<!-- Generated by graphviz version 12.2.1 (20241206.2353)
 -->
<!-- Pages: 1 -->
<svg width="1898pt" height="441pt"
 viewBox="0.00 0.00 1898.31 441.27" xmlns="http://www.w3.org/2000/svg" xmlns:xlink="http://www.w3.org/1999/xlink">
<g id="graph0" class="graph" transform="scale(1 1) rotate(0) translate(4 437.27)">
<polygon fill="white" stroke="none" points="-4,4 -4,-437.27 1894.31,-437.27 1894.31,4 -4,4"/>
<!-- 2537765990208 -->
<g id="node1" class="node">
<title>2537765990208</title>
<ellipse fill="none" stroke="black" cx="296.49" cy="-392.61" rx="199.05" ry="40.66"/>
<text text-anchor="middle" x="296.49" y="-404.06" font-family="Times New Roman,serif" font-size="14.00">/model/constant_nodes/TensorProto.INT64/1D/1</text>
<text text-anchor="middle" x="296.49" y="-387.56" font-family="Times New Roman,serif" font-size="14.00">(Constant</text>
<text text-anchor="middle" x="296.49" y="-371.06" font-family="Times New Roman,serif" font-size="14.00">layer: &#45;1)</text>
</g>
<!-- 2538043198672 -->
<g id="node2" class="node">
<title>2538043198672</title>
<ellipse fill="none" stroke="black" cx="250.49" cy="-275.29" rx="250.49" ry="40.66"/>
<text text-anchor="middle" x="250.49" y="-286.74" font-family="Times New Roman,serif" font-size="14.00">/model/attn_mask_reformat/attn_mask_subgraph/ReduceSum</text>
<text text-anchor="middle" x="250.49" y="-270.24" font-family="Times New Roman,serif" font-size="14.00">(ReduceSum</text>
<text text-anchor="middle" x="250.49" y="-253.74" font-family="Times New Roman,serif" font-size="14.00">layer: &#45;1)</text>
</g>
<!-- 2537765990208&#45;&gt;2538043198672 -->
<g id="edge1" class="edge">
<title>2537765990208&#45;&gt;2538043198672</title>
<path fill="none" stroke="black" d="M280.53,-351.6C277.36,-343.64 273.98,-335.18 270.69,-326.92"/>
<polygon fill="black" stroke="black" points="273.94,-325.63 266.98,-317.64 267.44,-328.22 273.94,-325.63"/>
</g>
<!-- 2538043198432 -->
<g id="node3" class="node">
<title>2538043198432</title>
<ellipse fill="none" stroke="black" cx="332.49" cy="-157.98" rx="218.67" ry="40.66"/>
<text text-anchor="middle" x="332.49" y="-169.43" font-family="Times New Roman,serif" font-size="14.00">/model/attn_mask_reformat/attn_mask_subgraph/Sub</text>
<text text-anchor="middle" x="332.49" y="-152.93" font-family="Times New Roman,serif" font-size="14.00">(Sub</text>
<text text-anchor="middle" x="332.49" y="-136.43" font-family="Times New Roman,serif" font-size="14.00">layer: &#45;1)</text>
</g>
<!-- 2537765990208&#45;&gt;2538043198432 -->
<g id="edge3" class="edge">
<title>2537765990208&#45;&gt;2538043198432</title>
<path fill="none" stroke="black" d="M445.33,-365.37C470.54,-354.22 493.65,-338.39 509.49,-315.95 530.34,-286.43 529.4,-264.8 509.49,-234.63 499.26,-219.13 485.12,-206.79 469.26,-196.98"/>
<polygon fill="black" stroke="black" points="471.46,-194.2 461.05,-192.24 467.97,-200.27 471.46,-194.2"/>
</g>
<!-- 2538043198672&#45;&gt;2538043198432 -->
<g id="edge2" class="edge">
<title>2538043198672&#45;&gt;2538043198432</title>
<path fill="none" stroke="black" d="M278.71,-234.61C284.83,-226 291.38,-216.8 297.71,-207.88"/>
<polygon fill="black" stroke="black" points="300.4,-210.15 303.34,-199.97 294.7,-206.09 300.4,-210.15"/>
</g>
<!-- 2538043198480 -->
<g id="node4" class="node">
<title>2538043198480</title>
<ellipse fill="none" stroke="black" cx="332.49" cy="-40.66" rx="238.29" ry="40.66"/>
<text text-anchor="middle" x="332.49" y="-52.11" font-family="Times New Roman,serif" font-size="14.00">/model/attn_mask_reformat/attn_mask_subgraph/Sub/Cast</text>
<text text-anchor="middle" x="332.49" y="-35.61" font-family="Times New Roman,serif" font-size="14.00">(Cast</text>
<text text-anchor="middle" x="332.49" y="-19.11" font-family="Times New Roman,serif" font-size="14.00">layer: &#45;1)</text>
</g>
<!-- 2538043198432&#45;&gt;2538043198480 -->
<g id="edge4" class="edge">
<title>2538043198432&#45;&gt;2538043198480</title>
<path fill="none" stroke="black" d="M332.49,-116.97C332.49,-109.19 332.49,-100.93 332.49,-92.84"/>
<polygon fill="black" stroke="black" points="335.99,-93.11 332.49,-83.11 328.99,-93.11 335.99,-93.11"/>
</g>
<!-- 2538043198576 -->
<g id="node5" class="node">
<title>2538043198576</title>
<ellipse fill="none" stroke="black" cx="763.49" cy="-392.61" rx="227.16" ry="40.66"/>
<text text-anchor="middle" x="763.49" y="-404.06" font-family="Times New Roman,serif" font-size="14.00">/model/attn_mask_reformat/attn_mask_subgraph/Shape</text>
<text text-anchor="middle" x="763.49" y="-387.56" font-family="Times New Roman,serif" font-size="14.00">(Shape</text>
<text text-anchor="middle" x="763.49" y="-371.06" font-family="Times New Roman,serif" font-size="14.00">layer: &#45;1)</text>
</g>
<!-- 2538193319392 -->
<g id="node7" class="node">
<title>2538193319392</title>
<ellipse fill="none" stroke="black" cx="900.49" cy="-275.29" rx="229.81" ry="40.66"/>
<text text-anchor="middle" x="900.49" y="-286.74" font-family="Times New Roman,serif" font-size="14.00">/model/attn_mask_reformat/attn_mask_subgraph/Gather</text>
<text text-anchor="middle" x="900.49" y="-270.24" font-family="Times New Roman,serif" font-size="14.00">(Gather</text>
<text text-anchor="middle" x="900.49" y="-253.74" font-family="Times New Roman,serif" font-size="14.00">layer: &#45;1)</text>
</g>
<!-- 2538043198576&#45;&gt;2538193319392 -->
<g id="edge5" class="edge">
<title>2538043198576&#45;&gt;2538193319392</title>
<path fill="none" stroke="black" d="M809.87,-352.57C821.37,-342.89 833.79,-332.44 845.65,-322.46"/>
<polygon fill="black" stroke="black" points="847.6,-325.39 853,-316.27 843.1,-320.03 847.6,-325.39"/>
</g>
<!-- 2538193319248 -->
<g id="node6" class="node">
<title>2538193319248</title>
<ellipse fill="none" stroke="black" cx="1207.49" cy="-392.61" rx="199.05" ry="40.66"/>
<text text-anchor="middle" x="1207.49" y="-404.06" font-family="Times New Roman,serif" font-size="14.00">/model/constant_nodes/TensorProto.INT64/0D/1</text>
<text text-anchor="middle" x="1207.49" y="-387.56" font-family="Times New Roman,serif" font-size="14.00">(Constant</text>
<text text-anchor="middle" x="1207.49" y="-371.06" font-family="Times New Roman,serif" font-size="14.00">layer: &#45;1)</text>
</g>
<!-- 2538193319248&#45;&gt;2538193319392 -->
<g id="edge6" class="edge">
<title>2538193319248&#45;&gt;2538193319392</title>
<path fill="none" stroke="black" d="M1113.71,-356.38C1080.24,-343.81 1042.27,-329.55 1007.74,-316.58"/>
<polygon fill="black" stroke="black" points="1009.15,-313.37 998.56,-313.13 1006.69,-319.92 1009.15,-313.37"/>
</g>
<!-- 2538193319536 -->
<g id="node8" class="node">
<title>2538193319536</title>
<ellipse fill="none" stroke="black" cx="900.49" cy="-157.98" rx="249.43" ry="40.66"/>
<text text-anchor="middle" x="900.49" y="-169.43" font-family="Times New Roman,serif" font-size="14.00">/model/attn_mask_reformat/attn_mask_subgraph/Gather/Cast</text>
<text text-anchor="middle" x="900.49" y="-152.93" font-family="Times New Roman,serif" font-size="14.00">(Cast</text>
<text text-anchor="middle" x="900.49" y="-136.43" font-family="Times New Roman,serif" font-size="14.00">layer: &#45;1)</text>
</g>
<!-- 2538193319392&#45;&gt;2538193319536 -->
<g id="edge7" class="edge">
<title>2538193319392&#45;&gt;2538193319536</title>
<path fill="none" stroke="black" d="M900.49,-234.28C900.49,-226.5 900.49,-218.25 900.49,-210.16"/>
<polygon fill="black" stroke="black" points="903.99,-210.43 900.49,-200.43 896.99,-210.43 903.99,-210.43"/>
</g>
<!-- 2538193319344 -->
<g id="node9" class="node">
<title>2538193319344</title>
<ellipse fill="none" stroke="black" cx="1549.49" cy="-392.61" rx="125.33" ry="40.66"/>
<text text-anchor="middle" x="1549.49" y="-404.06" font-family="Times New Roman,serif" font-size="14.00">/model/embed_tokens/Gather</text>
<text text-anchor="middle" x="1549.49" y="-387.56" font-family="Times New Roman,serif" font-size="14.00">(Gather</text>
<text text-anchor="middle" x="1549.49" y="-371.06" font-family="Times New Roman,serif" font-size="14.00">layer: &#45;1)</text>
</g>
<!-- 2536182974256 -->
<g id="node10" class="node">
<title>2536182974256</title>
<ellipse fill="none" stroke="black" cx="1791.49" cy="-392.61" rx="98.82" ry="40.66"/>
<text text-anchor="middle" x="1791.49" y="-404.06" font-family="Times New Roman,serif" font-size="14.00">/lm_head/MatMul_Q4</text>
<text text-anchor="middle" x="1791.49" y="-387.56" font-family="Times New Roman,serif" font-size="14.00">(MatMulNBits</text>
<text text-anchor="middle" x="1791.49" y="-371.06" font-family="Times New Roman,serif" font-size="14.00">layer: &#45;1)</text>
</g>
</g>
</svg>
