<?xml version="1.0" encoding="UTF-8" standalone="no"?>
<!DOCTYPE svg PUBLIC "-//W3C//DTD SVG 1.1//EN"
 "http://www.w3.org/Graphics/SVG/1.1/DTD/svg11.dtd">
<!-- Generated by graphviz version 12.2.1 (20241206.2353)
 -->
<!-- Pages: 1 -->
<svg width="712pt" height="1145pt"
 viewBox="0.00 0.00 712.39 1145.17" xmlns="http://www.w3.org/2000/svg" xmlns:xlink="http://www.w3.org/1999/xlink">
<g id="graph0" class="graph" transform="scale(1 1) rotate(0) translate(4 1141.17)">
<polygon fill="white" stroke="none" points="-4,4 -4,-1141.17 708.39,-1141.17 708.39,4 -4,4"/>
<!-- 1593310080352 -->
<g id="node1" class="node">
<title>1593310080352</title>
<ellipse fill="none" stroke="black" cx="426.32" cy="-1096.51" rx="203.29" ry="40.66"/>
<text text-anchor="middle" x="426.32" y="-1107.96" font-family="Times New Roman,serif" font-size="14.00">/model/layers.3/input_layernorm/SkipLayerNorm</text>
<text text-anchor="middle" x="426.32" y="-1091.46" font-family="Times New Roman,serif" font-size="14.00">(SkipSimplifiedLayerNormalization</text>
<text text-anchor="middle" x="426.32" y="-1074.96" font-family="Times New Roman,serif" font-size="14.00">layer: 3)</text>
</g>
<!-- 1593310080400 -->
<g id="node2" class="node">
<title>1593310080400</title>
<ellipse fill="none" stroke="black" cx="324.32" cy="-979.2" rx="176.78" ry="40.66"/>
<text text-anchor="middle" x="324.32" y="-990.65" font-family="Times New Roman,serif" font-size="14.00">/model/layers.3/attn/qkv_proj/MatMul_Q4</text>
<text text-anchor="middle" x="324.32" y="-974.15" font-family="Times New Roman,serif" font-size="14.00">(MatMulNBits</text>
<text text-anchor="middle" x="324.32" y="-957.65" font-family="Times New Roman,serif" font-size="14.00">layer: 3)</text>
</g>
<!-- 1593310080352&#45;&gt;1593310080400 -->
<g id="edge1" class="edge">
<title>1593310080352&#45;&gt;1593310080400</title>
<path fill="none" stroke="black" d="M391.5,-1056.15C383.46,-1047.06 374.82,-1037.29 366.5,-1027.89"/>
<polygon fill="black" stroke="black" points="369.23,-1025.69 359.98,-1020.52 363.99,-1030.33 369.23,-1025.69"/>
</g>
<!-- 1593310080976 -->
<g id="node5" class="node">
<title>1593310080976</title>
<ellipse fill="none" stroke="black" cx="427.32" cy="-627.25" rx="237.76" ry="40.66"/>
<text text-anchor="middle" x="427.32" y="-638.7" font-family="Times New Roman,serif" font-size="14.00">/model/layers.3/post_attention_layernorm/SkipLayerNorm</text>
<text text-anchor="middle" x="427.32" y="-622.2" font-family="Times New Roman,serif" font-size="14.00">(SkipSimplifiedLayerNormalization</text>
<text text-anchor="middle" x="427.32" y="-605.7" font-family="Times New Roman,serif" font-size="14.00">layer: 3)</text>
</g>
<!-- 1593310080352&#45;&gt;1593310080976 -->
<g id="edge4" class="edge">
<title>1593310080352&#45;&gt;1593310080976</title>
<path fill="none" stroke="black" d="M482.22,-1057.34C493.6,-1046.65 504.02,-1034.02 510.32,-1019.86 567.43,-891.56 563.11,-832.34 506.32,-703.9 501.77,-693.61 495.1,-684.03 487.52,-675.39"/>
<polygon fill="black" stroke="black" points="490.13,-673.05 480.73,-668.16 485.03,-677.84 490.13,-673.05"/>
</g>
<!-- 1593310080448 -->
<g id="node3" class="node">
<title>1593310080448</title>
<ellipse fill="none" stroke="black" cx="325.32" cy="-861.88" rx="175.19" ry="40.66"/>
<text text-anchor="middle" x="325.32" y="-873.33" font-family="Times New Roman,serif" font-size="14.00">/model/layers.3/attn/GroupQueryAttention</text>
<text text-anchor="middle" x="325.32" y="-856.83" font-family="Times New Roman,serif" font-size="14.00">(GroupQueryAttention</text>
<text text-anchor="middle" x="325.32" y="-840.33" font-family="Times New Roman,serif" font-size="14.00">layer: 3)</text>
</g>
<!-- 1593310080400&#45;&gt;1593310080448 -->
<g id="edge2" class="edge">
<title>1593310080400&#45;&gt;1593310080448</title>
<path fill="none" stroke="black" d="M324.67,-938.19C324.74,-930.41 324.81,-922.15 324.88,-914.07"/>
<polygon fill="black" stroke="black" points="328.37,-914.36 324.96,-904.33 321.37,-914.3 328.37,-914.36"/>
</g>
<!-- 1593310080592 -->
<g id="node4" class="node">
<title>1593310080592</title>
<ellipse fill="none" stroke="black" cx="330.32" cy="-744.56" rx="167.23" ry="40.66"/>
<text text-anchor="middle" x="330.32" y="-756.01" font-family="Times New Roman,serif" font-size="14.00">/model/layers.3/attn/o_proj/MatMul_Q4</text>
<text text-anchor="middle" x="330.32" y="-739.51" font-family="Times New Roman,serif" font-size="14.00">(MatMulNBits</text>
<text text-anchor="middle" x="330.32" y="-723.01" font-family="Times New Roman,serif" font-size="14.00">layer: 3)</text>
</g>
<!-- 1593310080448&#45;&gt;1593310080592 -->
<g id="edge3" class="edge">
<title>1593310080448&#45;&gt;1593310080592</title>
<path fill="none" stroke="black" d="M327.06,-820.87C327.39,-813.09 327.75,-804.83 328.1,-796.75"/>
<polygon fill="black" stroke="black" points="331.59,-797.15 328.52,-787.01 324.59,-796.85 331.59,-797.15"/>
</g>
<!-- 1593310080592&#45;&gt;1593310080976 -->
<g id="edge5" class="edge">
<title>1593310080592&#45;&gt;1593310080976</title>
<path fill="none" stroke="black" d="M363.16,-704.52C370.82,-695.42 379.06,-685.62 387,-676.18"/>
<polygon fill="black" stroke="black" points="389.45,-678.7 393.21,-668.8 384.09,-674.2 389.45,-678.7"/>
</g>
<!-- 1593310080496 -->
<g id="node6" class="node">
<title>1593310080496</title>
<ellipse fill="none" stroke="black" cx="324.32" cy="-509.93" rx="179.43" ry="40.66"/>
<text text-anchor="middle" x="324.32" y="-521.38" font-family="Times New Roman,serif" font-size="14.00">/model/layers.3/mlp/gate_proj/MatMul_Q4</text>
<text text-anchor="middle" x="324.32" y="-504.88" font-family="Times New Roman,serif" font-size="14.00">(MatMulNBits</text>
<text text-anchor="middle" x="324.32" y="-488.38" font-family="Times New Roman,serif" font-size="14.00">layer: 3)</text>
</g>
<!-- 1593310080976&#45;&gt;1593310080496 -->
<g id="edge6" class="edge">
<title>1593310080976&#45;&gt;1593310080496</title>
<path fill="none" stroke="black" d="M391.87,-586.56C383.77,-577.48 375.07,-567.74 366.7,-558.37"/>
<polygon fill="black" stroke="black" points="369.42,-556.16 360.14,-551.03 364.2,-560.82 369.42,-556.16"/>
</g>
<!-- 1593310195824 -->
<g id="node7" class="node">
<title>1593310195824</title>
<ellipse fill="none" stroke="black" cx="531.32" cy="-392.61" rx="173.06" ry="40.66"/>
<text text-anchor="middle" x="531.32" y="-404.06" font-family="Times New Roman,serif" font-size="14.00">/model/layers.3/mlp/up_proj/MatMul_Q4</text>
<text text-anchor="middle" x="531.32" y="-387.56" font-family="Times New Roman,serif" font-size="14.00">(MatMulNBits</text>
<text text-anchor="middle" x="531.32" y="-371.06" font-family="Times New Roman,serif" font-size="14.00">layer: 3)</text>
</g>
<!-- 1593310080976&#45;&gt;1593310195824 -->
<g id="edge7" class="edge">
<title>1593310080976&#45;&gt;1593310195824</title>
<path fill="none" stroke="black" d="M482.66,-587.59C494.22,-576.91 505.09,-564.42 512.32,-550.59 529.26,-518.2 533.72,-477.04 534.1,-444.99"/>
<polygon fill="black" stroke="black" points="537.6,-445.13 534.07,-435.14 530.6,-445.15 537.6,-445.13"/>
</g>
<!-- 1593310195872 -->
<g id="node8" class="node">
<title>1593310195872</title>
<ellipse fill="none" stroke="black" cx="151.32" cy="-392.61" rx="151.32" ry="40.66"/>
<text text-anchor="middle" x="151.32" y="-404.06" font-family="Times New Roman,serif" font-size="14.00">/model/layers.3/mlp/act_fn/Sigmoid</text>
<text text-anchor="middle" x="151.32" y="-387.56" font-family="Times New Roman,serif" font-size="14.00">(Sigmoid</text>
<text text-anchor="middle" x="151.32" y="-371.06" font-family="Times New Roman,serif" font-size="14.00">layer: 3)</text>
</g>
<!-- 1593310080496&#45;&gt;1593310195872 -->
<g id="edge8" class="edge">
<title>1593310080496&#45;&gt;1593310195872</title>
<path fill="none" stroke="black" d="M267.67,-471.17C251.29,-460.25 233.29,-448.25 216.43,-437.01"/>
<polygon fill="black" stroke="black" points="218.73,-434.34 208.47,-431.7 214.85,-440.16 218.73,-434.34"/>
</g>
<!-- 1593310195920 -->
<g id="node9" class="node">
<title>1593310195920</title>
<ellipse fill="none" stroke="black" cx="330.32" cy="-275.29" rx="134.88" ry="40.66"/>
<text text-anchor="middle" x="330.32" y="-286.74" font-family="Times New Roman,serif" font-size="14.00">/model/layers.3/mlp/act_fn/Mul</text>
<text text-anchor="middle" x="330.32" y="-270.24" font-family="Times New Roman,serif" font-size="14.00">(Mul</text>
<text text-anchor="middle" x="330.32" y="-253.74" font-family="Times New Roman,serif" font-size="14.00">layer: 3)</text>
</g>
<!-- 1593310080496&#45;&gt;1593310195920 -->
<g id="edge9" class="edge">
<title>1593310080496&#45;&gt;1593310195920</title>
<path fill="none" stroke="black" d="M325.35,-468.94C326.36,-429.79 327.9,-369.98 329,-327.4"/>
<polygon fill="black" stroke="black" points="332.49,-327.75 329.25,-317.66 325.5,-327.57 332.49,-327.75"/>
</g>
<!-- 1593310195968 -->
<g id="node10" class="node">
<title>1593310195968</title>
<ellipse fill="none" stroke="black" cx="411.32" cy="-157.98" rx="108.36" ry="40.66"/>
<text text-anchor="middle" x="411.32" y="-169.43" font-family="Times New Roman,serif" font-size="14.00">/model/layers.3/mlp/Mul</text>
<text text-anchor="middle" x="411.32" y="-152.93" font-family="Times New Roman,serif" font-size="14.00">(Mul</text>
<text text-anchor="middle" x="411.32" y="-136.43" font-family="Times New Roman,serif" font-size="14.00">layer: 3)</text>
</g>
<!-- 1593310195824&#45;&gt;1593310195968 -->
<g id="edge12" class="edge">
<title>1593310195824&#45;&gt;1593310195968</title>
<path fill="none" stroke="black" d="M520.95,-351.57C511.51,-318.81 495.76,-271.97 474.32,-234.63 468.58,-224.64 461.49,-214.66 454.16,-205.38"/>
<polygon fill="black" stroke="black" points="457.09,-203.43 448.06,-197.89 451.66,-207.85 457.09,-203.43"/>
</g>
<!-- 1593310195872&#45;&gt;1593310195920 -->
<g id="edge10" class="edge">
<title>1593310195872&#45;&gt;1593310195920</title>
<path fill="none" stroke="black" d="M208.45,-354.81C226.31,-343.3 246.16,-330.51 264.57,-318.65"/>
<polygon fill="black" stroke="black" points="266.26,-321.73 272.77,-313.37 262.47,-315.84 266.26,-321.73"/>
</g>
<!-- 1593310195920&#45;&gt;1593310195968 -->
<g id="edge11" class="edge">
<title>1593310195920&#45;&gt;1593310195968</title>
<path fill="none" stroke="black" d="M357.74,-235.25C364.15,-226.14 371.04,-216.33 377.68,-206.88"/>
<polygon fill="black" stroke="black" points="380.45,-209.02 383.33,-198.82 374.72,-205 380.45,-209.02"/>
</g>
<!-- 1593310196016 -->
<g id="node11" class="node">
<title>1593310196016</title>
<ellipse fill="none" stroke="black" cx="411.32" cy="-40.66" rx="184.73" ry="40.66"/>
<text text-anchor="middle" x="411.32" y="-52.11" font-family="Times New Roman,serif" font-size="14.00">/model/layers.3/mlp/down_proj/MatMul_Q4</text>
<text text-anchor="middle" x="411.32" y="-35.61" font-family="Times New Roman,serif" font-size="14.00">(MatMulNBits</text>
<text text-anchor="middle" x="411.32" y="-19.11" font-family="Times New Roman,serif" font-size="14.00">layer: 3)</text>
</g>
<!-- 1593310195968&#45;&gt;1593310196016 -->
<g id="edge13" class="edge">
<title>1593310195968&#45;&gt;1593310196016</title>
<path fill="none" stroke="black" d="M411.32,-116.97C411.32,-109.19 411.32,-100.93 411.32,-92.84"/>
<polygon fill="black" stroke="black" points="414.82,-93.11 411.32,-83.11 407.82,-93.11 414.82,-93.11"/>
</g>
</g>
</svg>
