<?xml version="1.0" encoding="UTF-8" standalone="no"?>
<!DOCTYPE svg PUBLIC "-//W3C//DTD SVG 1.1//EN"
 "http://www.w3.org/Graphics/SVG/1.1/DTD/svg11.dtd">
<!-- Generated by graphviz version 12.2.1 (20241206.2353)
 -->
<!-- Pages: 1 -->
<svg width="732pt" height="1145pt"
 viewBox="0.00 0.00 731.93 1145.17" xmlns="http://www.w3.org/2000/svg" xmlns:xlink="http://www.w3.org/1999/xlink">
<g id="graph0" class="graph" transform="scale(1 1) rotate(0) translate(4 1141.17)">
<polygon fill="white" stroke="none" points="-4,4 -4,-1141.17 727.93,-1141.17 727.93,4 -4,4"/>
<!-- 1593310311664 -->
<g id="node1" class="node">
<title>1593310311664</title>
<ellipse fill="none" stroke="black" cx="463.09" cy="-1096.51" rx="208.07" ry="40.66"/>
<text text-anchor="middle" x="463.09" y="-1107.96" font-family="Times New Roman,serif" font-size="14.00">/model/layers.21/input_layernorm/SkipLayerNorm</text>
<text text-anchor="middle" x="463.09" y="-1091.46" font-family="Times New Roman,serif" font-size="14.00">(SkipSimplifiedLayerNormalization</text>
<text text-anchor="middle" x="463.09" y="-1074.96" font-family="Times New Roman,serif" font-size="14.00">layer: 21)</text>
</g>
<!-- 1593310311712 -->
<g id="node2" class="node">
<title>1593310311712</title>
<ellipse fill="none" stroke="black" cx="358.09" cy="-979.2" rx="181.55" ry="40.66"/>
<text text-anchor="middle" x="358.09" y="-990.65" font-family="Times New Roman,serif" font-size="14.00">/model/layers.21/attn/qkv_proj/MatMul_Q4</text>
<text text-anchor="middle" x="358.09" y="-974.15" font-family="Times New Roman,serif" font-size="14.00">(MatMulNBits</text>
<text text-anchor="middle" x="358.09" y="-957.65" font-family="Times New Roman,serif" font-size="14.00">layer: 21)</text>
</g>
<!-- 1593310311664&#45;&gt;1593310311712 -->
<g id="edge1" class="edge">
<title>1593310311664&#45;&gt;1593310311712</title>
<path fill="none" stroke="black" d="M427.25,-1056.15C418.97,-1047.06 410.08,-1037.29 401.52,-1027.89"/>
<polygon fill="black" stroke="black" points="404.11,-1025.54 394.79,-1020.5 398.94,-1030.25 404.11,-1025.54"/>
</g>
<!-- 1593310311856 -->
<g id="node5" class="node">
<title>1593310311856</title>
<ellipse fill="none" stroke="black" cx="440.09" cy="-627.25" rx="242.54" ry="40.66"/>
<text text-anchor="middle" x="440.09" y="-638.7" font-family="Times New Roman,serif" font-size="14.00">/model/layers.21/post_attention_layernorm/SkipLayerNorm</text>
<text text-anchor="middle" x="440.09" y="-622.2" font-family="Times New Roman,serif" font-size="14.00">(SkipSimplifiedLayerNormalization</text>
<text text-anchor="middle" x="440.09" y="-605.7" font-family="Times New Roman,serif" font-size="14.00">layer: 21)</text>
</g>
<!-- 1593310311664&#45;&gt;1593310311856 -->
<g id="edge6" class="edge">
<title>1593310311664&#45;&gt;1593310311856</title>
<path fill="none" stroke="black" d="M520.74,-1057.15C532.22,-1046.53 542.7,-1033.99 549.09,-1019.86 554.34,-1008.25 554.02,-843.57 548.09,-821.22 534.02,-768.2 502.01,-714.24 476.47,-676.92"/>
<polygon fill="black" stroke="black" points="479.58,-675.25 471,-669.04 473.83,-679.25 479.58,-675.25"/>
</g>
<!-- 1593310311760 -->
<g id="node3" class="node">
<title>1593310311760</title>
<ellipse fill="none" stroke="black" cx="359.09" cy="-861.88" rx="179.96" ry="40.66"/>
<text text-anchor="middle" x="359.09" y="-873.33" font-family="Times New Roman,serif" font-size="14.00">/model/layers.21/attn/GroupQueryAttention</text>
<text text-anchor="middle" x="359.09" y="-856.83" font-family="Times New Roman,serif" font-size="14.00">(GroupQueryAttention</text>
<text text-anchor="middle" x="359.09" y="-840.33" font-family="Times New Roman,serif" font-size="14.00">layer: 21)</text>
</g>
<!-- 1593310311712&#45;&gt;1593310311760 -->
<g id="edge2" class="edge">
<title>1593310311712&#45;&gt;1593310311760</title>
<path fill="none" stroke="black" d="M358.44,-938.19C358.51,-930.41 358.58,-922.15 358.65,-914.07"/>
<polygon fill="black" stroke="black" points="362.15,-914.36 358.73,-904.33 355.15,-914.3 362.15,-914.36"/>
</g>
<!-- 1593310311808 -->
<g id="node4" class="node">
<title>1593310311808</title>
<ellipse fill="none" stroke="black" cx="231.09" cy="-744.56" rx="172" ry="40.66"/>
<text text-anchor="middle" x="231.09" y="-756.01" font-family="Times New Roman,serif" font-size="14.00">/model/layers.21/attn/o_proj/MatMul_Q4</text>
<text text-anchor="middle" x="231.09" y="-739.51" font-family="Times New Roman,serif" font-size="14.00">(MatMulNBits</text>
<text text-anchor="middle" x="231.09" y="-723.01" font-family="Times New Roman,serif" font-size="14.00">layer: 21)</text>
</g>
<!-- 1593310311760&#45;&gt;1593310311808 -->
<g id="edge5" class="edge">
<title>1593310311760&#45;&gt;1593310311808</title>
<path fill="none" stroke="black" d="M316.12,-822.16C305.35,-812.46 293.69,-801.96 282.56,-791.93"/>
<polygon fill="black" stroke="black" points="285.07,-789.48 275.3,-785.39 280.39,-794.68 285.07,-789.48"/>
</g>
<!-- 1593310311808&#45;&gt;1593310311856 -->
<g id="edge7" class="edge">
<title>1593310311808&#45;&gt;1593310311856</title>
<path fill="none" stroke="black" d="M297.8,-706.76C317.82,-695.71 339.98,-683.49 360.73,-672.04"/>
<polygon fill="black" stroke="black" points="362.4,-675.11 369.46,-667.22 359.02,-668.98 362.4,-675.11"/>
</g>
<!-- 1593310311856&#45;&gt;1593310311760 -->
<g id="edge3" class="edge">
<title>1593310311856&#45;&gt;1593310311760</title>
<path fill="none" stroke="black" d="M430.48,-668.29C425.72,-700.83 418.81,-747.39 403.09,-785.22 399.38,-794.16 394.47,-803.09 389.25,-811.52"/>
<polygon fill="black" stroke="black" points="386.34,-809.59 383.86,-819.89 392.22,-813.38 386.34,-809.59"/>
</g>
<!-- 1593310311856&#45;&gt;1593310311760 -->
<g id="edge4" class="edge">
<title>1593310311856&#45;&gt;1593310311760</title>
<path fill="none" stroke="black" d="M445,-668.29C443.72,-700.83 436.81,-747.39 421.09,-785.22 417.21,-794.57 412.01,-803.92 406.26,-812.69"/>
<polygon fill="black" stroke="black" points="403.52,-810.5 400.69,-820.71 409.27,-814.49 403.52,-810.5"/>
</g>
<!-- 1593310311904 -->
<g id="node6" class="node">
<title>1593310311904</title>
<ellipse fill="none" stroke="black" cx="334.09" cy="-509.93" rx="184.2" ry="40.66"/>
<text text-anchor="middle" x="334.09" y="-521.38" font-family="Times New Roman,serif" font-size="14.00">/model/layers.21/mlp/gate_proj/MatMul_Q4</text>
<text text-anchor="middle" x="334.09" y="-504.88" font-family="Times New Roman,serif" font-size="14.00">(MatMulNBits</text>
<text text-anchor="middle" x="334.09" y="-488.38" font-family="Times New Roman,serif" font-size="14.00">layer: 21)</text>
</g>
<!-- 1593310311856&#45;&gt;1593310311904 -->
<g id="edge8" class="edge">
<title>1593310311856&#45;&gt;1593310311904</title>
<path fill="none" stroke="black" d="M403.61,-586.56C395.27,-577.48 386.32,-567.74 377.71,-558.37"/>
<polygon fill="black" stroke="black" points="380.29,-556.01 370.95,-551.02 375.14,-560.75 380.29,-556.01"/>
</g>
<!-- 1593310311952 -->
<g id="node7" class="node">
<title>1593310311952</title>
<ellipse fill="none" stroke="black" cx="546.09" cy="-392.61" rx="177.84" ry="40.66"/>
<text text-anchor="middle" x="546.09" y="-404.06" font-family="Times New Roman,serif" font-size="14.00">/model/layers.21/mlp/up_proj/MatMul_Q4</text>
<text text-anchor="middle" x="546.09" y="-387.56" font-family="Times New Roman,serif" font-size="14.00">(MatMulNBits</text>
<text text-anchor="middle" x="546.09" y="-371.06" font-family="Times New Roman,serif" font-size="14.00">layer: 21)</text>
</g>
<!-- 1593310311856&#45;&gt;1593310311952 -->
<g id="edge9" class="edge">
<title>1593310311856&#45;&gt;1593310311952</title>
<path fill="none" stroke="black" d="M497.17,-587.38C508.84,-576.79 519.78,-564.38 527.09,-550.59 544.22,-518.3 548.67,-477.13 549,-445.06"/>
<polygon fill="black" stroke="black" points="552.5,-445.18 548.96,-435.2 545.5,-445.21 552.5,-445.18"/>
</g>
<!-- 1593310312000 -->
<g id="node8" class="node">
<title>1593310312000</title>
<ellipse fill="none" stroke="black" cx="156.09" cy="-392.61" rx="156.09" ry="40.66"/>
<text text-anchor="middle" x="156.09" y="-404.06" font-family="Times New Roman,serif" font-size="14.00">/model/layers.21/mlp/act_fn/Sigmoid</text>
<text text-anchor="middle" x="156.09" y="-387.56" font-family="Times New Roman,serif" font-size="14.00">(Sigmoid</text>
<text text-anchor="middle" x="156.09" y="-371.06" font-family="Times New Roman,serif" font-size="14.00">layer: 21)</text>
</g>
<!-- 1593310311904&#45;&gt;1593310312000 -->
<g id="edge10" class="edge">
<title>1593310311904&#45;&gt;1593310312000</title>
<path fill="none" stroke="black" d="M275.81,-471.17C258.96,-460.25 240.43,-448.25 223.09,-437.01"/>
<polygon fill="black" stroke="black" points="225.16,-434.19 214.87,-431.69 221.36,-440.06 225.16,-434.19"/>
</g>
<!-- 1593310312048 -->
<g id="node9" class="node">
<title>1593310312048</title>
<ellipse fill="none" stroke="black" cx="340.09" cy="-275.29" rx="139.65" ry="40.66"/>
<text text-anchor="middle" x="340.09" y="-286.74" font-family="Times New Roman,serif" font-size="14.00">/model/layers.21/mlp/act_fn/Mul</text>
<text text-anchor="middle" x="340.09" y="-270.24" font-family="Times New Roman,serif" font-size="14.00">(Mul</text>
<text text-anchor="middle" x="340.09" y="-253.74" font-family="Times New Roman,serif" font-size="14.00">layer: 21)</text>
</g>
<!-- 1593310311904&#45;&gt;1593310312048 -->
<g id="edge11" class="edge">
<title>1593310311904&#45;&gt;1593310312048</title>
<path fill="none" stroke="black" d="M335.13,-468.94C336.14,-429.79 337.68,-369.98 338.78,-327.4"/>
<polygon fill="black" stroke="black" points="342.27,-327.75 339.03,-317.66 335.27,-327.57 342.27,-327.75"/>
</g>
<!-- 1593310312096 -->
<g id="node10" class="node">
<title>1593310312096</title>
<ellipse fill="none" stroke="black" cx="424.09" cy="-157.98" rx="113.14" ry="40.66"/>
<text text-anchor="middle" x="424.09" y="-169.43" font-family="Times New Roman,serif" font-size="14.00">/model/layers.21/mlp/Mul</text>
<text text-anchor="middle" x="424.09" y="-152.93" font-family="Times New Roman,serif" font-size="14.00">(Mul</text>
<text text-anchor="middle" x="424.09" y="-136.43" font-family="Times New Roman,serif" font-size="14.00">layer: 21)</text>
</g>
<!-- 1593310311952&#45;&gt;1593310312096 -->
<g id="edge14" class="edge">
<title>1593310311952&#45;&gt;1593310312096</title>
<path fill="none" stroke="black" d="M535.97,-351.81C526.63,-318.99 510.9,-271.93 489.09,-234.63 483.2,-224.55 475.9,-214.53 468.34,-205.24"/>
<polygon fill="black" stroke="black" points="471.15,-203.13 462.03,-197.73 465.79,-207.64 471.15,-203.13"/>
</g>
<!-- 1593310312000&#45;&gt;1593310312048 -->
<g id="edge12" class="edge">
<title>1593310312000&#45;&gt;1593310312048</title>
<path fill="none" stroke="black" d="M215.07,-354.65C233.33,-343.2 253.59,-330.5 272.4,-318.72"/>
<polygon fill="black" stroke="black" points="274.18,-321.73 280.8,-313.46 270.46,-315.8 274.18,-321.73"/>
</g>
<!-- 1593310312048&#45;&gt;1593310312096 -->
<g id="edge13" class="edge">
<title>1593310312048&#45;&gt;1593310312096</title>
<path fill="none" stroke="black" d="M368.53,-235.25C375.17,-226.14 382.32,-216.33 389.2,-206.88"/>
<polygon fill="black" stroke="black" points="392.02,-208.95 395.08,-198.81 386.36,-204.83 392.02,-208.95"/>
</g>
<!-- 1593310312144 -->
<g id="node11" class="node">
<title>1593310312144</title>
<ellipse fill="none" stroke="black" cx="424.09" cy="-40.66" rx="189.5" ry="40.66"/>
<text text-anchor="middle" x="424.09" y="-52.11" font-family="Times New Roman,serif" font-size="14.00">/model/layers.21/mlp/down_proj/MatMul_Q4</text>
<text text-anchor="middle" x="424.09" y="-35.61" font-family="Times New Roman,serif" font-size="14.00">(MatMulNBits</text>
<text text-anchor="middle" x="424.09" y="-19.11" font-family="Times New Roman,serif" font-size="14.00">layer: 21)</text>
</g>
<!-- 1593310312096&#45;&gt;1593310312144 -->
<g id="edge15" class="edge">
<title>1593310312096&#45;&gt;1593310312144</title>
<path fill="none" stroke="black" d="M424.09,-116.97C424.09,-109.19 424.09,-100.93 424.09,-92.84"/>
<polygon fill="black" stroke="black" points="427.59,-93.11 424.09,-83.11 420.59,-93.11 427.59,-93.11"/>
</g>
</g>
</svg>
