<?xml version="1.0" encoding="UTF-8" standalone="no"?>
<!DOCTYPE svg PUBLIC "-//W3C//DTD SVG 1.1//EN"
 "http://www.w3.org/Graphics/SVG/1.1/DTD/svg11.dtd">
<!-- Generated by graphviz version 12.2.1 (20241206.2353)
 -->
<!-- Pages: 1 -->
<svg width="204pt" height="98pt"
 viewBox="0.00 0.00 203.50 98.00" xmlns="http://www.w3.org/2000/svg" xmlns:xlink="http://www.w3.org/1999/xlink">
<g id="graph0" class="graph" transform="scale(1 1) rotate(0) translate(4 94)">
<polygon fill="white" stroke="none" points="-4,4 -4,-94 199.5,-94 199.5,4 -4,4"/>
<!-- src_3065618755440 -->
<g id="node1" class="node">
<title>src_3065618755440</title>
<polygon fill="lightblue" stroke="black" points="79.75,-36 0,-36 0,0 79.75,0 79.75,-36"/>
<text text-anchor="middle" x="39.88" y="-12.95" font-family="Times New Roman,serif" font-size="14.00">GPU(2,0,3)</text>
</g>
<!-- dst_3064459184832 -->
<g id="node2" class="node">
<title>dst_3064459184832</title>
<polygon fill="lightyellow" stroke="black" points="195.5,-36 115.75,-36 115.75,0 195.5,0 195.5,-36"/>
<text text-anchor="middle" x="155.62" y="-12.95" font-family="Times New Roman,serif" font-size="14.00">GPU(3,0,3)</text>
</g>
<!-- src_3065618755440&#45;&gt;dst_3064459184832 -->
<g id="edge1" class="edge">
<title>src_3065618755440&#45;&gt;dst_3064459184832</title>
<path fill="none" stroke="black" d="M80.02,-18C87.8,-18 96.06,-18 104.15,-18"/>
<polygon fill="black" stroke="black" points="103.89,-21.5 113.89,-18 103.89,-14.5 103.89,-21.5"/>
</g>
<!-- src_3064459184208 -->
<g id="node3" class="node">
<title>src_3064459184208</title>
<polygon fill="lightblue" stroke="black" points="79.75,-90 0,-90 0,-54 79.75,-54 79.75,-90"/>
<text text-anchor="middle" x="39.88" y="-66.95" font-family="Times New Roman,serif" font-size="14.00">GPU(2,1,3)</text>
</g>
<!-- dst_3064459184544 -->
<g id="node4" class="node">
<title>dst_3064459184544</title>
<polygon fill="lightyellow" stroke="black" points="195.5,-90 115.75,-90 115.75,-54 195.5,-54 195.5,-90"/>
<text text-anchor="middle" x="155.62" y="-66.95" font-family="Times New Roman,serif" font-size="14.00">GPU(3,1,3)</text>
</g>
<!-- src_3064459184208&#45;&gt;dst_3064459184544 -->
<g id="edge2" class="edge">
<title>src_3064459184208&#45;&gt;dst_3064459184544</title>
<path fill="none" stroke="black" d="M80.02,-72C87.8,-72 96.06,-72 104.15,-72"/>
<polygon fill="black" stroke="black" points="103.89,-75.5 113.89,-72 103.89,-68.5 103.89,-75.5"/>
</g>
</g>
</svg>
