<?xml version="1.0" encoding="UTF-8" standalone="no"?>
<!DOCTYPE svg PUBLIC "-//W3C//DTD SVG 1.1//EN"
 "http://www.w3.org/Graphics/SVG/1.1/DTD/svg11.dtd">
<!-- Generated by graphviz version 12.2.1 (20241206.2353)
 -->
<!-- Pages: 1 -->
<svg width="73pt" height="260pt"
 viewBox="0.00 0.00 72.75 260.00" xmlns="http://www.w3.org/2000/svg" xmlns:xlink="http://www.w3.org/1999/xlink">
<g id="graph0" class="graph" transform="scale(1 1) rotate(0) translate(4 256)">
<polygon fill="white" stroke="none" points="-4,4 -4,-256 68.75,-256 68.75,4 -4,4"/>
<!-- layer_1_15 -->
<g id="node1" class="node">
<title>layer_1_15</title>
<g id="a_node1"><a xlink:href="layer_15_data_1_detail.svg" xlink:title="Layer 15" target="_blank">
<polygon fill="lightyellow" stroke="black" points="64.75,-252 0,-252 0,-216 64.75,-216 64.75,-252"/>
<text text-anchor="middle" x="32.38" y="-228.95" font-family="Times New Roman,serif" font-size="14.00">Layer 15</text>
</a>
</g>
</g>
<!-- layer_1_16 -->
<g id="node2" class="node">
<title>layer_1_16</title>
<g id="a_node2"><a xlink:href="layer_16_data_1_detail.svg" xlink:title="Layer 16" target="_blank">
<polygon fill="lightyellow" stroke="black" points="64.75,-180 0,-180 0,-144 64.75,-144 64.75,-180"/>
<text text-anchor="middle" x="32.38" y="-156.95" font-family="Times New Roman,serif" font-size="14.00">Layer 16</text>
</a>
</g>
</g>
<!-- layer_1_15&#45;&gt;layer_1_16 -->
<g id="edge1" class="edge">
<title>layer_1_15&#45;&gt;layer_1_16</title>
<path fill="none" stroke="black" d="M32.38,-215.7C32.38,-208.41 32.38,-199.73 32.38,-191.54"/>
<polygon fill="black" stroke="black" points="35.88,-191.62 32.38,-181.62 28.88,-191.62 35.88,-191.62"/>
</g>
<!-- layer_1_17 -->
<g id="node3" class="node">
<title>layer_1_17</title>
<g id="a_node3"><a xlink:href="layer_17_data_1_detail.svg" xlink:title="Layer 17" target="_blank">
<polygon fill="lightyellow" stroke="black" points="64.75,-108 0,-108 0,-72 64.75,-72 64.75,-108"/>
<text text-anchor="middle" x="32.38" y="-84.95" font-family="Times New Roman,serif" font-size="14.00">Layer 17</text>
</a>
</g>
</g>
<!-- layer_1_16&#45;&gt;layer_1_17 -->
<g id="edge2" class="edge">
<title>layer_1_16&#45;&gt;layer_1_17</title>
<path fill="none" stroke="black" d="M32.38,-143.7C32.38,-136.41 32.38,-127.73 32.38,-119.54"/>
<polygon fill="black" stroke="black" points="35.88,-119.62 32.38,-109.62 28.88,-119.62 35.88,-119.62"/>
</g>
<!-- layer_1_18 -->
<g id="node4" class="node">
<title>layer_1_18</title>
<g id="a_node4"><a xlink:href="layer_18_data_1_detail.svg" xlink:title="Layer 18" target="_blank">
<polygon fill="lightyellow" stroke="black" points="64.75,-36 0,-36 0,0 64.75,0 64.75,-36"/>
<text text-anchor="middle" x="32.38" y="-12.95" font-family="Times New Roman,serif" font-size="14.00">Layer 18</text>
</a>
</g>
</g>
<!-- layer_1_17&#45;&gt;layer_1_18 -->
<g id="edge3" class="edge">
<title>layer_1_17&#45;&gt;layer_1_18</title>
<path fill="none" stroke="black" d="M32.38,-71.7C32.38,-64.41 32.38,-55.73 32.38,-47.54"/>
<polygon fill="black" stroke="black" points="35.88,-47.62 32.38,-37.62 28.88,-47.62 35.88,-47.62"/>
</g>
</g>
</svg>
