<?xml version="1.0" encoding="UTF-8" standalone="no"?>
<!DOCTYPE svg PUBLIC "-//W3C//DTD SVG 1.1//EN"
 "http://www.w3.org/Graphics/SVG/1.1/DTD/svg11.dtd">
<!-- Generated by graphviz version 12.2.1 (20241206.2353)
 -->
<!-- Pages: 1 -->
<svg width="66pt" height="332pt"
 viewBox="0.00 0.00 66.00 332.00" xmlns="http://www.w3.org/2000/svg" xmlns:xlink="http://www.w3.org/1999/xlink">
<g id="graph0" class="graph" transform="scale(1 1) rotate(0) translate(4 328)">
<polygon fill="white" stroke="none" points="-4,4 -4,-328 62,-328 62,4 -4,4"/>
<!-- layer_1_5 -->
<g id="node1" class="node">
<title>layer_1_5</title>
<g id="a_node1"><a xlink:href="layer_5_data_1_detail.svg" xlink:title="Layer 5" target="_blank">
<polygon fill="lightyellow" stroke="black" points="58,-324 0,-324 0,-288 58,-288 58,-324"/>
<text text-anchor="middle" x="29" y="-300.95" font-family="Times New Roman,serif" font-size="14.00">Layer 5</text>
</a>
</g>
</g>
<!-- layer_1_6 -->
<g id="node2" class="node">
<title>layer_1_6</title>
<g id="a_node2"><a xlink:href="layer_6_data_1_detail.svg" xlink:title="Layer 6" target="_blank">
<polygon fill="lightyellow" stroke="black" points="58,-252 0,-252 0,-216 58,-216 58,-252"/>
<text text-anchor="middle" x="29" y="-228.95" font-family="Times New Roman,serif" font-size="14.00">Layer 6</text>
</a>
</g>
</g>
<!-- layer_1_5&#45;&gt;layer_1_6 -->
<g id="edge1" class="edge">
<title>layer_1_5&#45;&gt;layer_1_6</title>
<path fill="none" stroke="black" d="M29,-287.7C29,-280.41 29,-271.73 29,-263.54"/>
<polygon fill="black" stroke="black" points="32.5,-263.62 29,-253.62 25.5,-263.62 32.5,-263.62"/>
</g>
<!-- layer_1_7 -->
<g id="node3" class="node">
<title>layer_1_7</title>
<g id="a_node3"><a xlink:href="layer_7_data_1_detail.svg" xlink:title="Layer 7" target="_blank">
<polygon fill="lightyellow" stroke="black" points="58,-180 0,-180 0,-144 58,-144 58,-180"/>
<text text-anchor="middle" x="29" y="-156.95" font-family="Times New Roman,serif" font-size="14.00">Layer 7</text>
</a>
</g>
</g>
<!-- layer_1_6&#45;&gt;layer_1_7 -->
<g id="edge2" class="edge">
<title>layer_1_6&#45;&gt;layer_1_7</title>
<path fill="none" stroke="black" d="M29,-215.7C29,-208.41 29,-199.73 29,-191.54"/>
<polygon fill="black" stroke="black" points="32.5,-191.62 29,-181.62 25.5,-191.62 32.5,-191.62"/>
</g>
<!-- layer_1_8 -->
<g id="node4" class="node">
<title>layer_1_8</title>
<g id="a_node4"><a xlink:href="layer_8_data_1_detail.svg" xlink:title="Layer 8" target="_blank">
<polygon fill="lightyellow" stroke="black" points="58,-108 0,-108 0,-72 58,-72 58,-108"/>
<text text-anchor="middle" x="29" y="-84.95" font-family="Times New Roman,serif" font-size="14.00">Layer 8</text>
</a>
</g>
</g>
<!-- layer_1_7&#45;&gt;layer_1_8 -->
<g id="edge3" class="edge">
<title>layer_1_7&#45;&gt;layer_1_8</title>
<path fill="none" stroke="black" d="M29,-143.7C29,-136.41 29,-127.73 29,-119.54"/>
<polygon fill="black" stroke="black" points="32.5,-119.62 29,-109.62 25.5,-119.62 32.5,-119.62"/>
</g>
<!-- layer_1_9 -->
<g id="node5" class="node">
<title>layer_1_9</title>
<g id="a_node5"><a xlink:href="layer_9_data_1_detail.svg" xlink:title="Layer 9" target="_blank">
<polygon fill="lightyellow" stroke="black" points="58,-36 0,-36 0,0 58,0 58,-36"/>
<text text-anchor="middle" x="29" y="-12.95" font-family="Times New Roman,serif" font-size="14.00">Layer 9</text>
</a>
</g>
</g>
<!-- layer_1_8&#45;&gt;layer_1_9 -->
<g id="edge4" class="edge">
<title>layer_1_8&#45;&gt;layer_1_9</title>
<path fill="none" stroke="black" d="M29,-71.7C29,-64.41 29,-55.73 29,-47.54"/>
<polygon fill="black" stroke="black" points="32.5,-47.62 29,-37.62 25.5,-47.62 32.5,-47.62"/>
</g>
</g>
</svg>
