<?xml version="1.0" encoding="UTF-8" standalone="no"?>
<!DOCTYPE svg PUBLIC "-//W3C//DTD SVG 1.1//EN"
 "http://www.w3.org/Graphics/SVG/1.1/DTD/svg11.dtd">
<!-- Generated by graphviz version 12.2.1 (20241206.2353)
 -->
<!-- Pages: 1 -->
<svg width="73pt" height="404pt"
 viewBox="0.00 0.00 72.75 404.00" xmlns="http://www.w3.org/2000/svg" xmlns:xlink="http://www.w3.org/1999/xlink">
<g id="graph0" class="graph" transform="scale(1 1) rotate(0) translate(4 400)">
<polygon fill="white" stroke="none" points="-4,4 -4,-400 68.75,-400 68.75,4 -4,4"/>
<!-- layer_2_6 -->
<g id="node1" class="node">
<title>layer_2_6</title>
<g id="a_node1"><a xlink:href="layer_6_data_2_detail.svg" xlink:title="Layer 6" target="_blank">
<polygon fill="lightyellow" stroke="black" points="61.38,-396 3.38,-396 3.38,-360 61.38,-360 61.38,-396"/>
<text text-anchor="middle" x="32.38" y="-372.95" font-family="Times New Roman,serif" font-size="14.00">Layer 6</text>
</a>
</g>
</g>
<!-- layer_2_7 -->
<g id="node2" class="node">
<title>layer_2_7</title>
<g id="a_node2"><a xlink:href="layer_7_data_2_detail.svg" xlink:title="Layer 7" target="_blank">
<polygon fill="lightyellow" stroke="black" points="61.38,-324 3.38,-324 3.38,-288 61.38,-288 61.38,-324"/>
<text text-anchor="middle" x="32.38" y="-300.95" font-family="Times New Roman,serif" font-size="14.00">Layer 7</text>
</a>
</g>
</g>
<!-- layer_2_6&#45;&gt;layer_2_7 -->
<g id="edge1" class="edge">
<title>layer_2_6&#45;&gt;layer_2_7</title>
<path fill="none" stroke="black" d="M32.38,-359.7C32.38,-352.41 32.38,-343.73 32.38,-335.54"/>
<polygon fill="black" stroke="black" points="35.88,-335.62 32.38,-325.62 28.88,-335.62 35.88,-335.62"/>
</g>
<!-- layer_2_8 -->
<g id="node3" class="node">
<title>layer_2_8</title>
<g id="a_node3"><a xlink:href="layer_8_data_2_detail.svg" xlink:title="Layer 8" target="_blank">
<polygon fill="lightyellow" stroke="black" points="61.38,-252 3.38,-252 3.38,-216 61.38,-216 61.38,-252"/>
<text text-anchor="middle" x="32.38" y="-228.95" font-family="Times New Roman,serif" font-size="14.00">Layer 8</text>
</a>
</g>
</g>
<!-- layer_2_7&#45;&gt;layer_2_8 -->
<g id="edge2" class="edge">
<title>layer_2_7&#45;&gt;layer_2_8</title>
<path fill="none" stroke="black" d="M32.38,-287.7C32.38,-280.41 32.38,-271.73 32.38,-263.54"/>
<polygon fill="black" stroke="black" points="35.88,-263.62 32.38,-253.62 28.88,-263.62 35.88,-263.62"/>
</g>
<!-- layer_2_9 -->
<g id="node4" class="node">
<title>layer_2_9</title>
<g id="a_node4"><a xlink:href="layer_9_data_2_detail.svg" xlink:title="Layer 9" target="_blank">
<polygon fill="lightyellow" stroke="black" points="61.38,-180 3.38,-180 3.38,-144 61.38,-144 61.38,-180"/>
<text text-anchor="middle" x="32.38" y="-156.95" font-family="Times New Roman,serif" font-size="14.00">Layer 9</text>
</a>
</g>
</g>
<!-- layer_2_8&#45;&gt;layer_2_9 -->
<g id="edge3" class="edge">
<title>layer_2_8&#45;&gt;layer_2_9</title>
<path fill="none" stroke="black" d="M32.38,-215.7C32.38,-208.41 32.38,-199.73 32.38,-191.54"/>
<polygon fill="black" stroke="black" points="35.88,-191.62 32.38,-181.62 28.88,-191.62 35.88,-191.62"/>
</g>
<!-- layer_2_10 -->
<g id="node5" class="node">
<title>layer_2_10</title>
<g id="a_node5"><a xlink:href="layer_10_data_2_detail.svg" xlink:title="Layer 10" target="_blank">
<polygon fill="lightyellow" stroke="black" points="64.75,-108 0,-108 0,-72 64.75,-72 64.75,-108"/>
<text text-anchor="middle" x="32.38" y="-84.95" font-family="Times New Roman,serif" font-size="14.00">Layer 10</text>
</a>
</g>
</g>
<!-- layer_2_9&#45;&gt;layer_2_10 -->
<g id="edge4" class="edge">
<title>layer_2_9&#45;&gt;layer_2_10</title>
<path fill="none" stroke="black" d="M32.38,-143.7C32.38,-136.41 32.38,-127.73 32.38,-119.54"/>
<polygon fill="black" stroke="black" points="35.88,-119.62 32.38,-109.62 28.88,-119.62 35.88,-119.62"/>
</g>
<!-- layer_2_11 -->
<g id="node6" class="node">
<title>layer_2_11</title>
<g id="a_node6"><a xlink:href="layer_11_data_2_detail.svg" xlink:title="Layer 11" target="_blank">
<polygon fill="lightyellow" stroke="black" points="64.75,-36 0,-36 0,0 64.75,0 64.75,-36"/>
<text text-anchor="middle" x="32.38" y="-12.95" font-family="Times New Roman,serif" font-size="14.00">Layer 11</text>
</a>
</g>
</g>
<!-- layer_2_10&#45;&gt;layer_2_11 -->
<g id="edge5" class="edge">
<title>layer_2_10&#45;&gt;layer_2_11</title>
<path fill="none" stroke="black" d="M32.38,-71.7C32.38,-64.41 32.38,-55.73 32.38,-47.54"/>
<polygon fill="black" stroke="black" points="35.88,-47.62 32.38,-37.62 28.88,-47.62 35.88,-47.62"/>
</g>
</g>
</svg>
