<?xml version="1.0" encoding="UTF-8" standalone="no"?>
<!DOCTYPE svg PUBLIC "-//W3C//DTD SVG 1.1//EN"
 "http://www.w3.org/Graphics/SVG/1.1/DTD/svg11.dtd">
<!-- Generated by graphviz version 12.2.1 (20241206.2353)
 -->
<!-- Pages: 1 -->
<svg width="73pt" height="332pt"
 viewBox="0.00 0.00 72.75 332.00" xmlns="http://www.w3.org/2000/svg" xmlns:xlink="http://www.w3.org/1999/xlink">
<g id="graph0" class="graph" transform="scale(1 1) rotate(0) translate(4 328)">
<polygon fill="white" stroke="none" points="-4,4 -4,-328 68.75,-328 68.75,4 -4,4"/>
<!-- layer_0_18 -->
<g id="node1" class="node">
<title>layer_0_18</title>
<g id="a_node1"><a xlink:href="layer_18_data_0_detail.svg" xlink:title="Layer 18" target="_blank">
<polygon fill="lightyellow" stroke="black" points="64.75,-324 0,-324 0,-288 64.75,-288 64.75,-324"/>
<text text-anchor="middle" x="32.38" y="-300.95" font-family="Times New Roman,serif" font-size="14.00">Layer 18</text>
</a>
</g>
</g>
<!-- layer_0_19 -->
<g id="node2" class="node">
<title>layer_0_19</title>
<g id="a_node2"><a xlink:href="layer_19_data_0_detail.svg" xlink:title="Layer 19" target="_blank">
<polygon fill="lightyellow" stroke="black" points="64.75,-252 0,-252 0,-216 64.75,-216 64.75,-252"/>
<text text-anchor="middle" x="32.38" y="-228.95" font-family="Times New Roman,serif" font-size="14.00">Layer 19</text>
</a>
</g>
</g>
<!-- layer_0_18&#45;&gt;layer_0_19 -->
<g id="edge1" class="edge">
<title>layer_0_18&#45;&gt;layer_0_19</title>
<path fill="none" stroke="black" d="M32.38,-287.7C32.38,-280.41 32.38,-271.73 32.38,-263.54"/>
<polygon fill="black" stroke="black" points="35.88,-263.62 32.38,-253.62 28.88,-263.62 35.88,-263.62"/>
</g>
<!-- layer_0_20 -->
<g id="node3" class="node">
<title>layer_0_20</title>
<g id="a_node3"><a xlink:href="layer_20_data_0_detail.svg" xlink:title="Layer 20" target="_blank">
<polygon fill="lightyellow" stroke="black" points="64.75,-180 0,-180 0,-144 64.75,-144 64.75,-180"/>
<text text-anchor="middle" x="32.38" y="-156.95" font-family="Times New Roman,serif" font-size="14.00">Layer 20</text>
</a>
</g>
</g>
<!-- layer_0_19&#45;&gt;layer_0_20 -->
<g id="edge2" class="edge">
<title>layer_0_19&#45;&gt;layer_0_20</title>
<path fill="none" stroke="black" d="M32.38,-215.7C32.38,-208.41 32.38,-199.73 32.38,-191.54"/>
<polygon fill="black" stroke="black" points="35.88,-191.62 32.38,-181.62 28.88,-191.62 35.88,-191.62"/>
</g>
<!-- layer_0_21 -->
<g id="node4" class="node">
<title>layer_0_21</title>
<g id="a_node4"><a xlink:href="layer_21_data_0_detail.svg" xlink:title="Layer 21" target="_blank">
<polygon fill="lightyellow" stroke="black" points="64.75,-108 0,-108 0,-72 64.75,-72 64.75,-108"/>
<text text-anchor="middle" x="32.38" y="-84.95" font-family="Times New Roman,serif" font-size="14.00">Layer 21</text>
</a>
</g>
</g>
<!-- layer_0_20&#45;&gt;layer_0_21 -->
<g id="edge3" class="edge">
<title>layer_0_20&#45;&gt;layer_0_21</title>
<path fill="none" stroke="black" d="M32.38,-143.7C32.38,-136.41 32.38,-127.73 32.38,-119.54"/>
<polygon fill="black" stroke="black" points="35.88,-119.62 32.38,-109.62 28.88,-119.62 35.88,-119.62"/>
</g>
<!-- layer_0_22 -->
<g id="node5" class="node">
<title>layer_0_22</title>
<g id="a_node5"><a xlink:href="layer_22_data_0_detail.svg" xlink:title="Layer 22" target="_blank">
<polygon fill="lightyellow" stroke="black" points="64.75,-36 0,-36 0,0 64.75,0 64.75,-36"/>
<text text-anchor="middle" x="32.38" y="-12.95" font-family="Times New Roman,serif" font-size="14.00">Layer 22</text>
</a>
</g>
</g>
<!-- layer_0_21&#45;&gt;layer_0_22 -->
<g id="edge4" class="edge">
<title>layer_0_21&#45;&gt;layer_0_22</title>
<path fill="none" stroke="black" d="M32.38,-71.7C32.38,-64.41 32.38,-55.73 32.38,-47.54"/>
<polygon fill="black" stroke="black" points="35.88,-47.62 32.38,-37.62 28.88,-47.62 35.88,-47.62"/>
</g>
</g>
</svg>
